<svg width="90" height="90" viewBox="0 0 90 90" fill="none" xmlns="http://www.w3.org/2000/svg">
<circle cx="45" cy="45" r="45" fill="white"/>
<path d="M45 0C36.0998 0 27.3996 2.6392 19.9994 7.58387C12.5991 12.5285 6.83138 19.5566 3.42544 27.7792C0.0194979 36.0019 -0.871652 45.0499 0.864682 53.7791C2.60102 62.5082 6.88685 70.5264 13.1802 76.8198C19.4736 83.1132 27.4918 87.399 36.2209 89.1353C44.9501 90.8717 53.9981 89.9805 62.2208 86.5746C70.4434 83.1686 77.4715 77.4009 82.4161 70.0006C87.3608 62.6004 90 53.9002 90 45C89.9771 33.0723 85.2287 21.6396 76.7945 13.2055C68.3604 4.77127 56.9277 0.022872 45 0ZM65.5096 46.3413C65.3209 46.7608 65.0569 47.1421 64.7308 47.4663L50.0625 62.1346C49.7484 62.4577 49.3712 62.7127 48.9543 62.8839C48.5375 63.0551 48.09 63.1388 47.6394 63.1298C47.1824 63.1396 46.7281 63.0565 46.3041 62.8854C45.8801 62.7143 45.4953 62.4589 45.1731 62.1346C44.5257 61.4857 44.1622 60.6065 44.1622 59.6899C44.1622 58.7733 44.5257 57.8941 45.1731 57.2452L53.9567 48.4615H27.6923C26.7743 48.4615 25.8938 48.0968 25.2446 47.4477C24.5955 46.7985 24.2308 45.9181 24.2308 45C24.2308 44.0819 24.5955 43.2015 25.2446 42.5523C25.8938 41.9032 26.7743 41.5385 27.6923 41.5385H53.9567L45.1731 32.7548C44.5765 32.0963 44.2559 31.2336 44.2778 30.3453C44.2996 29.4571 44.6623 28.6112 45.2906 27.9829C45.9189 27.3546 46.7648 26.9919 47.6531 26.9701C48.5414 26.9482 49.404 27.2688 50.0625 27.8654L64.7308 42.5336C65.0569 42.8579 65.3209 43.2392 65.5096 43.6586C65.8561 44.5193 65.8561 45.4807 65.5096 46.3413Z" fill="url(#paint0_linear_84_80)"/>
<defs>
<linearGradient id="paint0_linear_84_80" x1="90" y1="45" x2="-2.87989e-06" y2="45" gradientUnits="userSpaceOnUse">
<stop stop-color="#F7971E"/>
<stop offset="1" stop-color="#FFD200"/>
</linearGradient>
</defs>
</svg>
