<svg width="499" height="78" viewBox="0 0 499 78" fill="none" xmlns="http://www.w3.org/2000/svg">
<path d="M45.528 18.0082H53.784V20.7602H44.632L45.528 18.0082ZM67.864 20.7602H60.824V13.0802H47.064C47.384 11.8642 47.768 10.7122 48.088 9.56017L40.728 8.79217C40.408 10.1362 40.024 11.6082 39.576 13.0802H29.976V18.0082H38.104C37.784 18.9682 37.528 19.8642 37.208 20.7602H25.816V25.8802H67.864V20.7602ZM39.768 50.0082V47.0642H47.064V50.0082H39.768ZM37.592 32.2802H55.128V35.4162H37.592V32.2802ZM54.232 59.0322V55.1922H67.48V50.0082H54.232V47.0642H65.752V41.9442H54.232V39.8322H62.552V27.9282H30.68V39.8322H47.064V41.9442H27.992V47.0642H32.856V50.0082H26.2V55.1922H47.064V59.0322H54.232ZM24.984 20.6322C23.192 17.5602 19.096 13.4642 15.704 10.5842L9.75202 14.7442C13.08 17.7522 16.92 22.1042 18.52 25.1122L24.984 20.6322ZM24.024 33.6242H9.62402V40.6002H16.792V54.5522C14.232 56.7282 11.352 58.8402 8.85602 60.4402L12.44 67.9922C15.704 65.2402 18.328 62.8082 20.888 60.3122C24.728 65.2402 29.848 67.0962 37.464 67.4162C45.272 67.7362 58.84 67.6082 66.776 67.2242C67.16 65.1122 68.248 61.5922 69.144 59.8002C60.312 60.5042 45.208 60.6962 37.528 60.3762C31 60.1202 26.52 58.3282 24.024 54.0402V33.6242Z" fill="url(#paint0_linear_286_294)"/>
<path d="M87.64 17.2402L77.784 17.1122C78.168 19.0962 78.296 21.8482 78.296 23.6402C78.296 27.5442 78.36 35.0322 79 40.9202C80.792 58.0722 86.872 64.4082 93.912 64.4082C99.032 64.4082 103.064 60.5042 107.288 49.3682L100.888 41.5602C99.672 46.6802 97.112 54.1682 94.104 54.1682C90.072 54.1682 88.152 47.8322 87.256 38.6162C86.872 34.0082 86.808 29.2082 86.872 25.0482C86.872 23.2562 87.192 19.5442 87.64 17.2402ZM119.64 18.7122L111.512 21.3362C118.488 29.2722 121.88 44.8242 122.904 55.1282L131.288 51.8642C130.584 42.0722 125.72 26.0722 119.64 18.7122Z" fill="url(#paint1_linear_286_294)"/>
<path d="M164.12 12.8882L154.584 11.9282C154.712 15.9602 154.136 20.6322 153.24 25.4322C149.976 25.7522 146.968 25.9442 144.984 26.0082C142.616 26.0722 140.504 26.2002 138.136 26.0082L138.904 34.7122C140.888 34.3922 144.216 33.9442 146.072 33.6242C147.224 33.4962 149.272 33.2402 151.576 32.9842C149.208 41.7522 144.792 54.6802 138.584 63.0642L146.904 66.3922C152.792 56.9842 157.528 41.8162 159.96 32.0882C161.816 31.9602 163.416 31.8322 164.44 31.8322C168.408 31.8322 170.648 32.5362 170.648 37.6562C170.648 43.9922 169.752 51.7362 168.024 55.3842C167 57.4962 165.4 58.1362 163.224 58.1362C161.56 58.1362 157.848 57.4962 155.416 56.7922L156.76 65.2402C158.936 65.6882 162.008 66.1362 164.44 66.1362C169.304 66.1362 172.824 64.7282 174.936 60.2482C177.688 54.6802 178.584 44.3122 178.584 36.7602C178.584 27.5442 173.784 24.5362 167 24.5362C165.656 24.5362 163.8 24.6642 161.624 24.7922C162.072 22.4882 162.584 20.1202 162.968 18.2002C163.288 16.6002 163.736 14.5522 164.12 12.8882ZM192.6 7.57617L187.48 9.62417C189.272 12.0562 191.32 15.8322 192.664 18.4562L197.72 16.2802C196.632 14.0402 194.264 10.0082 192.6 7.57617ZM184.984 10.4562L179.928 12.5682C181.4 14.6162 183 17.6882 184.28 20.1202L178.52 22.6162C183.064 28.2482 187.608 39.5122 189.272 46.6162L197.4 42.9042C195.608 37.2082 190.808 26.5202 186.968 20.5682L190.104 19.2242C188.888 16.8562 186.584 12.8242 184.984 10.4562Z" fill="url(#paint2_linear_286_294)"/>
<path fill-rule="evenodd" clip-rule="evenodd" d="M40.728 8.79201C40.4858 9.80919 40.207 10.8997 39.8915 12.008C39.7901 12.3641 39.6849 12.7221 39.576 13.08H29.976V18.008H38.104C37.9822 18.3734 37.8697 18.7296 37.7593 19.08C37.7518 19.1039 37.7443 19.1278 37.7368 19.1516C37.6596 19.3967 37.5834 19.6391 37.5055 19.88C37.4102 20.1748 37.3125 20.4674 37.208 20.76H25.816V25.88H67.864V20.76H60.824V13.08H47.064C47.1594 12.7176 47.2605 12.3608 47.3638 12.008C47.4566 11.6914 47.5512 11.378 47.6452 11.0666C47.7979 10.5609 47.949 10.0605 48.088 9.56001L40.728 8.79201ZM55.0041 7.08001L55.7683 4.32886L36.1113 2.27769L34.9679 7.08001H23.976V10.0503C22.463 8.54046 20.9286 7.14899 19.5874 6.01025L16.0598 3.01511L0.138733 14.1427L5.72876 19.1953C8.70765 21.8877 11.7989 25.4694 13.0523 27.624H3.624V46.6H10.792V51.7019C9.03761 53.0735 7.22952 54.3557 5.618 55.3887L1.17042 58.2398L10.3567 77.5966L16.3076 72.5791C17.9624 71.184 19.4596 69.8671 20.8657 68.5854C25.4548 71.9022 30.9545 73.1478 37.2121 73.4107L37.2183 73.411C45.2337 73.7395 58.983 73.6081 67.066 73.217L71.8266 72.9866L72.6792 68.2973C72.9857 66.6115 73.923 63.6584 74.5106 62.4833L76.8917 57.721C77.6788 59.5085 78.5744 61.1186 79.5815 62.5495C83.2312 67.7347 88.2752 70.408 93.912 70.408C98.3267 70.408 102.166 68.5929 105.354 65.1238C108.303 61.9141 110.694 57.3068 112.898 51.4959L114.129 48.2496L97.8494 28.3881L95.0504 40.1736C94.7715 41.3478 94.4257 42.6098 94.0343 43.8277C93.7215 42.2322 93.4505 40.3154 93.2318 38.0765C92.8729 33.7456 92.8092 29.1738 92.8713 25.1403L92.872 25.0942V25.048C92.872 23.6253 93.1579 20.2974 93.5297 18.3852L94.9008 11.3338L70.4929 11.0168L71.2174 14.76H66.824V7.08001H55.0041ZM72.4159 31.88H68.552V35.944H71.752V44.008H73.3263C73.2185 43.2077 73.121 42.39 73.0337 41.5551C72.7006 38.4854 72.5167 35.0462 72.4159 31.88ZM79 40.92C80.792 58.072 86.872 64.408 93.912 64.408C99.032 64.408 103.064 60.504 107.288 49.368L100.888 41.56C100.386 43.6753 99.6538 46.1949 98.7558 48.4235C97.4802 51.5892 95.8692 54.168 94.104 54.168C90.072 54.168 88.152 47.832 87.256 38.616C86.872 34.008 86.808 29.208 86.872 25.048C86.872 24.5617 86.8956 23.934 86.9389 23.2314C87.0551 21.345 87.3136 18.9188 87.64 17.24L77.784 17.112C78.1325 18.9124 78.2701 21.3452 78.2926 23.1191C78.2949 23.3001 78.296 23.4742 78.296 23.64C78.296 27.544 78.36 35.032 79 40.92ZM73.48 45.0915V53.4354L75.2702 53.2927C74.5209 50.813 73.9259 48.0781 73.48 45.0915ZM62.5111 60.192C64.2703 60.1152 65.9456 60.0252 67.48 59.9218C68.0555 59.8831 68.6112 59.8425 69.144 59.8C68.9479 60.1922 68.7426 60.6672 68.5375 61.192C67.9745 62.6328 67.4129 64.4497 67.0472 65.9624C66.9374 66.4165 66.8453 66.8431 66.776 67.224C58.84 67.608 45.272 67.736 37.464 67.416C31.5753 67.1686 27.1789 66.0029 23.7125 63.2089C22.9731 62.613 22.2761 61.943 21.6159 61.192C21.3682 60.9102 21.1256 60.617 20.888 60.312C20.6593 60.535 20.4301 60.7574 20.2 60.9797C19.204 61.9415 18.1908 62.8988 17.127 63.8739C16.9219 64.0619 16.715 64.2506 16.5059 64.4401C15.245 65.5826 13.9072 66.755 12.44 67.992L8.856 60.44C11.352 58.84 14.232 56.728 16.792 54.552V40.6H9.624V33.624H24.024V54.04C24.2604 54.4461 24.5146 54.8299 24.7866 55.192C25.2137 55.7605 25.6847 56.2759 26.2 56.7412C28.8221 59.1093 32.5888 60.1823 37.528 60.376C38.5793 60.4198 39.7696 60.454 41.064 60.4786C42.89 60.5134 44.9228 60.529 47.064 60.5255C49.3688 60.5218 51.7992 60.496 54.232 60.448C56.2538 60.4081 58.2774 60.353 60.232 60.2826C61.0039 60.2548 61.765 60.2246 62.5111 60.192ZM67.48 55.192V50.008H54.232V47.064H65.752V41.944H54.232V39.832H62.552V27.928H30.68V39.832H47.064V41.944H27.992V47.064H32.856V50.008H26.2V55.192H47.064V59.032H54.232V55.192H67.48ZM55.128 32.28H37.592V35.416H55.128V32.28ZM47.064 50.008V47.064H39.768V50.008H47.064ZM24.984 20.632C24.7014 20.1475 24.3614 19.6375 23.976 19.1109C23.8063 18.879 23.6278 18.6439 23.4415 18.4063C22.8006 17.5892 22.0673 16.7427 21.2825 15.8972C20.9295 15.517 20.5662 15.137 20.1961 14.76C18.7263 13.2626 17.1511 11.8127 15.704 10.584L9.752 14.744C11.1573 16.0142 12.6539 17.524 14.0346 19.0711C14.5889 19.6922 15.1245 20.3194 15.6281 20.9394C16.8405 22.4324 17.8669 23.8842 18.52 25.112L24.984 20.632ZM91.6921 49.025C91.6921 49.0237 91.706 49.008 91.7337 48.9817C91.706 49.0131 91.6921 49.0263 91.6921 49.025ZM95.5849 48.6714C95.6409 48.727 95.6668 48.7658 95.6657 48.7714C95.6646 48.7769 95.6366 48.7491 95.5849 48.6714ZM53.784 18.008H45.528L44.632 20.76H53.784V18.008ZM121.672 11.7511L124.266 14.8907C127.637 18.9711 130.425 24.7936 132.518 30.5981L131.534 19.4531L138.621 20.0276C140.194 20.1552 141.568 20.1114 143.411 20.0527C143.846 20.0388 144.309 20.0241 144.806 20.0106C145.685 19.9821 146.802 19.9253 148.076 19.8399C148.467 16.9847 148.659 14.3783 148.587 12.1184L148.37 5.27208L171.498 7.60042L170.991 9.79894L187.205 3.02587L187.336 3.21953L194.836 0.219238L197.552 4.1879C199.358 6.82707 201.882 11.1148 203.117 13.6586L205.861 19.3083L195.655 23.7007C198.761 29.6866 201.735 36.6886 203.123 41.1034L204.714 46.1598L185.101 55.1171L183.801 49.5689C183.781 49.7282 183.76 49.8873 183.739 50.0462C183.148 54.4436 182.141 59.1868 180.34 62.8563C178.801 66.0975 176.54 68.6067 173.49 70.1941C170.559 71.7203 167.389 72.136 164.44 72.136C161.439 72.136 157.924 71.6055 155.55 71.1168L151.542 70.2915L149.33 73.8248L129.133 65.7456L133.762 59.4935C134.435 58.585 135.088 57.608 135.72 56.5771L117.715 63.5868L116.933 55.7214C116.452 50.8776 115.411 44.8007 113.692 39.0661C111.938 33.2107 109.652 28.308 107.006 25.2973L100.972 18.4337L121.672 11.7511ZM137.427 53.5799C139.637 49.4145 141.548 44.6878 143.109 40.1483C142.969 40.1689 142.83 40.1894 142.692 40.2097C141.556 40.3767 140.504 40.5315 139.859 40.6355L135.665 41.3119C136.491 44.91 137.054 48.3899 137.273 51.4338L137.427 53.5799ZM145.123 33.7796C145.467 33.7253 145.787 33.6732 146.072 33.624C146.549 33.571 147.18 33.496 147.919 33.4082C148.964 33.2839 150.226 33.134 151.576 32.984C151.059 34.8994 150.444 37.0134 149.734 39.2352C147.803 45.2756 145.17 52.1128 141.887 57.923C140.85 59.7583 139.749 61.4911 138.584 63.064L146.904 66.392C147.968 64.6916 148.995 62.803 149.977 60.7923C150.512 59.697 151.034 58.5655 151.541 57.4084C152.555 55.0967 153.513 52.683 154.404 50.2527C156.778 43.7784 158.685 37.1862 159.96 32.088C160.278 32.0661 160.589 32.0441 160.891 32.0228C162.348 31.9199 163.592 31.832 164.44 31.832C168.408 31.832 170.648 32.536 170.648 37.656C170.648 43.992 169.752 51.736 168.024 55.384C167 57.496 165.4 58.136 163.224 58.136C162.818 58.136 162.29 58.0979 161.688 58.0301C160.618 57.9093 159.314 57.6943 158.049 57.4323C157.113 57.2383 156.198 57.0185 155.416 56.792L156.76 65.24C158.936 65.688 162.008 66.136 164.44 66.136C169.304 66.136 172.824 64.728 174.936 60.248C177.688 54.68 178.584 44.312 178.584 36.76C178.584 35.84 178.536 34.9819 178.443 34.1825C177.981 30.2051 176.405 27.6802 174.058 26.2157C173.853 26.0873 173.641 25.967 173.424 25.8546C171.823 25.027 169.914 24.6273 167.789 24.5501C167.529 24.5406 167.266 24.536 167 24.536C165.879 24.536 164.401 24.6251 162.678 24.729C162.336 24.7496 161.985 24.7708 161.624 24.792C161.889 23.4297 162.176 22.045 162.446 20.7438C162.587 20.0649 162.723 19.4088 162.849 18.7904C162.855 18.7623 162.86 18.7344 162.866 18.7065C162.901 18.5346 162.935 18.3656 162.968 18.2C163.288 16.6 163.736 14.552 164.12 12.888L154.584 11.928C154.644 13.8082 154.55 15.8275 154.343 17.9341C154.105 20.345 153.718 22.8703 153.24 25.432C149.976 25.752 146.968 25.944 144.984 26.008C144.707 26.0155 144.433 26.0239 144.161 26.0325C144.015 26.0372 143.869 26.0419 143.724 26.0467C141.845 26.1078 140.077 26.1654 138.136 26.008L138.904 34.712C139.777 34.5713 140.909 34.4057 142.062 34.2372C143.023 34.0968 143.998 33.9544 144.849 33.8224C144.942 33.808 145.033 33.7937 145.123 33.7796ZM169.007 18.6105C169.926 18.6807 170.857 18.8039 171.784 18.9957L175.833 17.2411C175.566 16.8118 175.306 16.418 175.056 16.0698L170.883 10.2643L169.966 14.2372C169.652 15.6003 169.295 17.2212 169.007 18.6105ZM178.52 22.616C179.649 24.0153 180.778 25.7622 181.863 27.7066C182.694 29.1962 183.499 30.8018 184.258 32.4557C185.521 35.2052 186.657 38.0884 187.575 40.7951C188.285 42.8889 188.865 44.8771 189.272 46.616L197.4 42.904C196.08 38.7083 193.128 31.8038 190.129 26.0789C190.081 25.9866 190.033 25.8947 189.984 25.803C189.75 25.3579 189.515 24.9204 189.28 24.4923C188.628 23.2999 187.98 22.181 187.353 21.1761C187.285 21.0655 187.216 20.9564 187.148 20.8487C187.131 20.8219 187.114 20.7951 187.097 20.7684C187.054 20.701 187.011 20.6342 186.968 20.568L190.104 19.224C190.021 19.0619 189.932 18.892 189.84 18.7154C189.645 18.3461 189.431 17.9474 189.203 17.529C188.595 16.4153 187.884 15.1623 187.169 13.954C186.573 12.9472 185.975 11.9715 185.432 11.1333C185.278 10.8957 185.128 10.6691 184.984 10.456L179.928 12.568C180.129 12.8478 180.333 13.1467 180.537 13.4605C180.82 13.8936 181.105 14.355 181.389 14.8336C181.637 15.25 181.884 15.6794 182.128 16.1145C182.436 16.6629 182.74 17.2202 183.037 17.7718C183.416 18.4785 183.783 19.1758 184.129 19.8327L184.28 20.12L178.52 22.616ZM197.72 16.28C197.668 16.1739 197.614 16.0637 197.557 15.9499C196.887 14.6135 195.849 12.7724 194.787 11.0104C194.03 9.75504 193.259 8.53987 192.6 7.57601L187.48 9.62401C187.707 9.93173 187.938 10.261 188.171 10.6067C189.019 11.8658 189.896 13.3433 190.708 14.7949C191.307 15.8649 191.869 16.9207 192.359 17.8646C192.387 17.918 192.414 17.971 192.442 18.0237C192.518 18.1708 192.592 18.3151 192.664 18.456L197.72 16.28ZM160.245 51.7475C161.313 51.9417 162.289 52.0768 162.88 52.1207C163.273 50.9937 163.702 49.1568 164.04 46.7067C164.431 43.8783 164.639 40.7134 164.648 37.8509C163.489 42.056 162.005 46.8937 160.245 51.7475ZM111.512 21.336C112.815 22.8186 113.993 24.567 115.054 26.4973C118.631 33.0036 120.876 41.5766 122.094 49.0049C122.448 51.1696 122.716 53.2372 122.904 55.128L131.288 51.864C130.584 42.072 125.72 26.072 119.64 18.712L111.512 21.336Z" fill="white"/>
<path d="M201.624 33.9438V42.1998H260.504V33.9438H201.624Z" fill="url(#paint3_linear_286_294)"/>
<path d="M279.832 56.4718V48.9198H309.464V56.4718H279.832ZM309.464 34.1998V41.7518H279.832V34.1998H309.464ZM309.464 19.6718V27.0318H279.832V19.6718H309.464ZM272.152 12.2478V67.8638H279.832V63.8958H309.464V67.8638H317.528V12.2478H272.152Z" fill="url(#paint4_linear_286_294)"/>
<path d="M354.968 52.2478C353.24 56.2158 350.04 60.1838 346.584 62.8078C348.184 63.7678 350.936 65.8158 352.216 66.9678C355.8 63.8958 359.576 58.9678 361.752 53.9758L354.968 52.2478ZM361.24 42.3278H376.024V45.2718H361.24V42.3278ZM369.816 21.2078C371.16 24.0878 372.76 26.9038 374.68 29.3998H362.84C364.76 26.9678 366.36 24.2158 367.768 21.2078H369.816ZM376.024 37.5278H361.24V34.5838H376.024V37.5278ZM337.752 51.4158V44.7598H342.488V51.4158H337.752ZM342.488 18.7118V25.3038H337.752V18.7118H342.488ZM337.752 31.7038H342.488V38.3598H337.752V31.7038ZM383 50.4558V37.4638C383.704 37.9758 384.408 38.4238 385.176 38.8078C386.2 37.0158 388.312 34.3918 389.912 33.1118C387.672 32.0878 385.56 30.7438 383.64 29.0798C385.112 27.7998 386.712 26.1998 388.184 24.5358L383.128 21.5918C382.36 22.7438 381.272 24.2158 380.12 25.5598C378.904 24.2158 377.88 22.7438 376.984 21.2078H387.736V15.1918H370.008C370.52 13.4638 370.968 11.6718 371.352 9.81582L364.568 8.85582C364.184 11.0958 363.608 13.2078 362.968 15.1918H350.552V21.2078H360.28C359.576 22.5518 358.744 23.7678 357.784 24.9198C356.76 23.8318 355.544 22.7438 354.328 21.8478L349.976 25.1118C351.32 26.2638 352.728 27.6718 353.88 29.0158C352.472 30.2318 350.872 31.3198 349.208 32.2158V12.0558H331.096V63.2558H337.752V58.0718H349.208V34.7118C350.232 36.1198 351.32 37.7838 351.768 38.7438C352.728 38.2318 353.688 37.6558 354.584 37.0158V50.4558H365.272V61.0158C365.272 61.5918 365.08 61.7838 364.312 61.8478C363.608 61.8478 361.24 61.8478 359 61.7838C359.96 63.6398 361.048 66.5838 361.24 68.6318C364.952 68.6318 367.704 68.5678 369.752 67.4158C371.928 66.2638 372.44 64.4078 372.44 61.2078V50.4558H383ZM375.128 54.8078C378.328 58.3918 381.72 63.2558 383.256 66.4558L389.144 63.1278C387.544 59.8638 384.024 55.3198 380.76 51.9918L375.128 54.8078Z" fill="url(#paint5_linear_286_294)"/>
<path d="M451.928 17.8158C450.84 15.3838 448.088 11.9278 445.784 9.36782L440.28 12.3758C442.52 15.0638 445.08 18.7758 446.104 21.2078L451.928 17.8158ZM400.856 68.6318C403.928 65.3038 406.616 60.0558 408.024 55.1918L400.664 53.3998C399.192 58.0718 396.44 62.9998 393.624 65.6878L400.856 68.6318ZM412.312 55.6398C413.016 59.5438 413.528 64.7918 413.528 67.8638L420.952 66.7758C420.888 63.7678 420.12 58.7118 419.352 54.8078L412.312 55.6398ZM410.52 34.3278C408.6 32.5998 405.784 30.6798 403.224 29.0798C403.992 28.1198 404.76 27.1598 405.464 26.1358C408.088 27.6078 410.904 29.3998 412.76 30.8718C412.056 32.0878 411.352 33.2398 410.52 34.3278ZM417.304 20.1198C416.728 22.0398 416.088 23.8958 415.384 25.6238C413.4 24.2798 410.84 22.8078 408.472 21.6558L409.368 20.1198H417.304ZM451.48 28.4398V21.3358H439.576V9.68782H432.408V21.3358H424.536C425.048 19.5438 425.56 17.6878 425.944 15.7678L421.08 13.8478L419.864 14.1038H412.504C413.144 12.7598 413.72 11.3518 414.232 10.0078L407.064 8.21582C404.568 15.7038 399.128 24.8558 392.344 30.1678C393.88 31.3198 396.12 33.6238 397.4 35.0318C398.04 34.4558 398.744 33.8798 399.384 33.2398C402.008 35.0318 404.76 37.1438 406.552 38.9358C403.032 42.3918 398.872 45.1438 394.264 47.1278C395.928 48.2798 398.552 51.2238 399.64 52.9518C410.392 47.7678 419.096 38.0398 423.896 23.3838V28.4398H431.96C430.872 35.0318 427.288 42.0078 416.664 47.3838C418.52 48.7278 420.76 51.0318 421.976 52.6958C429.848 48.6638 434.328 43.5438 436.76 38.1038C439.32 44.5678 443.032 49.6238 448.472 52.9518C449.56 50.9038 451.864 47.8318 453.592 46.4238C446.936 43.0318 442.904 36.5038 440.6 28.4398H451.48ZM424.984 55.7678C426.392 59.6718 427.864 64.8558 428.248 67.9278L435.864 66.4558C435.288 63.3198 433.688 58.3278 432.152 54.5518L424.984 55.7678ZM437.784 55.4478C440.6 59.5438 444.056 65.1758 445.336 68.5678L453.144 65.9438C451.544 62.4238 447.96 57.0478 445.08 53.1438L437.784 55.4478Z" fill="url(#paint6_linear_286_294)"/>
<path d="M483.736 46.5518H490.264L491.992 24.6638L492.312 15.1278H481.688L482.008 24.6638L483.736 46.5518ZM487 63.5758C490.2 63.5758 492.632 61.2718 492.632 57.9438C492.632 54.5518 490.2 52.2478 487 52.2478C483.8 52.2478 481.368 54.5518 481.368 57.9438C481.368 61.2718 483.736 63.5758 487 63.5758Z" fill="url(#paint7_linear_286_294)"/>
<path fill-rule="evenodd" clip-rule="evenodd" d="M195.624 27.9438H266.152V6.24779H323.528V73.8638H303.464V69.8958H285.832V73.8638H266.152V48.1998H195.624V27.9438ZM201.624 42.1998V33.9438H260.504V42.1998H201.624ZM317.528 67.8638H309.464V63.8958H279.832V67.8638H272.152V12.2478H317.528V67.8638ZM361.24 37.5278H376.024V34.5838H361.24V37.5278ZM376.024 42.3278H361.24V45.2718H376.024V42.3278ZM365.272 50.4558H354.584V37.0158C353.688 37.6558 352.728 38.2318 351.768 38.7438C351.655 38.5008 351.5 38.2127 351.316 37.8951C351.313 37.8889 351.309 37.8826 351.305 37.8763C351.149 37.6072 350.972 37.3172 350.781 37.0158C350.308 36.2707 349.749 35.4555 349.208 34.7118V58.0718H337.752V63.2558H331.096V12.0558H349.208V32.2158C350.537 31.5002 351.825 30.6622 353.007 29.7344C353.099 29.6624 353.19 29.59 353.28 29.517C353.392 29.4264 353.503 29.335 353.613 29.2428C353.658 29.2052 353.703 29.1674 353.747 29.1296C353.792 29.0918 353.836 29.0538 353.88 29.0158C353.83 28.9572 353.779 28.8985 353.728 28.8397C353.712 28.821 353.695 28.8022 353.679 28.7834C353.22 28.2589 352.726 27.7274 352.214 27.2078C351.865 26.8525 351.507 26.5028 351.147 26.1647C350.949 25.9785 350.75 25.7958 350.552 25.6176C350.359 25.4444 350.167 25.2755 349.976 25.1118L354.328 21.8478C354.622 22.0646 354.917 22.2927 355.208 22.5292C356.121 23.2703 357.008 24.0951 357.784 24.9198C357.863 24.8247 357.942 24.7292 358.019 24.6333C358.88 23.5663 359.634 22.4409 360.28 21.2078H350.552V15.1918H362.968C363.608 13.2078 364.184 11.0958 364.568 8.85579L371.352 9.81579C370.968 11.6718 370.52 13.4638 370.008 15.1918H387.736V21.2078H376.984C377.709 22.4507 378.518 23.6517 379.444 24.7769C379.663 25.0422 379.888 25.3033 380.12 25.5598C380.196 25.4712 380.272 25.3821 380.347 25.2926C381.414 24.0232 382.411 22.6679 383.128 21.5918L388.184 24.5358C388.105 24.6252 388.025 24.7145 387.946 24.8035C387.935 24.815 387.925 24.8265 387.915 24.838C387.855 24.9041 387.796 24.9701 387.736 25.0359C387.055 25.7865 386.353 26.5186 385.654 27.2078C385.073 27.7812 384.493 28.325 383.93 28.8252C383.89 28.8609 383.849 28.8964 383.809 28.9316C383.753 28.9814 383.696 29.0309 383.64 29.0798C383.697 29.1294 383.755 29.1787 383.812 29.2278C384.018 29.4032 384.226 29.575 384.437 29.7432C384.485 29.7822 384.534 29.821 384.583 29.8596C385.899 30.897 387.296 31.793 388.754 32.5476C389.136 32.7454 389.522 32.9334 389.912 33.1118C389.411 33.5123 388.861 34.0444 388.309 34.6414C387.503 35.5129 386.695 36.5229 386.037 37.4638C385.962 37.5713 385.889 37.678 385.818 37.7834C385.575 38.143 385.358 38.4886 385.176 38.8078C384.725 38.5823 384.296 38.3347 383.876 38.0651C383.581 37.8755 383.291 37.6751 383 37.4638V50.4558H372.44V61.2078C372.44 64.4078 371.928 66.2638 369.752 67.4158C367.704 68.5678 364.952 68.6318 361.24 68.6318C361.216 68.3766 361.178 68.1074 361.128 67.8282C361.061 67.4477 360.971 67.0486 360.864 66.6405C360.418 64.9445 359.677 63.0933 359 61.7838C361.24 61.8478 363.608 61.8478 364.312 61.8478C364.319 61.8472 364.326 61.8466 364.333 61.846C365.066 61.7817 365.263 61.5953 365.272 61.0544C365.272 61.0418 365.272 61.0289 365.272 61.0158V50.4558ZM361.752 53.9758C361.483 54.5937 361.189 55.2107 360.874 55.8232C360.765 56.0346 360.654 56.2456 360.54 56.4558C360.144 57.1884 359.72 57.913 359.272 58.6236C359.209 58.7235 359.146 58.8232 359.082 58.9226C358.978 59.0848 358.872 59.2462 358.766 59.4067C357.799 60.865 356.742 62.2532 355.648 63.5176C355.502 63.6865 355.355 63.8531 355.208 64.0173C355.192 64.0355 355.175 64.0537 355.159 64.0718C354.784 64.4893 354.405 64.8915 354.025 65.2764C353.422 65.8866 352.816 66.4533 352.216 66.9678C352.041 66.8107 351.84 66.6369 351.617 66.4515C350.757 65.7352 349.587 64.8452 348.492 64.0718C347.792 63.5776 347.123 63.131 346.584 62.8078C347.483 62.1251 348.365 61.3515 349.208 60.5105C349.734 59.9861 350.244 59.4355 350.735 58.8644C350.831 58.7528 350.926 58.6404 351.02 58.5273C351.146 58.3767 351.27 58.2249 351.392 58.0718C351.813 57.546 352.216 57.006 352.596 56.4558C352.789 56.1777 352.976 55.8971 353.157 55.6144C353.689 54.7831 354.169 53.9339 354.584 53.0804C354.719 52.8032 354.847 52.5255 354.968 52.2478L361.752 53.9758ZM355.532 72.0279L352.119 74.953L348.202 71.4276C347.267 70.5863 345.067 68.9391 343.752 68.1099V69.2558H325.096V6.05579H355.208V9.19179H358.393C358.489 8.74465 358.577 8.29488 358.654 7.84201L359.639 2.0985L378.523 4.77076L377.608 9.19179H393.736V20.2833C397.106 16.0558 399.852 10.8795 401.372 6.31843L403.129 1.04736L422.246 5.82651L421.564 7.61429L421.607 7.60531L426.408 9.50042V3.68779H443.666L447.07 1.82747L450.244 5.35401C452.535 7.89939 455.871 11.9575 457.392 15.3358H457.48V15.5335L459.607 20.2871L457.48 21.5257V34.4398H449.542C451.358 37.4928 453.611 39.6993 456.316 41.0779L464.52 45.2588L457.382 51.0752C456.516 51.7813 454.869 53.8608 453.969 55.4105C455.801 58.2007 457.534 61.103 458.606 63.461L461.357 69.5134L441.765 76.0978L440.122 71.7439L423.09 75.0358L422.782 72.5717L407.528 74.8072V69.9108C406.81 70.9089 406.054 71.8466 405.265 72.7015L402.445 75.7566L388.813 70.2072L380.623 74.836L377.847 69.0522C377.676 68.6961 377.47 68.3041 377.234 67.884C376.251 69.9884 374.669 71.585 372.627 72.6823C370.66 73.7729 368.61 74.2114 366.797 74.4174C365.001 74.6216 363.054 74.6318 361.24 74.6318H355.776L355.532 72.0279ZM378.972 59.5938C379.829 60.7681 380.635 61.9496 381.343 63.0708C382.119 64.3012 382.778 65.4592 383.256 66.4558L389.144 63.1278C388.991 62.8152 388.82 62.4908 388.633 62.1569C388.402 61.7431 388.147 61.3147 387.871 60.8758C387.301 59.9675 386.642 59.0143 385.928 58.0532C385.533 57.5211 385.121 56.9865 384.698 56.4558C384.147 55.7663 383.577 55.0833 383 54.4205C382.257 53.5676 381.502 52.7483 380.76 51.9918L375.128 54.8078C375.597 55.3327 376.07 55.8852 376.54 56.4558C377.183 57.2358 377.822 58.0497 378.44 58.8741C378.619 59.1133 378.797 59.3534 378.972 59.5938ZM389 52.2328C390.287 53.8142 391.516 55.4716 392.567 57.0834C392.946 56.4022 393.312 55.6792 393.654 54.9297C393.386 54.6017 393.076 54.2409 392.736 53.8679C391.83 52.8747 391.119 52.2481 390.849 52.0609L389 50.781V52.2328ZM390.021 42.422L391.891 41.6169C392.698 41.2694 393.488 40.8953 394.258 40.4952L392.96 39.0678C392.868 38.9665 392.773 38.8624 392.675 38.7562C391.841 39.6667 390.892 40.8989 390.385 41.7846L390.021 42.422ZM397.281 34.9008C397.321 34.9452 397.361 34.9889 397.4 35.0318C397.4 35.0315 397.401 35.0312 397.401 35.0309C397.604 34.8481 397.814 34.6654 398.026 34.4805C398.37 34.1798 398.721 33.8737 399.061 33.5533C399.17 33.4504 399.278 33.346 399.384 33.2398C399.671 33.4361 399.96 33.6362 400.249 33.8393C400.813 34.2356 401.378 34.6433 401.932 35.0562C403.207 36.006 404.428 36.9832 405.465 37.9117C405.856 38.2613 406.22 38.604 406.552 38.9358C405.115 40.347 403.571 41.6409 401.933 42.813C401.298 43.2674 400.649 43.7035 399.987 44.1211C398.174 45.2641 396.261 46.268 394.264 47.1278C394.751 47.465 395.32 47.9557 395.909 48.5245C396.893 49.4744 397.931 50.6422 398.733 51.6764C399.091 52.1387 399.402 52.5743 399.64 52.9518C400.074 52.7426 400.504 52.5261 400.931 52.3021C402.921 51.2585 404.836 50.0537 406.663 48.6852C406.919 48.4937 407.173 48.2991 407.425 48.1013C409.612 46.3855 411.667 44.4282 413.57 42.2249C415.574 39.9045 417.408 37.3113 419.046 34.4398C420.119 32.5596 421.108 30.5601 422.006 28.4398C422.16 28.0754 422.312 27.7074 422.461 27.3358C422.972 26.0607 423.451 24.7434 423.896 23.3838V28.4398H431.96C431.633 30.423 431.079 32.4411 430.177 34.4398C428.663 37.7902 426.167 41.0866 422.105 44.0742C420.703 45.1058 419.114 46.1005 417.315 47.048C417.101 47.1606 416.884 47.2725 416.664 47.3838C416.732 47.4328 416.8 47.4831 416.869 47.5346C417.386 47.9228 417.929 48.3793 418.467 48.8706C418.536 48.9331 418.604 48.9962 418.673 49.0598C419.172 49.5243 419.664 50.0153 420.127 50.5061C420.522 50.9258 420.895 51.3453 421.231 51.7479C421.507 52.0783 421.758 52.3974 421.976 52.6958C422.768 52.29 423.526 51.8733 424.251 51.4463C424.418 51.3478 424.584 51.2487 424.747 51.1491C425.761 50.5323 426.709 49.895 427.593 49.2394C429.718 47.6648 431.481 45.9849 432.938 44.2314C434.571 42.2665 435.819 40.2091 436.76 38.1038C437.697 40.4688 438.787 42.6452 440.061 44.6176C440.768 45.7129 441.531 46.7453 442.356 47.7121C442.79 48.2216 443.242 48.7128 443.711 49.1855C443.769 49.2437 443.827 49.3016 443.885 49.3593C444.798 50.2616 445.777 51.0945 446.827 51.8552C447.357 52.2393 447.905 52.6049 448.472 52.9518C448.771 52.3885 449.162 51.7478 449.608 51.0855C449.627 51.0578 449.646 51.03 449.665 51.0023C449.865 50.7066 450.076 50.4071 450.295 50.1087C451.348 48.6691 452.571 47.2559 453.592 46.4238C451.726 45.4728 450.066 44.2752 448.593 42.8664C446.189 40.5686 444.282 37.7087 442.786 34.4398C441.928 32.5647 441.204 30.5551 440.6 28.4398H451.48V21.3358H439.576V9.68779H432.408V21.3358H424.536C425.048 19.5438 425.56 17.6878 425.944 15.7678L421.08 13.8478L419.864 14.1038H412.504C413.144 12.7598 413.72 11.3518 414.232 10.0078L407.064 8.21579C405.136 13.9989 401.453 20.7746 396.75 26.0072C395.956 26.8907 395.133 27.7301 394.284 28.5134C393.651 29.0978 393.004 29.651 392.344 30.1678C393.644 31.1426 395.448 32.9422 396.747 34.3259C396.937 34.5276 397.116 34.7205 397.281 34.9008ZM403.471 28.7706C403.389 28.8737 403.306 28.9768 403.224 29.0798C403.368 29.17 403.513 29.2612 403.659 29.3533C404.486 29.8762 405.333 30.4288 406.161 30.9946C406.865 31.4748 407.555 31.9645 408.209 32.4533C408.6 32.7456 408.978 33.0376 409.338 33.3271C409.648 33.5762 409.945 33.8234 410.226 34.0674C410.326 34.1546 410.424 34.2414 410.52 34.3278C411.316 33.2873 411.994 32.1883 412.668 31.0308C412.699 30.9779 412.729 30.9249 412.76 30.8718C412.566 30.718 412.362 30.5607 412.148 30.4006C410.485 29.1545 408.267 27.7409 406.113 26.5043C405.896 26.3795 405.679 26.2566 405.464 26.1358C405.338 26.3186 405.211 26.4994 405.081 26.6785C404.564 27.3949 404.019 28.0845 403.471 28.7706ZM408.472 21.6558C408.768 21.7999 409.067 21.949 409.368 22.1022C409.632 22.2366 409.897 22.3742 410.162 22.5144C411.38 23.1588 412.602 23.8578 413.728 24.554C414.31 24.914 414.867 25.2732 415.384 25.6238C415.415 25.5488 415.445 25.4736 415.475 25.3981C416.143 23.7346 416.753 21.9565 417.304 20.1198H409.368L408.472 21.6558ZM446.104 21.2078C445.958 20.8601 445.78 20.4862 445.576 20.0929C445.121 19.215 444.537 18.2404 443.884 17.2439C443.671 16.9198 443.452 16.5934 443.227 16.2673C443.012 15.9558 442.792 15.6446 442.57 15.3358C441.817 14.2919 441.031 13.2764 440.28 12.3758L445.784 9.36779C446.714 10.4011 447.717 11.5803 448.654 12.7792C449.239 13.5276 449.798 14.2836 450.298 15.0167C450.371 15.1236 450.442 15.23 450.513 15.3358C450.877 15.8844 451.204 16.4172 451.48 16.9211C451.65 17.2313 451.8 17.5306 451.928 17.8158L446.104 21.2078ZM420.297 60.2971C420.165 59.4032 420.02 58.4989 419.868 57.613C419.701 56.6434 419.527 55.6958 419.352 54.8078L412.312 55.6398C412.361 55.912 412.409 56.1908 412.456 56.4748C412.619 57.4576 412.77 58.5044 412.903 59.5656C412.988 60.2368 413.066 60.9139 413.135 61.5842C413.145 61.674 413.154 61.7637 413.163 61.8532C413.392 64.1137 413.528 66.2785 413.528 67.8638L420.952 66.7758C420.919 65.2255 420.699 63.1312 420.388 60.9309C420.359 60.7205 420.328 60.5091 420.297 60.2971ZM400.664 53.3998C400.56 53.7292 400.45 54.06 400.334 54.3911C399.576 56.5527 398.565 58.7313 397.419 60.6834C397.408 60.7026 397.397 60.7218 397.386 60.741C396.887 61.586 396.364 62.3878 395.826 63.1268C395.111 64.1067 394.37 64.9758 393.624 65.6878L400.856 68.6318C402.746 66.5843 404.491 63.8099 405.881 60.8454C406.19 60.1874 406.481 59.52 406.753 58.8492C407.071 58.0629 407.362 57.2719 407.622 56.4855C407.766 56.0523 407.9 55.6206 408.024 55.1918L400.664 53.3998ZM425.607 57.5662C425.4 56.9462 425.192 56.3431 424.984 55.7678L432.152 54.5518C432.631 55.7283 433.115 57.0229 433.574 58.3425C433.839 59.106 434.095 59.8779 434.335 60.6402C434.425 60.9227 434.512 61.2039 434.596 61.4829C435.098 63.1348 435.515 64.7085 435.779 66.0137C435.809 66.1648 435.838 66.3122 435.864 66.4558L428.248 67.9278C428.119 66.8955 427.867 65.6247 427.536 64.2442C427.328 63.3758 427.088 62.4639 426.828 61.5406C426.648 60.8992 426.457 60.2523 426.26 59.6106C426.048 58.9186 425.829 58.2326 425.607 57.5662ZM441.174 60.6692C442.947 63.5639 444.551 66.4872 445.336 68.5678L453.144 65.9438C452.533 64.5989 451.632 62.9831 450.591 61.2819C450.455 61.0597 450.317 60.836 450.177 60.6113C449.135 58.9435 447.98 57.2183 446.849 55.6048C446.246 54.7441 445.649 53.9152 445.08 53.1438L437.784 55.4478C438.524 56.5248 439.309 57.7081 440.087 58.9288C440.453 59.503 440.817 60.0855 441.174 60.6692ZM363.464 28.5838C363.26 28.8596 363.052 29.1317 362.84 29.3998H374.68C374.474 29.1314 374.271 28.8593 374.072 28.5838C373.415 27.6755 372.798 26.7305 372.217 25.76C371.755 24.9874 371.316 24.1988 370.898 23.3998C370.733 23.0831 370.571 22.7649 370.412 22.4453C370.208 22.0346 370.009 21.6219 369.816 21.2078H367.768C367.573 21.624 367.375 22.0353 367.172 22.4416C367.011 22.7642 366.848 23.0836 366.682 23.3998C366.259 24.2047 365.819 24.9882 365.358 25.7491C364.763 26.7329 364.133 27.6788 363.464 28.5838ZM337.752 44.7598V51.4158H342.488V44.7598H337.752ZM342.488 18.7118H337.752V25.3038H342.488V18.7118ZM342.488 31.7038H337.752V38.3598H342.488V31.7038ZM478.019 50.3722L476.016 25.0007L475.483 9.12779H498.517L497.984 25.0007L495.981 50.3722C497.64 52.373 498.632 54.985 498.632 57.9438C498.632 64.6756 493.423 69.5758 487 69.5758C483.924 69.5758 480.953 68.4685 478.734 66.2674C476.508 64.0592 475.368 61.0755 475.368 57.9438C475.368 54.985 476.36 52.373 478.019 50.3722ZM490.264 46.5518L491.992 24.6638L492.312 15.1278H481.688L482.008 24.6638L483.736 46.5518H490.264ZM485.069 52.5518C482.871 53.2826 481.368 55.2769 481.368 57.9438C481.368 61.2718 483.736 63.5758 487 63.5758C490.2 63.5758 492.632 61.2718 492.632 57.9438C492.632 55.2769 491.129 53.2826 488.931 52.5518C488.333 52.3531 487.684 52.2478 487 52.2478C486.316 52.2478 485.667 52.3531 485.069 52.5518ZM279.832 56.4718H309.464V48.9198H279.832V56.4718ZM309.464 34.1998H279.832V41.7518H309.464V34.1998ZM309.464 19.6718H279.832V27.0318H309.464V19.6718Z" fill="white"/>
<defs>
<linearGradient id="paint0_linear_286_294" x1="103" y1="3" x2="103" y2="67" gradientUnits="userSpaceOnUse">
<stop stop-color="#117BD6"/>
<stop offset="1" stop-color="#16ADDD"/>
</linearGradient>
<linearGradient id="paint1_linear_286_294" x1="103" y1="3" x2="103" y2="67" gradientUnits="userSpaceOnUse">
<stop stop-color="#117BD6"/>
<stop offset="1" stop-color="#16ADDD"/>
</linearGradient>
<linearGradient id="paint2_linear_286_294" x1="103" y1="3" x2="103" y2="67" gradientUnits="userSpaceOnUse">
<stop stop-color="#117BD6"/>
<stop offset="1" stop-color="#16ADDD"/>
</linearGradient>
<linearGradient id="paint3_linear_286_294" x1="359" y1="3" x2="359" y2="67" gradientUnits="userSpaceOnUse">
<stop stop-color="#117BD6"/>
<stop offset="1" stop-color="#16ADDD"/>
</linearGradient>
<linearGradient id="paint4_linear_286_294" x1="359" y1="3" x2="359" y2="67" gradientUnits="userSpaceOnUse">
<stop stop-color="#117BD6"/>
<stop offset="1" stop-color="#16ADDD"/>
</linearGradient>
<linearGradient id="paint5_linear_286_294" x1="359" y1="3" x2="359" y2="67" gradientUnits="userSpaceOnUse">
<stop stop-color="#117BD6"/>
<stop offset="1" stop-color="#16ADDD"/>
</linearGradient>
<linearGradient id="paint6_linear_286_294" x1="359" y1="3" x2="359" y2="67" gradientUnits="userSpaceOnUse">
<stop stop-color="#117BD6"/>
<stop offset="1" stop-color="#16ADDD"/>
</linearGradient>
<linearGradient id="paint7_linear_286_294" x1="359" y1="3" x2="359" y2="67" gradientUnits="userSpaceOnUse">
<stop stop-color="#117BD6"/>
<stop offset="1" stop-color="#16ADDD"/>
</linearGradient>
</defs>
</svg>
