<svg width="665" height="119" viewBox="0 0 665 119" fill="none" xmlns="http://www.w3.org/2000/svg">
<path d="M32.44 99.48C32.56 98.4 32.68 97.28 32.84 96.08H37.56C37.44 97.36 37.36 98.48 37.24 99.48H32.44ZM27.48 96.08C27.32 97.28 27.16 98.4 27.04 99.48H22.52C22.68 98.36 22.84 97.24 23 96.08H27.48ZM24.08 87.72H28.28C28.2 88.76 28.12 89.84 28 90.92H23.68L24.08 87.72ZM37.88 90.92H33.36C33.48 89.84 33.6 88.76 33.68 87.72H38L37.88 90.92ZM48.84 96.08V90.92H43.56C43.68 89.16 43.76 87.24 43.84 85.12C43.88 84.44 43.92 82.68 43.92 82.68H20.32C20.88 81.96 21.44 81.2 21.92 80.44H47.2V75.28H24.92C25.36 74.48 25.72 73.68 26.12 72.84L19.84 71.76C18.32 75.72 15.56 80.16 11.28 83.56C12.8 84.32 15.04 86 16.16 87.28C17.04 86.48 17.84 85.64 18.6 84.76C18.4 86.76 18.16 88.84 17.88 90.92H11.2V96.08H17.2C16.64 99.84 16.04 103.4 15.44 106.24L21.36 106.64C21.48 105.96 21.6 105.28 21.72 104.52H36.28C36.2 104.8 36.08 105 35.96 105.12C35.52 105.68 35.16 105.84 34.44 105.84C33.56 105.84 32.16 105.8 30.4 105.64C31.08 106.84 31.68 108.68 31.72 109.88C33.88 109.96 35.96 110 37.32 109.76C38.8 109.52 40 109.08 41.08 107.56C41.52 106.96 41.88 106.04 42.2 104.52H47.76V99.48H42.96C43.04 98.48 43.16 97.32 43.24 96.08H48.84Z" fill="#333333"/>
<path d="M66.8 92.44C66.92 91.12 67 89.8 67.04 88.6H81.88V92.44H66.8ZM81.88 79.24V83.08H67.04V79.24H81.88ZM88.08 73.56H61.04V87.28C61.04 93.24 60.56 100.72 54.68 105.6C55.96 106.4 58.32 108.6 59.2 109.8C62.84 106.8 64.84 102.52 65.92 98.08H81.88V102.68C81.88 103.48 81.56 103.8 80.64 103.8C79.68 103.8 76.32 103.84 73.76 103.64C74.68 105.2 75.84 108.04 76.16 109.76C80.24 109.76 83.16 109.64 85.28 108.64C87.32 107.68 88.08 106.04 88.08 102.76V73.56Z" fill="#333333"/>
<path d="M205.36 94.48C204.56 93.68 201.68 91.12 199.76 89.56C201.56 86.96 203.08 84.08 204.2 81.08L200.96 78.96L199.96 79.16H199.08V71.84H193.32V79.16H187.92V84.4H196.84C194.36 88.64 190.48 92.4 186.36 94.52C187.2 95.64 188.56 98.56 189.04 100.12C190.48 99.24 191.92 98.16 193.32 96.92V109.84H199.08V95.64C200.12 96.92 201.12 98.2 201.84 99.2L205.36 94.48ZM217.24 102.96V89.4H224.36V83.8H217.24V72.24H211.24V83.8H204.16V89.4H211.24V102.96H202.48V108.68H225.36V102.96H217.24Z" fill="#333333"/>
<path d="M245.88 93.44C245.24 92.44 242.4 88.04 241.32 86.56V85.24H245V79.88H241.32V71.8H236.08V79.88H231.64V85.24H235.68C234.72 89.64 232.84 94.68 230.64 97.72C231.44 99.08 232.64 101.32 233.12 102.88C234.24 101.24 235.2 99.12 236.08 96.72V109.8H241.32V93.72C241.96 95.16 242.56 96.52 242.96 97.56L245.88 93.44ZM253.52 96.44C252.72 95.08 251 93.12 249.6 91.72L245.68 94.32C247.04 95.84 248.68 97.96 249.36 99.32L253.52 96.44ZM264.4 91.6C263.56 92.72 262.28 94.16 261.08 95.32C260.6 94.48 260.2 93.56 259.84 92.64V91.24H268.8V86.56H259.84V85.6H267.16V81.32H259.84V80.44H267.96V75.92H264.92C265.48 75.04 266.08 74.08 266.76 73.04L260.96 71.72C260.64 72.92 260.04 74.6 259.44 75.92H254.92C254.52 74.72 253.64 73.08 252.8 71.84L248.24 73.36C248.68 74.12 249.12 75.04 249.48 75.92H245.96V80.44H254.24V81.32H246.96V85.6H254.24V86.56H245.2V91.24H254.24V104.24C254.24 104.68 254.08 104.88 253.6 104.88C253.16 104.88 251.76 104.88 250.64 104.8C251.84 104.12 253.04 103.44 254.16 102.8L252.68 98.12C249.36 99.76 245.96 101.44 243.64 102.4L246.12 107.28C247.52 106.56 249.04 105.72 250.6 104.84C251.24 106.2 251.88 108.4 252.04 109.88C254.6 109.88 256.52 109.76 258 108.92C259.44 108.08 259.84 106.72 259.84 104.28V102C261.44 104.44 263.44 106.48 265.92 107.88C266.72 106.4 268.4 104.24 269.56 103.16C267.28 102.24 265.36 100.84 263.8 99.12C265.28 97.92 267.12 96.28 268.76 94.68L264.4 91.6Z" fill="#333333"/>
<path d="M282.16 78.68H284.4C283.84 81.52 283.08 85.08 282.44 87.48C284.4 89.96 284.84 92.36 284.84 94.04C284.84 95.12 284.64 95.76 284.24 96.08C283.92 96.32 283.56 96.4 283.16 96.4H282.16V78.68ZM286.84 73.32L286.04 73.52H276.76V109.84H282.16V97.24C282.68 98.6 282.96 100.32 283 101.52C283.96 101.52 284.92 101.52 285.64 101.4C286.56 101.24 287.4 100.96 288.08 100.44C289.48 99.44 290.08 97.76 290.08 94.84C290.08 92.6 289.72 89.88 287.44 86.88C288.52 83.76 289.8 79.16 290.8 75.56L286.84 73.32ZM307.84 92.84C307.12 93.84 306.2 94.96 305.2 96.04C304.76 95.04 304.4 93.96 304.08 92.84H307.84ZM297 85.48H304.64V87.88H297V85.48ZM304.64 78.56V80.8H297V78.56H304.64ZM308 92.84H310.4V73.6H291.36V102.96C289.88 103.16 288.56 103.36 287.4 103.52L289.32 109.16C293.08 108.36 297.76 107.36 302.16 106.32L301.72 101.28C300.16 101.56 298.56 101.8 297 102.08V92.84H299.04C300.72 100.6 303.56 106.52 309.48 109.68C310.28 108.16 312 105.88 313.24 104.76C310.92 103.72 309.04 102.2 307.6 100.28C309.12 99 310.84 97.44 312.44 95.88L308 92.84Z" fill="#333333"/>
<path d="M326.28 81.08H349.48V86.4H355.48V75.6H341.08V71.88H334.84V75.6H320.56V86.4H326.28V81.08ZM341.04 98.84H351.52V93.4H341.04V89.32H348.64V83.8H327.2V89.32H334.96V101.84C333.12 100.76 331.64 99.08 330.6 96.44C330.96 94.88 331.24 93.2 331.44 91.48L325.36 90.88C324.76 97.56 322.88 103.04 318.6 106.08C319.96 106.96 322.44 109.04 323.4 110.08C325.52 108.28 327.16 105.96 328.4 103.2C332 108.36 337.24 109.48 344.2 109.48H354.64C354.92 107.72 355.84 104.92 356.68 103.56C353.56 103.68 347.04 103.68 344.52 103.68C343.32 103.68 342.16 103.64 341.04 103.52V98.84Z" fill="#333333"/>
<path d="M368.64 76.04V82.04C369.88 81.96 371.2 81.92 372.68 81.92H376.56V87.8H370.72C369.4 87.8 367.16 87.64 366 87.56V93.88C367.28 93.8 369.52 93.68 370.72 93.68H376.56V100.64C376.56 105.12 378.28 107.84 386.32 107.84C390.04 107.84 394.96 107.72 397.28 107.6L397.72 101C394.64 101.32 390.96 101.56 387.52 101.56C384.56 101.56 383.24 101 383.24 98.72V93.68H394.68C395.56 93.68 397.56 93.64 398.76 93.8L398.72 87.6C397.6 87.68 395.36 87.8 394.52 87.8H383.24V81.92H392.08C393.56 81.92 394.76 82 395.84 82.04V76.04C394.88 76.16 393.44 76.24 392.08 76.24H372.68C371.2 76.24 369.88 76.12 368.64 76.04Z" fill="#333333"/>
<path d="M412.6 78.2V85.24C414.04 85.16 416.16 85.08 417.76 85.08H433.96C435.4 85.08 437.48 85.2 438.68 85.24V78.2C437.52 78.36 435.64 78.48 433.96 78.48H417.72C416.32 78.48 414.16 78.4 412.6 78.2ZM409.28 97.64V105.04C410.88 104.88 413.12 104.76 414.76 104.76H437.16C438.4 104.76 440.44 104.88 442 105.04V97.64C440.52 97.8 438.6 97.92 437.16 97.92H414.76C413.12 97.92 410.96 97.76 409.28 97.64Z" fill="#333333"/>
<path d="M473.48 74.16L466.48 72C466.04 73.56 465.08 75.64 464.36 76.76C462.24 80.12 458.76 85.32 451.68 89.68L456.92 93.72C460.68 91.12 464.52 87.28 467.44 83.48H477.72C477.2 85.56 475.68 88.52 473.92 91.08C471.6 89.56 469.28 88.12 467.44 87.04L463.12 91.48C464.92 92.64 467.28 94.28 469.68 96.04C466.6 99.08 462.4 102.08 455.52 104.24L461.16 109.12C467.08 106.84 471.48 103.6 474.92 100.04C476.56 101.36 478 102.6 479.04 103.56L483.68 98.04C482.56 97.16 481 96 479.28 94.76C482.04 90.84 483.96 86.76 485 83.8C485.44 82.6 486.04 81.4 486.56 80.52L481.68 77.48C480.64 77.8 479.04 78 477.72 78H471.08C471.68 76.96 472.6 75.4 473.48 74.16Z" fill="#333333"/>
<path d="M497.44 86.8V94.44C499.08 94.32 502.08 94.2 504.36 94.2H525.6C527.24 94.2 529.48 94.4 530.52 94.44V86.8C529.36 86.88 527.4 87.08 525.6 87.08H504.36C502.4 87.08 499.04 86.92 497.44 86.8Z" fill="#333333"/>
<path d="M564.2 84.96H562.68V80.84H564.2V84.96ZM570.56 101.76H569.04V90H570.56V101.76ZM556.36 90H557.8V101.76H556.36V90ZM564.2 90V101.76H562.64V90H564.2ZM576.32 80.84V75.64H551.08C551.36 74.96 551.64 74.24 551.88 73.56L546.64 71.88C544.8 77.2 541.64 82.52 538.32 85.88C539.24 87.28 540.76 90.4 541.24 91.76C541.8 91.16 542.36 90.52 542.92 89.84V109.8H548.36V81.4C549.2 79.76 550 78.12 550.72 76.44V80.84H557.24V84.96H551.04V108.84H556.36V106.72H570.56V108.6H576.16V84.96H569.68V80.84H576.32Z" fill="#333333"/>
<path d="M605.64 94.6C606.88 93.84 608.04 92.96 609.16 92.04C610.28 92.96 611.52 93.84 612.8 94.6H605.64ZM605.56 103.68V99.44H612.4V103.68H605.56ZM598.6 91.04C597.96 90.2 595.08 86.8 594 85.72V85.24H597.92C598.88 86.12 599.92 87.08 600.48 87.68C601.28 86.96 602.12 86.12 602.92 85.2C603.6 86.2 604.4 87.24 605.24 88.24C602.96 90.04 600.32 91.52 597.48 92.64L598.6 91.04ZM611.56 80.92C610.8 82.24 609.92 83.52 608.92 84.68C607.84 83.48 606.88 82.28 606.08 81.04L606.16 80.92H611.56ZM615.24 75.8L614.28 76H609C609.44 75.12 609.84 74.2 610.2 73.32L604.68 71.76C603.24 75.56 600.88 79.24 598.08 82V79.88H594V71.8H588.52V79.88H583.64V85.24H588.12C587.04 89.68 585.04 94.68 582.68 97.72C583.52 99.16 584.8 101.44 585.28 103.04C586.48 101.36 587.56 99.12 588.52 96.6V109.8H594V92.4C594.6 93.48 595.16 94.56 595.56 95.4L596.32 94.28C597.24 95.44 598.2 96.92 598.72 98C599.2 97.8 599.72 97.6 600.2 97.4V109.8H605.56V108.64H612.4V109.68H618V97.08H618.04C618.8 95.64 620.44 93.36 621.6 92.24C618.32 91.36 615.48 89.96 613.04 88.24C615.6 85.24 617.6 81.68 618.92 77.48L615.24 75.8Z" fill="#333333"/>
<path d="M631.64 95.2H636.24L637.28 81.68L637.52 75.32H630.36L630.6 81.68L631.64 95.2ZM633.92 106.56C636.4 106.56 638.16 104.6 638.16 102.12C638.16 99.64 636.4 97.72 633.92 97.72C631.48 97.72 629.72 99.64 629.72 102.12C629.72 104.6 631.48 106.56 633.92 106.56Z" fill="#333333"/>
<path d="M651.538 95.2H656.138L657.178 81.68L657.418 75.32H650.258L650.498 81.68L651.538 95.2ZM653.818 106.56C656.298 106.56 658.058 104.6 658.058 102.12C658.058 99.64 656.298 97.72 653.818 97.72C651.378 97.72 649.618 99.64 649.618 102.12C649.618 104.6 651.378 106.56 653.818 106.56Z" fill="#333333"/>
<path fill-rule="evenodd" clip-rule="evenodd" d="M27.1547 98.52C27.1391 98.6432 27.1239 98.7658 27.109 98.8877C27.0918 99.0298 27.0751 99.171 27.059 99.3116C27.0525 99.3678 27.0462 99.424 27.04 99.48H22.52C22.5435 99.3153 22.5671 99.1505 22.5906 98.9857C22.5944 98.9592 22.5981 98.9328 22.6019 98.9064C22.6203 98.7777 22.6386 98.6489 22.657 98.52C22.7321 97.9927 22.8072 97.4629 22.8823 96.9263C22.8826 96.9242 22.8829 96.9221 22.8832 96.92C22.9221 96.642 22.9611 96.3622 23 96.08H27.48C27.4527 96.2845 27.4255 96.4867 27.3984 96.6867C27.3878 96.7648 27.3773 96.8426 27.3668 96.92C27.3665 96.9221 27.3662 96.9241 27.366 96.9262C27.2921 97.4716 27.2203 98.0015 27.1547 98.52ZM21.72 104.52C21.6674 104.853 21.6148 105.171 21.5622 105.48C21.4948 105.876 21.4274 106.258 21.36 106.64L15.44 106.24C15.483 106.036 15.526 105.829 15.5691 105.618C15.5839 105.545 15.5987 105.472 15.6136 105.399C15.729 104.826 15.8443 104.229 15.9591 103.61C16.0514 103.113 16.1435 102.603 16.2351 102.08C16.3368 101.5 16.4379 100.906 16.5383 100.301C16.6273 99.7635 16.7157 99.2172 16.8034 98.6634C16.811 98.6157 16.8186 98.5679 16.8261 98.52C16.9093 97.9927 16.9919 97.4589 17.0737 96.92C17.116 96.6413 17.1581 96.3612 17.2 96.08H11.2V90.92H17.88C17.912 90.6823 17.9435 90.4445 17.9744 90.2068C17.9799 90.1646 17.9854 90.1223 17.9909 90.08C18.0207 89.8501 18.05 89.6203 18.0788 89.3907C18.1086 89.1535 18.1378 88.9166 18.1665 88.68C18.2346 88.1191 18.2997 87.5604 18.362 87.0053C18.4306 86.3924 18.4957 85.7841 18.5573 85.1824C18.5652 85.1045 18.5731 85.0267 18.581 84.949C18.5874 84.8859 18.5937 84.823 18.6 84.76C18.5239 84.8482 18.4474 84.9359 18.3704 85.0232C18.209 85.2064 18.0456 85.3878 17.88 85.5674C17.336 86.1573 16.767 86.7282 16.16 87.28C16.0943 87.2049 16.0247 87.1285 15.9517 87.0509C15.3068 86.366 14.3905 85.5946 13.4583 84.92C13.1754 84.7153 12.8909 84.5194 12.6122 84.3377C12.3376 84.1586 12.0685 83.9931 11.8118 83.8462C11.6273 83.7406 11.4492 83.6446 11.28 83.56C11.5716 83.3284 11.8561 83.0919 12.1337 82.8511C12.7475 82.3186 13.3272 81.7648 13.8738 81.195C13.9644 81.1006 14.054 81.0058 14.1427 80.9106C14.6755 80.3387 15.1757 79.7517 15.6443 79.1549C15.6624 79.1318 15.6805 79.1087 15.6985 79.0856C15.9677 78.7404 16.2264 78.3919 16.4747 78.0412C16.6074 77.8539 16.7371 77.6659 16.8638 77.4774C16.9002 77.4234 16.9363 77.3693 16.9722 77.3151C17.6039 76.3618 18.161 75.397 18.6472 74.44C18.8971 73.9481 19.1282 73.4583 19.3411 72.9732C19.5202 72.565 19.6864 72.1601 19.84 71.76L26.12 72.84C26.0363 73.0158 25.9544 73.1897 25.8731 73.3623C25.8292 73.4555 25.7855 73.5483 25.7418 73.6408C25.6148 73.9096 25.4879 74.1756 25.3569 74.44C25.2176 74.7212 25.0737 75.0006 24.92 75.28H47.2V80.44H21.92C21.7427 80.7207 21.5545 81.0014 21.3595 81.28C21.2564 81.4274 21.1513 81.5741 21.0449 81.72C20.8077 82.0454 20.5638 82.3665 20.32 82.68H43.92C43.92 82.68 43.8866 84.1473 43.8504 84.92C43.8469 84.9936 43.8435 85.0609 43.84 85.12C43.823 85.5689 43.8061 86.0087 43.7888 86.44C43.7683 86.9501 43.7473 87.4481 43.7251 87.9347C43.7137 88.1862 43.7019 88.4346 43.6898 88.68C43.6661 89.1577 43.6409 89.6241 43.6136 90.08C43.5966 90.3641 43.5788 90.644 43.56 90.92H48.84V96.08H43.24C43.2285 96.2581 43.2162 96.4345 43.2033 96.6091C43.1956 96.7134 43.1876 96.8171 43.1796 96.92C43.1403 97.4203 43.0972 97.9035 43.0562 98.3637C43.0516 98.4161 43.0469 98.4682 43.0423 98.52C43.0127 98.8535 42.9844 99.1742 42.96 99.48H47.76V104.52H42.2C42.1261 104.871 42.0501 105.19 41.9715 105.48C41.9118 105.701 41.8506 105.905 41.7877 106.094C41.5744 106.734 41.3413 107.204 41.08 107.56C40.8145 107.934 40.5418 108.242 40.2595 108.498C40.0911 108.651 39.9193 108.785 39.7436 108.904C39.0152 109.395 38.2193 109.614 37.32 109.76C37.0085 109.815 36.6593 109.855 36.28 109.884C35.7233 109.926 35.1019 109.942 34.44 109.942C33.5835 109.942 32.6593 109.915 31.72 109.88C31.68 108.68 31.08 106.84 30.4 105.64C30.9243 105.688 31.4167 105.725 31.8728 105.753C32.948 105.82 33.8221 105.84 34.44 105.84C34.9727 105.84 35.3084 105.752 35.6252 105.48C35.7365 105.384 35.8455 105.266 35.96 105.12C36.08 105 36.2 104.8 36.28 104.52H21.72ZM23.68 90.92H28C28.0218 90.7237 28.0423 90.5274 28.0617 90.3313C28.07 90.2475 28.0781 90.1637 28.086 90.08C28.1305 89.6103 28.1693 89.1425 28.2058 88.68C28.2174 88.5328 28.2288 88.3861 28.24 88.24C28.2477 88.1407 28.2553 88.0416 28.2629 87.9429C28.2686 87.8684 28.2743 87.7941 28.28 87.72H24.08L23.68 90.92ZM37.3419 98.52C37.378 98.1422 37.4122 97.7481 37.4479 97.336C37.4598 97.1994 37.4718 97.0607 37.4842 96.92C37.4905 96.8478 37.4969 96.7751 37.5034 96.7018C37.5214 96.4988 37.5401 96.2916 37.56 96.08H32.84C32.8084 96.3173 32.7783 96.5514 32.7495 96.7826C32.7438 96.8285 32.7381 96.8743 32.7325 96.92C32.6651 97.4676 32.6044 97.9995 32.5464 98.52C32.5318 98.6513 32.5173 98.7818 32.5029 98.9116C32.4969 98.9663 32.4908 99.0208 32.4848 99.0752C32.4698 99.2108 32.4549 99.3457 32.44 99.48H37.24C37.2578 99.3316 37.2747 99.1804 37.2911 99.0265C37.3086 98.861 37.3254 98.6922 37.3419 98.52ZM38 87.72H33.68C33.6695 87.857 33.6582 87.9946 33.6464 88.1328C33.6309 88.3143 33.6143 88.4967 33.5969 88.68C33.553 89.1425 33.5038 89.6103 33.4527 90.08C33.4284 90.3034 33.4036 90.5273 33.3787 90.7512C33.3725 90.8073 33.3663 90.8634 33.36 90.9195L37.88 90.92L38 87.72ZM25.8191 112.955L8.14124 111.761L9.56956 105C9.75851 104.105 9.9492 103.126 10.14 102.08H5.19998V87.2282L0.17749 84.717L7.5479 78.862C10.8378 76.2485 13.0275 72.7649 14.2385 69.61L16.0033 65.0121L26.211 66.7676L26.4577 66.4819L26.4255 66.8045L34.9421 68.2691L34.4608 69.28H53.2V84.92H54.84V91.9942C54.9888 90.532 55.04 88.9574 55.04 87.28V67.56H94.08V102.76C94.08 104.743 93.8722 107.016 92.868 109.137C91.7406 111.519 89.9164 113.089 87.8348 114.069C84.2733 115.747 79.9068 115.76 76.16 115.76H71.1733L70.2612 110.857C70.1196 110.096 69.4651 108.369 68.8703 107.2C67.4599 109.829 65.5658 112.329 63.016 114.43L58.1163 118.468L54.3616 113.348C54.3619 113.349 54.362 113.349 54.3616 113.348C54.3575 113.343 54.3232 113.298 54.2489 113.211C54.1698 113.119 54.0652 113.002 53.9349 112.864C53.6726 112.585 53.3505 112.266 53.0034 111.943C52.6562 111.62 52.3142 111.322 52.0168 111.08C51.8692 110.96 51.7449 110.864 51.6467 110.792C51.5531 110.723 51.5055 110.692 51.5003 110.688C51.4998 110.688 51.5 110.688 51.5003 110.688L51.2312 110.52H46.3163C46.2005 110.706 46.0778 110.889 45.9476 111.068C44.9293 112.492 43.6832 113.631 42.1691 114.437C40.7325 115.201 39.3427 115.508 38.3181 115.677C36.2112 116.04 33.4691 115.949 31.4979 115.876L25.9096 115.669L25.8191 112.955ZM83.8275 109.163C84.3495 109.023 84.8326 108.851 85.28 108.64C87.32 107.68 88.08 106.04 88.08 102.76V73.56H61.04V87.28C61.04 87.7974 61.0364 88.3263 61.0259 88.8639C61.0067 89.8525 60.9644 90.8707 60.8789 91.9018C60.8177 92.6401 60.7344 93.3851 60.6216 94.1304C60.5604 94.5348 60.4905 94.9392 60.4109 95.3428C60.3234 95.7857 60.2241 96.2276 60.1114 96.6671C60.007 97.0743 59.8911 97.4794 59.7624 97.8815C59.4291 98.9236 59.0103 99.9453 58.4845 100.929C57.5741 102.632 56.343 104.22 54.68 105.6C55.7356 106.26 57.5257 107.872 58.6145 109.09C58.8078 109.306 58.9789 109.51 59.12 109.693C59.1479 109.73 59.1745 109.765 59.2 109.8C60.8149 108.469 62.107 106.886 63.1392 105.149C63.9517 103.782 64.6031 102.319 65.1242 100.808C65.2594 100.416 65.3858 100.021 65.5039 99.6236C65.6206 99.2311 65.7292 98.8363 65.8303 98.44C65.8609 98.3202 65.8908 98.2002 65.92 98.08H81.88V102.68C81.88 103.056 81.8091 103.327 81.6383 103.507C81.446 103.71 81.1271 103.8 80.64 103.8C80.5994 103.8 80.5546 103.8 80.5057 103.8C80.4206 103.8 80.3234 103.801 80.2151 103.801C79.3487 103.804 77.7798 103.81 76.16 103.762C75.3452 103.737 74.5176 103.699 73.76 103.64C73.841 103.777 73.9238 103.925 74.0077 104.08C74.8777 105.691 75.8681 108.191 76.16 109.76C77.8421 109.76 79.327 109.74 80.64 109.646C81.8396 109.56 82.8957 109.412 83.8275 109.163ZM81.88 92.44V88.6H67.04C67.0362 88.7121 67.0322 88.8253 67.0277 88.9394C67.0259 88.9861 67.024 89.033 67.0221 89.08C66.9828 90.0359 66.9194 91.0546 66.8317 92.08C66.8215 92.2 66.8109 92.32 66.8 92.44H81.88ZM67.04 83.08H81.88V79.24H67.04V83.08ZM211.24 102.96H202.48V108.68H225.36V102.96H217.24V89.4H224.36V83.8H217.24V72.24H211.24V83.8H204.16V89.4H211.24V102.96ZM205.08 74.4856L205.24 74.5903V66.24H223.24V77.8H225.64V73.88H230.08V65.8H247.32V67.3421L255.217 64.7098L256.223 66.1957L256.653 64.5863L270.76 67.797V67.52H285.301L287.709 66.9181L288.914 67.6H316.4V69.6H328.84V65.88H347.08V69.6H361.48V81.2341L362.64 81.3141V69.6405L369.026 70.0525C369.353 70.0736 369.658 70.0949 369.948 70.1151C370.923 70.1832 371.736 70.24 372.68 70.24H392.08C393.263 70.24 394.445 70.1677 395.096 70.0864L401.84 69.2434V81.3619L404.679 81.1591L404.744 91.3008L406.6 91.4333V71.3817L413.363 72.2487C414.569 72.4033 416.447 72.48 417.72 72.48H433.96C435.434 72.48 437.032 72.3706 437.86 72.2563L444.68 71.3156V86.9443L448.534 84.5711C454.456 80.9243 457.343 76.6366 459.286 73.5584L459.299 73.5369L459.313 73.5155C459.712 72.8953 460.426 71.3598 460.705 70.3713L462.374 64.454L483.171 70.8713L482.941 71.1964L494.707 78.5264L493.546 80.4912L497.889 80.8168C499.385 80.9291 502.589 81.08 504.36 81.08H525.6C526.722 81.08 527.851 80.9901 528.945 80.9028C529.338 80.8715 529.725 80.8406 530.107 80.8143L535.135 80.4675C537.371 77.7972 539.59 73.9085 540.97 69.9188L542.887 64.3759L559.306 69.64H582.32V73.88H582.52V65.8H600V67.178L601.018 64.4903L618.297 69.3734L617.874 70.407L624.281 73.3316L624.129 69.32H643.751L643.271 82.0234L642.201 95.9328C643.001 97.0556 643.577 98.3415 643.89 99.7125C644.202 98.3432 644.778 97.0555 645.577 95.9302L644.507 82.0234L644.028 69.32H663.649L663.17 82.0234L662.1 95.9328C663.354 97.6941 664.058 99.8569 664.058 102.12C664.058 107.543 659.971 112.56 653.818 112.56C648.599 112.56 644.891 108.917 643.89 104.524C642.884 108.939 639.147 112.56 633.92 112.56C628.716 112.56 625.015 108.939 624 104.562V115.68H611.56V115.8H583.539L583.049 116.486L582.844 115.8H582.52V114.721L582.16 113.521V114.6H564.56V112.72H562.36V114.84H554.36V115.8H536.92V97.5478L536.52 96.4146V100.675L530.289 100.436C529.856 100.419 529.226 100.378 528.624 100.339C528.379 100.323 528.138 100.307 527.917 100.294C527.033 100.239 526.221 100.2 525.6 100.2H504.36C502.224 100.2 499.37 100.315 497.878 100.424L491.44 100.895V98.133L479.589 112.232L475.04 108.033C471.799 110.624 467.95 112.935 463.316 114.719L459.957 116.013L448 105.668V111.687L441.388 111.009C439.972 110.864 438.143 110.76 437.16 110.76H414.76C413.335 110.76 411.294 110.869 409.877 111.01L403.28 111.67V107.8L402.912 113.317L397.59 113.592C395.143 113.719 390.116 113.84 386.32 113.84C381.934 113.84 377.63 113.163 374.502 110.46C371.077 107.501 370.56 103.48 370.56 100.64V99.6809C369.525 99.691 367.608 99.7912 366.374 99.8684L365.998 99.8919L361.785 106.712C361.785 106.712 361.762 106.751 361.719 106.837C361.673 106.927 361.616 107.047 361.551 107.199C361.418 107.506 361.273 107.882 361.132 108.299C360.835 109.174 360.637 109.973 360.565 110.423L359.761 115.48H344.2C339.241 115.48 334.087 114.963 329.616 112.364C328.901 113.174 328.125 113.94 327.283 114.654L322.895 118.379L318.991 114.15C318.435 113.548 316.59 111.982 315.558 111.264C315.245 111.705 314.968 112.135 314.789 112.475L311.979 117.815L306.655 114.973C305.212 114.203 303.917 113.32 302.753 112.344C298.515 113.334 294.104 114.276 290.569 115.029L288.16 115.541V115.84H286.755L285.357 116.138L285.256 115.84H270.76V111.544L268.292 116.109L262.97 113.105C262.861 113.043 262.753 112.981 262.646 112.918C262.157 113.362 261.615 113.758 261.023 114.103L260.993 114.121L260.962 114.138C257.906 115.872 254.399 115.88 252.04 115.88H246.654L246.645 115.8H231.562L231.049 116.552L230.818 115.8H230.08V114.68H205.08V115.84H187.32V108.203L185.577 109.268L183.305 101.885C183.184 101.492 182.858 100.662 182.414 99.7257C182.204 99.2844 181.999 98.8833 181.821 98.562C181.672 98.2953 181.585 98.1598 181.561 98.1236C181.554 98.1117 181.553 98.1106 181.559 98.119L177.297 92.4359L181.92 90.057V73.16H187.32V65.84H205.08V74.4856ZM187.92 79.16V84.4H196.84C196.691 84.6552 196.536 84.9086 196.377 85.16C196.077 85.6344 195.76 86.1017 195.427 86.5602C195.041 87.092 194.634 87.6121 194.209 88.1176C193.845 88.5501 193.468 88.972 193.08 89.3817C192.749 89.7303 192.41 90.0701 192.064 90.4C191.943 90.515 191.821 90.6288 191.699 90.7413C191.565 90.864 191.431 90.9852 191.295 91.1048C190.705 91.6263 190.096 92.1187 189.473 92.5772C188.91 92.9921 188.336 93.3794 187.754 93.7355C187.293 94.017 186.828 94.2791 186.36 94.52C186.392 94.5623 186.424 94.6071 186.457 94.6543C186.83 95.1865 187.288 96.0228 187.722 96.92C188.02 97.5355 188.307 98.1795 188.549 98.7738C188.752 99.2733 188.922 99.7375 189.04 100.12C189.743 99.6906 190.445 99.2136 191.143 98.6935C191.794 98.2087 192.441 97.6865 193.08 97.1307C193.16 97.061 193.24 96.9908 193.32 96.92V109.84H199.08V95.64C199.16 95.7388 199.24 95.8376 199.32 95.9363C199.598 96.281 199.872 96.624 200.138 96.96C200.565 97.5023 200.97 98.0262 201.331 98.5086C201.513 98.7505 201.683 98.9819 201.84 99.2L205.36 94.48C205.324 94.4441 205.284 94.4047 205.24 94.3619C204.99 94.1189 204.613 93.7692 204.16 93.3589C203.833 93.0624 203.466 92.7342 203.078 92.3916C202.193 91.609 201.199 90.7514 200.325 90.0251C200.13 89.8628 199.941 89.707 199.76 89.56C199.797 89.5068 199.834 89.4535 199.87 89.4C200.156 88.9824 200.435 88.5577 200.706 88.1265C200.93 87.7703 201.149 87.4097 201.362 87.045C201.977 85.9938 202.545 84.9092 203.061 83.8C203.46 82.9422 203.827 82.0697 204.16 81.1867C204.173 81.1511 204.187 81.1156 204.2 81.08L200.96 78.96L199.96 79.16H199.08V71.84H193.32V79.16H187.92ZM236.08 109.8H241.32V93.72C241.638 94.436 241.947 95.1322 242.225 95.7791C242.312 95.9805 242.396 96.1772 242.477 96.3682C242.563 96.5741 242.646 96.7733 242.724 96.9649C242.762 97.0585 242.799 97.1503 242.835 97.24C242.878 97.3497 242.92 97.4565 242.96 97.56L245.88 93.44C245.76 93.2524 245.562 92.9452 245.314 92.56C245.277 92.503 245.239 92.4443 245.2 92.3841C245.137 92.2874 245.072 92.1866 245.005 92.0824C244.928 91.9642 244.849 91.8416 244.767 91.7153C244.742 91.6772 244.717 91.6388 244.692 91.6C244.616 91.4827 244.537 91.3625 244.458 91.24C243.981 90.5075 243.448 89.6949 242.944 88.9352C242.385 88.0942 241.86 87.3179 241.483 86.7865C241.425 86.7051 241.371 86.6293 241.32 86.56V85.24H245V79.88H241.32V71.8H236.08V79.88H231.64V85.24H235.68C235.634 85.452 235.585 85.6654 235.535 85.88C235.482 86.1055 235.427 86.3323 235.369 86.56C235.353 86.6243 235.337 86.6886 235.32 86.753C234.937 88.2431 234.46 89.7705 233.913 91.24C233.422 92.5562 232.874 93.826 232.285 94.9809C232.235 95.0791 232.184 95.1765 232.134 95.2731C231.866 95.7817 231.591 96.266 231.309 96.72C231.259 96.801 231.208 96.881 231.157 96.96C230.987 97.2251 230.815 97.4789 230.64 97.72C230.858 98.0904 231.105 98.5261 231.36 98.9955C232.04 100.25 232.771 101.745 233.12 102.88C233.603 102.172 234.057 101.375 234.487 100.504C234.775 99.9227 235.052 99.3085 235.32 98.6663C235.581 98.0424 235.834 97.3922 236.08 96.72V109.8ZM224.913 95.4L223.784 96.96H223.24V95.4H224.913ZM245.96 75.92V80.44H254.24V81.32H246.96V85.6H254.24V86.56H245.2V91.24H254.24V104.24C254.24 104.254 254.24 104.267 254.24 104.28C254.238 104.327 254.235 104.372 254.23 104.413C254.204 104.613 254.125 104.746 253.968 104.817C253.927 104.836 253.88 104.85 253.827 104.861C253.761 104.874 253.685 104.88 253.6 104.88C253.404 104.88 253.017 104.88 252.549 104.873C252.388 104.871 252.216 104.867 252.04 104.863C251.994 104.862 251.947 104.86 251.9 104.859C251.591 104.85 251.269 104.838 250.96 104.82C250.865 104.815 250.771 104.809 250.679 104.803C250.666 104.802 250.653 104.801 250.64 104.8L250.646 104.797C250.89 104.658 251.134 104.52 251.378 104.382C251.461 104.335 251.545 104.287 251.628 104.24C251.766 104.162 251.903 104.084 252.04 104.006C252.115 103.964 252.189 103.922 252.263 103.88C252.324 103.845 252.385 103.811 252.445 103.776C252.835 103.555 253.221 103.335 253.6 103.12C253.68 103.074 253.76 103.028 253.84 102.983C253.947 102.922 254.054 102.861 254.16 102.8L252.68 98.12L252.654 98.1328C252.353 98.2818 252.05 98.431 251.749 98.58C251.581 98.6625 251.414 98.7449 251.248 98.8271C251.185 98.8579 251.123 98.8887 251.06 98.9195C250.564 99.1636 250.071 99.4059 249.584 99.6438C249.419 99.7244 249.255 99.8044 249.092 99.8839C248.874 99.9896 248.659 100.094 248.445 100.197C248.376 100.231 248.308 100.264 248.24 100.296C248.2 100.316 248.16 100.335 248.121 100.354C248.107 100.36 248.094 100.367 248.08 100.373C247.849 100.485 247.619 100.594 247.393 100.702C247.369 100.714 247.344 100.725 247.32 100.737C247.289 100.752 247.259 100.766 247.228 100.781C246.083 101.324 245.018 101.814 244.096 102.208C243.94 102.275 243.788 102.339 243.64 102.4L246.119 107.279L246.12 107.28C246.254 107.211 246.39 107.141 246.526 107.069C246.787 106.933 247.052 106.793 247.32 106.65C248.373 106.087 249.476 105.474 250.6 104.84C250.611 104.863 250.621 104.886 250.632 104.909C250.642 104.93 250.651 104.951 250.661 104.972C250.743 105.153 250.824 105.346 250.904 105.549C250.918 105.583 250.932 105.618 250.945 105.653C251.456 106.974 251.909 108.668 252.04 109.88C252.527 109.88 252.991 109.876 253.433 109.863C253.458 109.862 253.483 109.861 253.508 109.861C253.539 109.86 253.569 109.859 253.6 109.858C253.703 109.854 253.806 109.85 253.907 109.845C255.127 109.789 256.174 109.652 257.078 109.335C257.322 109.25 257.556 109.151 257.781 109.038C257.845 109.005 257.908 108.972 257.97 108.937C257.98 108.931 257.99 108.926 258 108.92C258.906 108.392 259.4 107.657 259.642 106.578C259.753 106.086 259.811 105.521 259.831 104.872C259.837 104.682 259.84 104.485 259.84 104.28V102C259.938 102.149 260.037 102.296 260.137 102.442C260.171 102.491 260.206 102.541 260.24 102.59C260.326 102.712 260.413 102.834 260.502 102.954C260.683 103.202 260.87 103.445 261.061 103.683C261.133 103.772 261.204 103.86 261.277 103.947C261.371 104.059 261.465 104.17 261.561 104.28C262.719 105.61 264.041 106.756 265.545 107.661C265.669 107.736 265.794 107.809 265.92 107.88C265.978 107.772 266.042 107.66 266.109 107.546C266.963 106.09 268.485 104.161 269.56 103.16C269.294 103.053 269.033 102.939 268.777 102.819C268.768 102.815 268.759 102.81 268.75 102.806C267.255 102.102 265.927 101.183 264.767 100.101C264.661 100.002 264.557 99.9021 264.453 99.8007C264.286 99.6361 264.123 99.4681 263.963 99.2967C263.908 99.2382 263.854 99.1793 263.8 99.12C263.928 99.0162 264.059 98.9091 264.192 98.7991C264.238 98.7608 264.284 98.7223 264.331 98.6833C264.439 98.5934 264.549 98.5015 264.659 98.408C265.093 98.0414 265.546 97.6489 266.007 97.24C266.763 96.5686 267.54 95.8532 268.288 95.1367C268.409 95.0202 268.53 94.9037 268.65 94.7874C268.687 94.7516 268.723 94.7158 268.76 94.68L264.4 91.6C264.174 91.9008 263.917 92.2247 263.638 92.56C263.616 92.5866 263.594 92.6133 263.571 92.64C263.096 93.2075 262.561 93.8048 262.016 94.3765C261.705 94.7028 261.39 95.0207 261.08 95.32C260.856 94.9286 260.65 94.5197 260.457 94.1016C260.383 93.9408 260.311 93.7786 260.24 93.6155C260.1 93.2928 259.968 92.9664 259.84 92.64V91.24H268.8V86.56H259.84V85.6H267.16V81.32H259.84V80.44H267.96V75.92H264.92C265.045 75.724 265.171 75.524 265.301 75.32C265.326 75.2804 265.351 75.2406 265.376 75.2007C265.533 74.9529 265.694 74.6994 265.859 74.44C266.106 74.0507 266.364 73.6484 266.634 73.2331C266.676 73.1691 266.718 73.1047 266.76 73.04L260.96 71.72C260.96 71.72 260.96 71.7201 260.96 71.72C260.848 72.1418 260.7 72.6231 260.531 73.127C260.493 73.2395 260.454 73.3531 260.414 73.4675C260.333 73.7011 260.247 73.9377 260.158 74.174C260.125 74.2628 260.091 74.3515 260.057 74.44C259.986 74.6244 259.914 74.8078 259.84 74.9884C259.709 75.3107 259.574 75.6244 259.44 75.92H254.92C254.771 75.4732 254.556 74.9655 254.3 74.44C254.235 74.3048 254.166 74.1685 254.096 74.0317C253.705 73.2722 253.247 72.4996 252.8 71.84L248.24 73.36C248.336 73.5264 248.433 73.7004 248.528 73.88C248.625 74.0617 248.72 74.2491 248.814 74.44C248.827 74.465 248.839 74.49 248.851 74.515C248.98 74.7791 249.105 75.0493 249.225 75.32C249.313 75.5205 249.399 75.7213 249.48 75.92H245.96ZM276.76 109.84H282.16V97.24C282.27 97.5283 282.37 97.8327 282.458 98.1448C282.579 98.5692 282.679 99.008 282.76 99.4401C282.9 100.19 282.98 100.92 283 101.52C283.053 101.52 283.107 101.52 283.16 101.52C283.937 101.52 284.706 101.515 285.338 101.442C285.345 101.441 285.353 101.44 285.36 101.44C285.457 101.428 285.55 101.415 285.64 101.4C286.139 101.313 286.615 101.191 287.054 101.014C287.28 100.923 287.497 100.818 287.702 100.696C287.754 100.665 287.805 100.633 287.855 100.599C287.932 100.549 288.007 100.496 288.08 100.44C288.107 100.421 288.134 100.401 288.16 100.381C288.425 100.182 288.661 99.9575 288.868 99.7025C289.396 99.0529 289.738 98.2084 289.92 97.1014C290.028 96.4447 290.08 95.6956 290.08 94.84C290.08 94.5797 290.075 94.313 290.063 94.04C289.988 92.3507 289.632 90.4251 288.417 88.3377C288.335 88.1975 288.25 88.0566 288.16 87.915C287.944 87.574 287.705 87.2289 287.44 86.88C287.64 86.3031 287.846 85.6755 288.057 85.013C288.091 84.9048 288.125 84.7956 288.16 84.6856C288.647 83.1356 289.151 81.4142 289.636 79.7125C290.045 78.2759 290.441 76.8534 290.8 75.56L286.84 73.32L286.04 73.52H276.76V109.84ZM282.16 96.4H283.16C283.455 96.4 283.728 96.3565 283.98 96.2374C283.989 96.2328 283.999 96.2282 284.008 96.2234C284.088 96.1837 284.165 96.1363 284.24 96.08C284.342 95.998 284.432 95.8951 284.508 95.769C284.523 95.7437 284.538 95.7175 284.552 95.6903C284.571 95.6542 284.589 95.6164 284.606 95.577C284.61 95.5677 284.614 95.5583 284.618 95.5487C284.619 95.5464 284.62 95.5441 284.621 95.5418C284.629 95.5226 284.637 95.503 284.644 95.483C284.644 95.4829 284.644 95.4832 284.644 95.483C284.711 95.302 284.761 95.0883 284.794 94.84C284.825 94.6055 284.84 94.3397 284.84 94.04C284.84 92.8565 284.622 91.3155 283.807 89.641C283.531 89.0739 283.187 88.4915 282.76 87.9025C282.658 87.762 282.551 87.6211 282.44 87.48C282.544 87.0902 282.651 86.6697 282.76 86.2267C282.831 85.9381 282.903 85.6399 282.975 85.3344C283.025 85.1196 283.076 84.9013 283.127 84.68C283.511 83.0117 283.899 81.1811 284.233 79.52C284.281 79.2822 284.327 79.0478 284.373 78.8178C284.382 78.7717 284.391 78.7258 284.4 78.68H282.16V96.4ZM287.4 103.52C287.627 103.489 287.86 103.456 288.099 103.422C288.119 103.419 288.14 103.416 288.16 103.413C288.42 103.376 288.686 103.338 288.96 103.298C289.3 103.249 289.651 103.199 290.014 103.147C290.055 103.141 290.096 103.135 290.137 103.13C290.418 103.09 290.706 103.05 291 103.009C291.119 102.993 291.239 102.976 291.36 102.96V73.6H310.4V92.84H308L312.44 95.88C312.387 95.9321 312.333 95.9842 312.279 96.0363C311.663 96.6343 311.03 97.2309 310.4 97.8104C310.018 98.161 309.638 98.5054 309.261 98.84C309.083 98.9986 308.906 99.155 308.73 99.3089C308.447 99.5569 308.167 99.7983 307.894 100.031C307.892 100.033 307.89 100.034 307.889 100.036C307.809 100.103 307.73 100.17 307.652 100.236C307.634 100.251 307.617 100.266 307.6 100.28C307.621 100.308 307.642 100.335 307.663 100.363C307.876 100.643 308.098 100.914 308.331 101.177C308.378 101.23 308.425 101.283 308.473 101.336C308.53 101.398 308.587 101.459 308.645 101.52C309.194 102.102 309.794 102.637 310.442 103.122C310.763 103.362 311.097 103.59 311.442 103.805C311.688 103.958 311.94 104.105 312.198 104.245C312.535 104.428 312.882 104.6 313.24 104.76C312.409 105.511 311.361 106.783 310.52 107.999C310.134 108.556 309.792 109.102 309.533 109.58C309.527 109.591 309.521 109.603 309.515 109.614C309.503 109.636 309.491 109.658 309.48 109.68C309.116 109.486 308.764 109.281 308.423 109.066C307.792 108.669 307.201 108.237 306.644 107.772C306.02 107.25 305.44 106.685 304.901 106.081C304.845 106.019 304.79 105.956 304.735 105.893C304.658 105.803 304.581 105.713 304.505 105.622C303.995 105.008 303.523 104.355 303.085 103.666C302.761 103.157 302.457 102.628 302.17 102.08C302.031 101.816 301.897 101.548 301.767 101.276C301.741 101.222 301.716 101.168 301.69 101.113C301.279 100.238 300.907 99.3191 300.568 98.358C300.539 98.2774 300.511 98.1966 300.483 98.1155C300.198 97.2875 299.936 96.4292 299.695 95.5421C299.575 95.0991 299.46 94.6489 299.349 94.1917C299.349 94.1905 299.349 94.1893 299.348 94.188C299.324 94.0857 299.299 93.9831 299.275 93.88C299.194 93.5372 299.116 93.1905 299.04 92.84H297V102.08C297.12 102.059 297.24 102.037 297.36 102.016C298.023 101.9 298.691 101.79 299.36 101.68C299.891 101.593 300.423 101.505 300.951 101.415C300.967 101.412 300.983 101.409 300.999 101.407C301.001 101.406 301.003 101.406 301.006 101.405C301.244 101.364 301.483 101.323 301.72 101.28L302.16 106.32C300.867 106.626 299.549 106.928 298.238 107.223C298.137 107.245 298.036 107.268 297.935 107.291C297.743 107.334 297.551 107.376 297.36 107.419C295.561 107.82 293.787 108.205 292.117 108.563C291.739 108.644 291.366 108.724 291 108.802C290.423 108.925 289.862 109.045 289.32 109.16L287.4 103.52ZM304.64 87.88V85.48H297V87.88H304.64ZM304.64 80.8V78.56H297V80.8H304.64ZM307.053 93.88C307.335 93.5239 307.599 93.1752 307.84 92.84H304.08C304.18 93.191 304.284 93.5381 304.394 93.88C304.478 94.1423 304.565 94.4016 304.655 94.6573C304.677 94.7196 304.7 94.7816 304.722 94.8434C304.871 95.2528 305.029 95.6524 305.2 96.04C305.428 95.7934 305.652 95.5448 305.871 95.2959C306.168 94.9578 306.454 94.6194 306.727 94.2854C306.838 94.1495 306.947 94.0142 307.053 93.88ZM323.325 110C323.351 110.027 323.376 110.054 323.4 110.08C323.748 109.784 324.084 109.474 324.407 109.151C324.603 108.954 324.794 108.753 324.981 108.547C325.828 107.61 326.582 106.57 327.249 105.436C327.418 105.149 327.581 104.856 327.739 104.556C327.863 104.321 327.984 104.082 328.102 103.839C328.204 103.629 328.303 103.416 328.4 103.2C328.407 103.21 328.413 103.219 328.42 103.229C329.485 104.748 330.693 105.915 332.045 106.806C332.364 107.016 332.692 107.211 333.027 107.391C333.668 107.736 334.339 108.029 335.04 108.275C336.67 108.848 338.461 109.174 340.417 109.339C340.596 109.354 340.777 109.367 340.96 109.38C341.995 109.451 343.075 109.48 344.2 109.48H354.64C354.849 108.169 355.412 106.28 356.034 104.84C356.246 104.347 356.466 103.907 356.68 103.56C356.101 103.582 355.405 103.6 354.64 103.615C353.679 103.634 352.608 103.647 351.52 103.656C351.028 103.661 350.533 103.664 350.043 103.667C347.828 103.68 345.72 103.68 344.52 103.68C344.413 103.68 344.306 103.68 344.2 103.679C343.113 103.672 342.06 103.629 341.04 103.52V98.84H351.52V93.4H341.04V89.32H348.64V83.8H327.2V89.32H334.96V101.84C334.18 101.382 333.465 100.817 332.82 100.116C332.078 99.3086 331.429 98.3218 330.884 97.1135C330.79 96.9046 330.699 96.689 330.61 96.4666C330.607 96.4578 330.603 96.4489 330.6 96.44C330.633 96.2966 330.665 96.1521 330.697 96.0066C330.711 95.9443 330.724 95.8817 330.738 95.8191C330.773 95.6538 330.807 95.4875 330.841 95.32C331.03 94.376 331.191 93.3974 331.325 92.4C331.366 92.095 331.404 91.7881 331.44 91.48L325.36 90.88C325.36 90.8806 325.36 90.8812 325.36 90.8818C325.335 91.1601 325.308 91.4364 325.278 91.7105C325.253 91.9419 325.226 92.1718 325.198 92.4C325.105 93.1564 324.992 93.8951 324.86 94.6143C324.83 94.7752 324.799 94.9351 324.768 95.0941C324.753 95.1696 324.737 95.245 324.722 95.32C324.608 95.8679 324.482 96.4036 324.343 96.9262C324.128 97.7301 323.882 98.503 323.601 99.2416C323.402 99.7628 323.187 100.267 322.953 100.753C322.827 101.014 322.696 101.269 322.559 101.519C322.54 101.554 322.521 101.589 322.502 101.624C322.396 101.815 322.286 102.004 322.173 102.189C321.229 103.735 320.053 105.048 318.6 106.08C318.94 106.3 319.35 106.595 319.789 106.93C321.061 107.902 322.575 109.209 323.325 110ZM326.28 86.4V81.08H349.48V86.4H355.48V75.6H341.08V71.88H334.84V75.6H320.56V86.4H326.28ZM319.145 92.4H317.978L319.032 93.1215C319.071 92.8867 319.109 92.6462 319.145 92.4ZM357.52 92.4H360V97.4279L357.52 97.5233V92.4ZM249.36 99.32C249.339 99.2777 249.317 99.2347 249.294 99.1909C249.285 99.1742 249.276 99.1575 249.267 99.1406C249.257 99.1212 249.246 99.1016 249.235 99.082C249.219 99.0516 249.202 99.021 249.185 98.9901C249.151 98.9306 249.117 98.8699 249.081 98.8083C249.078 98.8029 249.074 98.7976 249.071 98.7923C248.841 98.3996 248.557 97.9676 248.24 97.5193C248.175 97.4269 248.108 97.3337 248.04 97.24C247.811 96.9245 247.569 96.6034 247.32 96.2846C247.24 96.1816 247.158 96.0788 247.077 95.9766C247.002 95.8821 246.926 95.7881 246.85 95.6947C246.665 95.4669 246.479 95.2428 246.294 95.0255C246.202 94.917 246.111 94.8102 246.02 94.7054C245.905 94.5734 245.792 94.4447 245.68 94.32L249.6 91.72C249.627 91.7467 249.653 91.7736 249.68 91.8007C249.916 92.0377 250.16 92.2897 250.406 92.5513C250.409 92.5542 250.411 92.5571 250.414 92.56C251.066 93.2528 251.735 94.0123 252.314 94.7387C252.396 94.8423 252.477 94.9453 252.556 95.0472C252.94 95.5458 253.274 96.0214 253.52 96.44L249.36 99.32ZM370.56 93.6807C370.615 93.6803 370.668 93.68 370.72 93.68H376.56V100.64C376.56 105.12 378.28 107.84 386.32 107.84C390.04 107.84 394.96 107.72 397.28 107.6L397.72 101C395.862 101.193 393.786 101.357 391.676 101.457C390.288 101.522 388.885 101.56 387.52 101.56C385.03 101.56 383.7 101.164 383.341 99.68C383.273 99.4002 383.24 99.0818 383.24 98.72V93.68H394.68C394.809 93.68 394.963 93.6792 395.135 93.6782C395.731 93.6748 396.545 93.6703 397.322 93.6964C397.844 93.7139 398.349 93.7452 398.76 93.8L398.72 87.6C398.326 87.6282 397.793 87.6613 397.231 87.6924C396.691 87.7223 396.124 87.7503 395.628 87.7703C395.259 87.7851 394.93 87.7955 394.68 87.7989C394.622 87.7996 394.569 87.8 394.52 87.8H383.24V81.92H392.08C392.986 81.92 393.787 81.95 394.52 81.9824C394.66 81.9886 394.797 81.9949 394.932 82.0011C395.246 82.0154 395.547 82.0292 395.84 82.04V76.04C394.88 76.16 393.44 76.24 392.08 76.24H372.68C371.507 76.24 370.435 76.1647 369.423 76.0936C369.158 76.075 368.897 76.0566 368.64 76.04V82.04C369.257 82.0002 369.894 81.9703 370.56 81.9503C370.613 81.9487 370.666 81.9472 370.72 81.9457C371.344 81.9286 371.995 81.92 372.68 81.92H376.56V87.8H370.72C370.668 87.8 370.615 87.7998 370.56 87.7993C370.109 87.7953 369.569 87.7755 369.008 87.748C368.902 87.7427 368.795 87.7372 368.687 87.7315C367.778 87.6831 366.85 87.6189 366.189 87.5731L366 87.56V93.88C366.707 93.8359 367.706 93.7795 368.661 93.7379C369.362 93.7073 370.039 93.6847 370.56 93.6807ZM448 100.312L453.432 98.6069L448 94.419V100.312ZM443.775 91.4132L441.355 91.6748C440.045 91.8164 438.344 91.92 437.16 91.92H414.76C413.413 91.92 411.553 91.7871 409.818 91.6632L407.776 91.5173L412.933 91.2308C414.307 91.1544 416.309 91.08 417.76 91.08H433.96C434.825 91.08 435.864 91.1262 436.891 91.1718C437.433 91.1958 437.971 91.2198 438.48 91.2367L443.775 91.4132ZM464.851 99.9482C463.915 100.56 462.896 101.154 461.779 101.722C459.972 102.64 457.907 103.491 455.52 104.24L461.16 109.12C467.063 106.847 471.454 103.619 474.89 100.071C474.9 100.061 474.91 100.05 474.92 100.04C476.56 101.36 478 102.6 479.04 103.56L483.68 98.04C482.56 97.16 481 96 479.28 94.76C479.342 94.6722 479.403 94.5843 479.464 94.4963C482.126 90.6578 483.983 86.6937 485 83.8C485.44 82.6 486.04 81.4 486.56 80.52L481.68 77.48C481.623 77.4977 481.564 77.5149 481.503 77.5318C481.447 77.5476 481.389 77.563 481.33 77.5781C480.417 77.8111 479.208 77.9631 478.123 77.9941C477.986 77.998 477.852 78 477.72 78H471.08C471.173 77.8382 471.274 77.6638 471.382 77.48C471.965 76.4824 472.737 75.2071 473.48 74.16L466.48 72C466.428 72.1859 466.368 72.3792 466.302 72.5774C465.815 74.0421 464.994 75.7735 464.36 76.76C462.818 79.2044 460.556 82.6227 456.711 85.9828C455.271 87.2415 453.609 88.4919 451.68 89.68L456.92 93.72C458.473 92.6459 460.04 91.3601 461.551 89.953C463.056 88.55 464.505 87.0264 465.828 85.4716C466.243 84.9832 466.646 84.4918 467.035 84C467.172 83.8267 467.307 83.6533 467.44 83.48H477.72C477.678 83.6479 477.63 83.8214 477.575 84C477.401 84.5708 477.164 85.1932 476.878 85.8452C476.369 87.0041 475.704 88.2567 474.957 89.48C474.897 89.5787 474.836 89.6773 474.775 89.7755C474.499 90.2175 474.213 90.6543 473.92 91.08C473.92 91.0801 473.92 91.08 473.92 91.08C473.083 90.532 472.247 89.9941 471.433 89.48C471.183 89.3222 470.935 89.1665 470.69 89.0135C469.52 88.2826 468.413 87.611 467.44 87.04L463.12 91.48C463.604 91.7918 464.128 92.1383 464.683 92.5125C465.216 92.8723 465.778 93.2577 466.358 93.6625C466.936 94.0657 467.534 94.4882 468.141 94.9237C468.649 95.2879 469.163 95.6612 469.68 96.04C468.33 97.3729 466.764 98.6982 464.851 99.9482ZM490.645 85.8336C489.891 87.9703 488.77 90.5445 487.285 93.2424C487.319 93.2692 487.353 93.2958 487.387 93.3221L491.44 96.5067V84.0826C491.157 84.6133 490.865 85.2389 490.645 85.8336ZM542.92 109.8H548.36V81.4C548.456 81.2134 548.551 81.0267 548.645 80.84C548.737 80.6579 548.829 80.4758 548.92 80.2936C549.118 79.8963 549.314 79.4986 549.506 79.0997C549.528 79.0532 549.551 79.0066 549.573 78.96C549.972 78.1268 550.356 77.2885 550.72 76.44V80.84H557.24V84.96H551.04V108.84H556.36V106.72H570.56V108.6H576.16V84.96H569.68V80.84H576.32V75.64H551.08C551.125 75.5309 551.17 75.4208 551.215 75.31C551.277 75.1544 551.34 74.9975 551.402 74.84C551.554 74.4509 551.702 74.0589 551.838 73.6779C551.852 73.6388 551.866 73.5998 551.88 73.561C551.88 73.5613 551.88 73.5607 551.88 73.561L546.64 71.88C546.64 71.8804 546.64 71.8808 546.64 71.8812C546.446 72.4401 546.238 72.9989 546.017 73.5554C545.933 73.7674 545.847 73.979 545.759 74.1902C545.745 74.2252 545.73 74.2602 545.715 74.2951C545.412 75.0173 545.087 75.734 544.744 76.44C544.736 76.4568 544.728 76.4736 544.72 76.4904C544.322 77.3068 543.899 78.1088 543.457 78.8887C543.236 79.2775 543.01 79.6608 542.78 80.0376C542.642 80.2647 542.502 80.4894 542.36 80.7115C541.847 81.5156 541.315 82.2861 540.769 83.0131C540.191 83.7841 539.597 84.506 538.996 85.167C538.771 85.4134 538.546 85.6512 538.32 85.88C538.333 85.8997 538.346 85.9197 538.359 85.94C538.419 86.0326 538.481 86.1322 538.546 86.2376C539.12 87.1812 539.85 88.6 540.427 89.84C540.778 90.5958 541.072 91.2852 541.24 91.76C541.613 91.36 541.987 90.9423 542.36 90.5067C542.547 90.2889 542.733 90.0667 542.92 89.84V109.8ZM588.52 109.8H594V92.4C594.09 92.5629 594.18 92.7258 594.268 92.8878C594.424 93.1743 594.576 93.4583 594.722 93.7352C594.755 93.7974 594.787 93.8593 594.819 93.9208C594.855 93.9907 594.891 94.0601 594.927 94.1288C595.089 94.4431 595.241 94.7446 595.379 95.0262C595.443 95.1552 595.503 95.2801 595.56 95.4L596.32 94.28C596.462 94.4585 596.604 94.6445 596.746 94.8354C597.336 95.6319 597.913 96.5144 598.35 97.293C598.37 97.3289 598.39 97.3646 598.409 97.4C598.524 97.6097 598.629 97.811 598.72 98C598.857 97.9429 598.997 97.8858 599.139 97.8287C599.246 97.7858 599.353 97.7429 599.46 97.7C599.464 97.6982 599.469 97.6965 599.473 97.6947C599.502 97.6831 599.531 97.6716 599.56 97.66C599.708 97.6008 599.855 97.5417 600 97.4825C600.067 97.455 600.134 97.4275 600.2 97.4V109.8H605.56V108.64H612.4V109.68H618V97.08H618.04C618.145 96.882 618.266 96.668 618.4 96.4433C619.141 95.2043 620.28 93.6403 621.225 92.6242C621.354 92.4851 621.48 92.3563 621.6 92.24C620.858 92.041 620.139 91.8153 619.441 91.5654C619.089 91.439 618.742 91.3064 618.4 91.1678C617.451 90.7826 616.544 90.3517 615.68 89.8815C615.66 89.8708 615.641 89.86 615.621 89.8492C614.883 89.4457 614.177 89.0136 613.5 88.5569C613.375 88.4726 613.25 88.3875 613.128 88.3015C613.116 88.2933 613.104 88.285 613.092 88.2768C613.075 88.2646 613.057 88.2523 613.04 88.24C613.041 88.2384 613.043 88.2368 613.044 88.2352C613.049 88.2298 613.053 88.2243 613.058 88.2188C613.183 88.0716 613.307 87.9231 613.43 87.7733C614.437 86.5432 615.352 85.2218 616.167 83.804C616.2 83.7461 616.234 83.688 616.266 83.6298C617.33 81.7517 618.22 79.7057 618.92 77.48L615.24 75.8L614.28 76H609C609.178 75.6448 609.349 75.283 609.513 74.92C609.686 74.5393 609.851 74.1571 610.01 73.7797C610.074 73.6256 610.138 73.4724 610.2 73.3203C610.2 73.3204 610.2 73.3202 610.2 73.3203L604.68 71.76C604.461 72.3373 604.221 72.9119 603.962 73.4809C603.901 73.6142 603.839 73.7473 603.776 73.88C603.61 74.2293 603.437 74.5762 603.257 74.92C602.858 75.6835 602.425 76.432 601.961 77.1584C601.818 77.3839 601.671 77.6071 601.522 77.8281C601.495 77.8679 601.468 77.9077 601.441 77.9474C601.301 78.1529 601.158 78.3563 601.013 78.5574C600.813 78.8346 600.61 79.1074 600.402 79.3755C600.27 79.5456 600.136 79.7138 600.001 79.88C599.665 80.2933 599.32 80.6941 598.966 81.0805C598.85 81.2073 598.733 81.3326 598.615 81.4563C598.55 81.524 598.485 81.5912 598.42 81.658C598.308 81.7735 598.194 81.8875 598.08 82V79.88H594V71.8H588.52V79.88H583.64V85.24H588.12C588.081 85.3994 588.041 85.5594 588 85.72C588 85.7198 588 85.7203 588 85.72C587.986 85.773 587.973 85.8269 587.959 85.88C587.499 87.6499 586.9 89.488 586.196 91.24C585.7 92.4769 585.151 93.6709 584.562 94.7675C584.513 94.8578 584.465 94.9474 584.416 95.0364C584.112 95.5864 583.799 96.11 583.477 96.6C583.217 96.9966 582.951 97.3712 582.68 97.72C583.182 98.58 583.84 99.7396 584.392 100.875C584.763 101.641 585.087 102.396 585.28 103.04C585.755 102.375 586.211 101.623 586.648 100.8C586.683 100.734 586.718 100.667 586.753 100.6C587.091 99.9519 587.417 99.2621 587.732 98.5388C587.822 98.3311 587.911 98.1208 588 97.9078C588.177 97.4817 588.35 97.0452 588.52 96.6V109.8ZM605.56 99.44V103.68H612.4V99.44H605.56ZM594 85.24V85.72C594.045 85.7647 594.092 85.8133 594.143 85.8655C594.147 85.8703 594.152 85.8751 594.157 85.88C594.264 85.9912 594.384 86.1182 594.513 86.2579C594.752 86.5174 595.025 86.8205 595.314 87.1468C595.451 87.3017 595.591 87.4618 595.734 87.6249C596.481 88.4807 597.278 89.4195 597.861 90.1244C597.881 90.1484 597.901 90.1722 597.92 90.1957C597.925 90.2018 597.93 90.2078 597.935 90.2139C597.991 90.2816 598.045 90.3469 598.096 90.4094C598.316 90.6781 598.491 90.8965 598.6 91.04L597.48 92.64C597.678 92.5618 597.876 92.4818 598.072 92.4C598.085 92.3948 598.097 92.3895 598.11 92.3842C598.571 92.1919 599.026 91.99 599.474 91.7786C599.51 91.7616 599.546 91.7446 599.582 91.7275C599.763 91.6414 599.943 91.5538 600.121 91.4647C600.17 91.4405 600.218 91.4163 600.266 91.392C600.604 91.2217 600.937 91.046 601.266 90.8649C601.729 90.6098 602.184 90.344 602.629 90.0678C602.685 90.0328 602.742 89.9977 602.798 89.9624C603.009 89.8295 603.218 89.6942 603.424 89.5566C603.777 89.322 604.122 89.0805 604.461 88.8324C604.486 88.8141 604.511 88.7959 604.536 88.7776C604.685 88.6677 604.832 88.5565 604.978 88.444C605.066 88.3764 605.153 88.3085 605.24 88.24C605.226 88.2228 605.211 88.2055 605.197 88.1883C605.172 88.1584 605.147 88.1285 605.122 88.0986C605.037 87.9973 604.953 87.8957 604.87 87.7938C604.438 87.2657 604.02 86.7298 603.628 86.1978C603.444 85.9481 603.265 85.6994 603.094 85.4526C603.064 85.4096 603.034 85.3666 603.005 85.3238C602.976 85.2825 602.948 85.2412 602.92 85.2C602.906 85.2161 602.892 85.2322 602.878 85.2482C602.66 85.4979 602.439 85.7417 602.216 85.9786C602.216 85.9791 602.216 85.9795 602.215 85.98C602.181 86.0168 602.146 86.0535 602.111 86.0899C601.818 86.3989 601.524 86.6958 601.231 86.979C600.979 87.2231 600.728 87.4569 600.481 87.6793C600.481 87.6795 600.48 87.6798 600.48 87.68C600.344 87.5349 600.181 87.3686 599.997 87.1876C599.558 86.7548 599.004 86.2373 598.442 85.72C598.408 85.6887 598.374 85.6574 598.34 85.6261C598.254 85.5461 598.167 85.4662 598.08 85.3868C598.026 85.3377 597.973 85.2887 597.92 85.24H594ZM611.56 80.92C611.351 81.2836 611.132 81.6442 610.905 82C610.594 82.4861 610.266 82.9633 609.921 83.4275C609.893 83.4662 609.864 83.5047 609.835 83.5432C609.725 83.6893 609.613 83.8341 609.5 83.9774C609.408 84.0941 609.314 84.2098 609.22 84.3244C609.121 84.4441 609.021 84.5627 608.92 84.68C608.884 84.6402 608.848 84.6003 608.813 84.5605C608.724 84.4606 608.635 84.3607 608.548 84.2608C608.008 83.6447 607.501 83.0273 607.033 82.4034C606.932 82.2693 606.833 82.1348 606.736 82C606.598 81.8084 606.463 81.6161 606.333 81.4229C606.274 81.3365 606.217 81.2498 606.16 81.163C606.133 81.1221 606.107 81.0811 606.08 81.04L606.16 80.92H611.56ZM612.8 94.6C612.666 94.5206 612.533 94.4398 612.4 94.3579C612.266 94.2752 612.133 94.1914 612 94.1063C611.664 93.8911 611.332 93.6685 611.005 93.44C610.648 93.1896 610.296 92.9323 609.954 92.6699C609.946 92.6638 609.938 92.6577 609.93 92.6516C609.829 92.5743 609.73 92.4966 609.63 92.4184C609.471 92.2932 609.315 92.167 609.16 92.04C608.984 92.1848 608.807 92.3285 608.628 92.471C608.618 92.4788 608.609 92.4866 608.599 92.4945C608.459 92.6056 608.319 92.7159 608.179 92.8253C607.91 93.034 607.638 93.2393 607.363 93.44C606.982 93.7181 606.595 93.9874 606.2 94.2455C606.015 94.3662 605.828 94.4845 605.64 94.6H612.8ZM621.795 86.0321C622.871 84.0516 623.783 81.9309 624.52 79.6674L624.609 82.0234L624.987 86.9364L623.155 86.445C622.69 86.3202 622.236 86.1823 621.795 86.0321ZM629.804 101.2C629.749 101.496 629.72 101.803 629.72 102.12C629.72 104.6 631.48 106.56 633.92 106.56C636.4 106.56 638.16 104.6 638.16 102.12C638.16 101.803 638.131 101.496 638.076 101.2C637.852 100.002 637.192 98.9999 636.24 98.3835C635.588 97.9614 634.799 97.72 633.92 97.72C633.06 97.72 632.284 97.9587 631.64 98.3765C631.527 98.4501 631.417 98.5293 631.312 98.6137C630.689 99.1143 630.22 99.7992 629.957 100.6C629.894 100.794 629.842 100.994 629.804 101.2ZM631.64 95.2H636.24L637.28 81.68L637.52 75.32H630.36L630.6 81.68L631.64 95.2ZM564.2 80.84H562.68V84.96H564.2V80.84ZM562.64 90V101.76H564.2V90H562.64ZM569.04 101.76H570.56V90H569.04V101.76ZM557.8 90H556.36V101.76H557.8V90ZM657.974 101.2C657.75 100.002 657.09 98.9999 656.138 98.3835C655.487 97.9614 654.698 97.72 653.818 97.72C652.958 97.72 652.182 97.9587 651.538 98.3765C650.589 98.9922 649.927 99.9971 649.702 101.2C649.647 101.496 649.618 101.803 649.618 102.12C649.618 104.6 651.378 106.56 653.818 106.56C656.298 106.56 658.058 104.6 658.058 102.12C658.058 101.803 658.03 101.496 657.974 101.2ZM657.178 81.68L657.418 75.32H650.258L650.498 81.68L651.538 95.2H656.138L657.178 81.68ZM412.6 85.24C414.04 85.16 416.16 85.08 417.76 85.08H433.96C434.953 85.08 436.252 85.1372 437.355 85.1857C437.851 85.2075 438.308 85.2276 438.68 85.24V78.2C437.52 78.36 435.64 78.48 433.96 78.48H417.72C416.32 78.48 414.16 78.4 412.6 78.2V85.24ZM409.28 105.04C410.88 104.88 413.12 104.76 414.76 104.76H437.16C438.4 104.76 440.44 104.88 442 105.04V97.64C440.52 97.8 438.6 97.92 437.16 97.92H414.76C413.192 97.92 411.149 97.7738 409.504 97.6561L409.28 97.64V105.04ZM497.44 94.44C498.867 94.3356 501.324 94.2312 503.44 94.2058C503.756 94.2021 504.064 94.2 504.36 94.2H525.6C526.687 94.2 528.037 94.2879 529.127 94.3587C529.682 94.3948 530.169 94.4265 530.52 94.44V86.8C530.253 86.8184 529.944 86.8432 529.604 86.8704C528.466 86.9615 526.986 87.08 525.6 87.08H504.36C504.079 87.08 503.769 87.0767 503.44 87.0708C501.473 87.035 498.811 86.9028 497.44 86.8V94.44Z" fill="white"/>
<path d="M134.684 110.489C153.864 110.489 172.917 97.3364 176.343 74.4919C179.687 52.2013 166.663 41.9559 149.303 41.9559C144.543 41.9559 140.898 42.925 136.407 44.8633L141.627 23.1265H179.287L181.862 5.9585H126.422L116.147 55.801L124.613 61.8929C131.214 58.0162 134.803 56.4933 140.963 56.4933C151.463 56.4933 157.466 63.1389 155.68 75.0457C153.874 87.091 145.296 93.8751 134.516 93.8751C124.856 93.8751 118.282 89.1678 113.254 83.4913L101.782 96.5057C108.339 104.121 118.304 110.489 134.684 110.489Z" fill="#FF3030"/>
<path fill-rule="evenodd" clip-rule="evenodd" d="M116.147 55.801L126.422 5.95847H181.862L179.287 23.1264H141.627L136.407 44.8633C138.729 43.861 140.825 43.1179 142.966 42.6339C144.966 42.1818 147.005 41.9558 149.303 41.9558C166.663 41.9558 179.687 52.2012 176.343 74.4919C172.917 97.3364 153.864 110.489 134.684 110.489C118.304 110.489 108.339 104.12 101.782 96.5057L113.254 83.4912C114.475 84.8696 115.787 86.1909 117.212 87.4014C121.657 91.1763 127.202 93.8751 134.516 93.8751C145.296 93.8751 153.874 87.091 155.68 75.0457C157.466 63.1389 151.463 56.4932 140.963 56.4932C134.803 56.4932 131.214 58.0162 124.613 61.8928L116.147 55.801ZM144.446 36.4715C146.26 36.1757 148.149 36.0222 150.193 36.0222C160.028 36.0222 169.155 38.9311 175.326 45.5214C181.567 52.1854 184.216 62.0068 182.343 74.4919C178.367 101.001 155.882 116.423 133.794 116.423C115.584 116.423 104.271 109.25 96.9096 100.701L93.83 97.1254L113.826 74.4411L118.082 79.2453C122.632 84.3816 127.952 87.9415 135.406 87.9415C139.514 87.9415 142.655 86.6718 144.85 84.7817C147.032 82.9027 148.964 79.8188 149.68 75.0457C150.402 70.2352 149.46 67.2088 147.987 65.4171C146.53 63.6457 144.019 62.4269 140.073 62.4269C137.555 62.4269 135.858 62.729 134.203 63.3035C132.409 63.9265 130.374 64.967 127.141 66.8652L123.536 68.9825L109.502 58.8845L121.636 0.0248413H188.752L184.398 29.0601H146.226L144.446 36.4715Z" fill="white"/>
</svg>
