<svg width="100" height="101" viewBox="0 0 100 101" fill="none" xmlns="http://www.w3.org/2000/svg">
<g clip-path="url(#clip0_212_621)">
<rect x="53.2356" y="37.7285" width="26.6667" height="10.6667" transform="rotate(51.4153 53.2356 37.7285)" fill="white"/>
<path d="M44.4874 39.5912L35.5847 39.8577C34.341 39.8949 33.1494 40.3657 32.2162 41.1888C31.283 42.0119 30.6669 43.1353 30.4747 44.3647L28.1631 59.1178C27.9309 60.5926 28.3291 62.0966 29.2621 63.266L36.9474 72.8984C40.9389 77.9012 47.7689 77.9102 51.9379 74.5839L69.8042 60.3293M63.6245 55.0254L64.8148 54.0758C69.5799 50.2739 74.5693 56.5274 69.8042 60.3293" fill="white"/>
<path d="M44.4874 39.5912L35.5847 39.8577C34.341 39.8949 33.1494 40.3657 32.2162 41.1888C31.283 42.0119 30.6669 43.1353 30.4747 44.3647L28.1631 59.1178C27.9309 60.5926 28.3291 62.0966 29.2621 63.266L36.9474 72.8984C40.9389 77.9012 47.7689 77.9102 51.9379 74.5839L69.8042 60.3293C74.5693 56.5274 69.5799 50.2739 64.8148 54.0758L63.6245 55.0254" stroke="black" stroke-width="2" stroke-linecap="round" stroke-linejoin="round"/>
<path d="M58.6352 48.7719L62.208 45.9213C66.9731 42.1194 71.9625 48.3729 67.1974 52.1748L63.6245 55.0254M53.6458 42.5184L58.857 38.3606C63.6222 34.5587 68.6116 40.8122 63.8464 44.6141L58.6352 48.7719M53.6458 42.5184L67.1971 31.7065C68.0256 31.0446 68.5573 30.0808 68.6754 29.027C68.7936 27.9732 68.4884 26.9156 67.8271 26.0867C67.1655 25.2574 66.2015 24.725 65.1473 24.6064C64.093 24.4879 63.0349 24.793 62.2057 25.4546L38.2339 44.5806" fill="white"/>
<path d="M63.6245 55.0254L67.1974 52.1748C71.9625 48.3729 66.9731 42.1194 62.208 45.9213L58.6352 48.7719L63.8464 44.6141C68.6116 40.8122 63.6222 34.5587 58.857 38.3606L53.6458 42.5184L67.1971 31.7065C68.0256 31.0446 68.5573 30.0808 68.6754 29.027C68.7936 27.9732 68.4884 26.9156 67.8271 26.0867C67.1655 25.2574 66.2015 24.725 65.1473 24.6064C64.093 24.4879 63.0349 24.793 62.2057 25.4546L38.2339 44.5806" stroke="black" stroke-width="2" stroke-linecap="round" stroke-linejoin="round"/>
</g>
<defs>
<clipPath id="clip0_212_621">
<rect width="71.6816" height="70.2595" fill="white" transform="translate(55.1075 0.57428) rotate(51.4153)"/>
</clipPath>
</defs>
</svg>
