<svg width="100" height="100" viewBox="0 0 100 100" fill="none" xmlns="http://www.w3.org/2000/svg">
<path d="M90.625 37.5C90.625 35.8424 89.9665 34.2527 88.7944 33.0806C87.6223 31.9085 86.0326 31.25 84.375 31.25H71.875V18.75C71.875 17.0924 71.2165 15.5027 70.0444 14.3306C68.8723 13.1585 67.2826 12.5 65.625 12.5H15.625C13.9674 12.5 12.3777 13.1585 11.2056 14.3306C10.0335 15.5027 9.37501 17.0924 9.37501 18.75V68.75C9.37335 69.3417 9.54185 69.9215 9.86043 70.4201C10.179 70.9188 10.6342 71.3153 11.1719 71.5625C11.5866 71.762 12.0398 71.8687 12.5 71.875C13.2139 71.8798 13.9062 71.6306 14.4531 71.1719L28.125 60.1562V71.875C28.125 73.5326 28.7835 75.1223 29.9556 76.2944C31.1277 77.4665 32.7174 78.125 34.375 78.125H70.9375L85.5469 89.9219C86.0939 90.3806 86.7862 90.6298 87.5 90.625C87.9728 90.6194 88.4389 90.5128 88.8672 90.3125C89.3946 90.0559 89.8392 89.6561 90.15 89.1587C90.4609 88.6613 90.6255 88.0865 90.625 87.5V37.5ZM74.0235 72.5781C73.4628 72.1167 72.7574 71.8677 72.0313 71.875H34.375V59.375H65.625C67.2826 59.375 68.8723 58.7165 70.0444 57.5444C71.2165 56.3723 71.875 54.7826 71.875 53.125V37.5H84.375V80.9375L74.0235 72.5781Z" fill="white"/>
</svg>
