<svg width="90" height="90" viewBox="0 0 90 90" fill="none" xmlns="http://www.w3.org/2000/svg">
<circle cx="45" cy="45" r="45" fill="white"/>
<path d="M45 0C36.0998 0 27.3996 2.6392 19.9994 7.58387C12.5991 12.5285 6.83138 19.5566 3.42544 27.7792C0.0194978 36.0019 -0.871652 45.0499 0.864682 53.7791C2.60102 62.5082 6.88685 70.5264 13.1802 76.8198C19.4736 83.1132 27.4918 87.399 36.2209 89.1353C44.9501 90.8717 53.9981 89.9805 62.2208 86.5746C70.4434 83.1686 77.4715 77.4008 82.4161 70.0006C87.3608 62.6004 90 53.9001 90 45C89.9885 33.0688 85.2438 21.6295 76.8072 13.1928C68.3705 4.75619 56.9312 0.0114558 45 0ZM62.3077 48.4615H48.4615V62.3077C48.4615 63.2257 48.0969 64.1062 47.4477 64.7554C46.7985 65.4045 45.9181 65.7692 45 65.7692C44.082 65.7692 43.2015 65.4045 42.5523 64.7554C41.9032 64.1062 41.5385 63.2257 41.5385 62.3077V48.4615H27.6923C26.7743 48.4615 25.8938 48.0968 25.2446 47.4477C24.5955 46.7985 24.2308 45.918 24.2308 45C24.2308 44.0819 24.5955 43.2015 25.2446 42.5523C25.8938 41.9031 26.7743 41.5385 27.6923 41.5385H41.5385V27.6923C41.5385 26.7742 41.9032 25.8938 42.5523 25.2446C43.2015 24.5955 44.082 24.2308 45 24.2308C45.9181 24.2308 46.7985 24.5955 47.4477 25.2446C48.0969 25.8938 48.4615 26.7742 48.4615 27.6923V41.5385H62.3077C63.2258 41.5385 64.1062 41.9031 64.7554 42.5523C65.4045 43.2015 65.7692 44.0819 65.7692 45C65.7692 45.918 65.4045 46.7985 64.7554 47.4477C64.1062 48.0968 63.2258 48.4615 62.3077 48.4615Z" fill="url(#paint0_linear_78_49)"/>
<defs>
<linearGradient id="paint0_linear_78_49" x1="90" y1="45" x2="-2.87989e-06" y2="45" gradientUnits="userSpaceOnUse">
<stop stop-color="#F7971E"/>
<stop offset="1" stop-color="#FFD200"/>
</linearGradient>
</defs>
</svg>
