<svg width="342" height="64" viewBox="0 0 342 64" fill="none" xmlns="http://www.w3.org/2000/svg">
<rect x="2" y="2" width="60" height="60" fill="white" stroke="#117BD6" stroke-width="4"/>
<path d="M15.1 54.2H27.034L30.544 36.704C31.138 33.626 31.624 30.386 32.164 27.362H32.38C32.758 30.386 33.298 33.626 33.946 36.704L37.564 54.2H49.714L56.68 13.97H47.554L44.908 32.33C44.422 36.488 43.882 40.754 43.396 45.074H43.126C42.316 40.754 41.614 36.434 40.804 32.33L36.646 13.97H28.492L24.388 32.33C23.578 36.488 22.768 40.754 22.012 45.074H21.796C21.256 40.754 20.716 36.542 20.176 32.33L17.638 13.97H7.81L15.1 54.2Z" fill="url(#paint0_linear_64_4)"/>
<rect x="71.6041" y="2" width="60" height="60" fill="white" stroke="#117BD6" stroke-width="4"/>
<path d="M87.6621 54.2H113.744V46.1H97.3281V37.568H110.774V29.468H97.3281V22.016H113.15V13.97H87.6621V54.2Z" fill="url(#paint1_linear_64_4)"/>
<rect x="141" y="2" width="60" height="60" fill="white" stroke="#117BD6" stroke-width="4"/>
<path d="M156.871 54.2125H172.045C180.793 54.2125 187.759 50.5405 187.759 42.3325C187.759 36.9865 184.681 33.9625 180.631 32.8825V32.6665C183.871 31.4245 185.869 27.5365 185.869 23.9725C185.869 16.2505 179.227 13.9825 170.911 13.9825H156.871V54.2125ZM166.537 29.9665V21.3805H170.533C174.583 21.3805 176.473 22.5685 176.473 25.4305C176.473 28.1845 174.637 29.9665 170.533 29.9665H166.537ZM166.537 46.8145V37.0405H171.343C176.041 37.0405 178.363 38.3905 178.363 41.6845C178.363 45.1405 175.987 46.8145 171.343 46.8145H166.537Z" fill="url(#paint2_linear_64_4)"/>
<rect x="210.812" y="2" width="60" height="60" fill="white" stroke="#117BD6" stroke-width="4"/>
<path d="M252.399 44.3845C246.729 49.7845 235.173 52.1065 222.915 52.9705C224.319 54.6985 225.777 57.3985 226.479 59.3965C240.249 57.7765 252.021 54.8065 259.311 47.4625L252.399 44.3845ZM246.243 38.8765C242.139 41.7925 233.823 43.8445 226.857 44.8165C228.423 46.3285 230.097 48.6505 230.961 50.3245C238.791 48.7585 247.053 46.0585 252.399 41.8465L246.243 38.8765ZM266.115 31.9645V25.4305H239.601C240.033 24.4585 240.465 23.4325 240.789 22.4065C245.379 22.2445 250.131 22.0285 254.775 21.7585C255.963 23.1085 256.989 24.2965 257.745 25.3765L264.549 21.4345C261.795 17.9245 256.125 13.0105 251.913 9.71648L245.649 13.1725C246.513 13.9285 247.431 14.6845 248.349 15.5485C244.299 15.6565 240.249 15.7645 236.361 15.8725C237.765 14.0905 239.223 12.1465 240.627 10.1485L231.825 8.04248C230.853 10.5265 229.287 13.5505 227.613 16.1425L218.217 16.3585L219.027 23.2165C222.861 23.1085 227.397 22.9465 232.257 22.7305C231.879 23.6485 231.447 24.5665 231.015 25.4305H216.489V31.9645H226.587C223.347 35.5825 219.297 38.4445 214.545 40.3885C216.219 41.7925 219.135 44.8165 220.269 46.4365C223.779 44.6545 226.965 42.3325 229.827 39.6325C230.583 40.3885 231.231 41.2525 231.717 41.9005C237.009 40.8205 243.327 38.8765 247.647 36.0685L241.653 33.1525C239.655 34.2865 236.361 35.3665 233.013 36.2305C234.093 34.8805 235.173 33.4765 236.145 31.9645H246.567C250.563 37.8505 256.017 42.9265 262.227 45.8965C263.361 44.0605 265.629 41.1985 267.303 39.7405C262.875 38.0125 258.663 35.2045 255.423 31.9645H266.115Z" fill="url(#paint3_linear_64_4)"/>
<rect x="280" y="2" width="60" height="60" fill="white" stroke="#117BD6" stroke-width="4"/>
<path d="M302.818 9.60856H286.996V15.4406H302.818V9.60856ZM304.33 17.0066H284.35V23.1086H304.33V17.0066ZM302.926 24.7286H286.834V30.5606H302.926V24.7286ZM286.834 38.0126H302.926V32.1806H286.834V38.0126ZM296.554 50.4866H293.044V45.8966H296.554V50.4866ZM316.102 26.4026H323.716V28.3466H316.102V26.4026ZM323.716 18.9506V20.8406H316.102V18.9506H323.716ZM335.164 43.1426V36.5546H323.662V34.4486H331.384V18.9506H335.218V12.5786H331.384V8.09656H323.716V12.5786H316.102V8.09656H308.758V12.5786H304.816V18.9506H308.758V34.4486H316.21V36.5546H304.762V43.1426H312.592C310.054 46.5986 306.49 49.8926 303.034 51.8366V39.7946H286.672V58.5326H293.044V56.5886H303.034V52.4306C304.654 53.9426 306.436 56.3186 307.462 57.9926C310.432 55.8866 313.564 52.8086 316.21 49.4606V59.3426H323.662V48.5966C326.092 51.9986 328.846 55.1846 331.33 57.4526C332.518 55.7246 334.894 53.1866 336.514 51.9446C333.598 49.7306 330.25 46.4366 327.766 43.1426H335.164Z" fill="url(#paint4_linear_64_4)"/>
<defs>
<linearGradient id="paint0_linear_64_4" x1="32.245" y1="13.97" x2="32.245" y2="54.2" gradientUnits="userSpaceOnUse">
<stop stop-color="#117BD6"/>
<stop offset="1" stop-color="#16ADDD"/>
</linearGradient>
<linearGradient id="paint1_linear_64_4" x1="100.703" y1="13.97" x2="100.703" y2="54.2" gradientUnits="userSpaceOnUse">
<stop stop-color="#117BD6"/>
<stop offset="1" stop-color="#16ADDD"/>
</linearGradient>
<linearGradient id="paint2_linear_64_4" x1="172.315" y1="13.9825" x2="172.315" y2="54.2125" gradientUnits="userSpaceOnUse">
<stop stop-color="#117BD6"/>
<stop offset="1" stop-color="#16ADDD"/>
</linearGradient>
<linearGradient id="paint3_linear_64_4" x1="240.924" y1="8.04248" x2="240.924" y2="59.3965" gradientUnits="userSpaceOnUse">
<stop stop-color="#117BD6"/>
<stop offset="1" stop-color="#16ADDD"/>
</linearGradient>
<linearGradient id="paint4_linear_64_4" x1="310.432" y1="8.09656" x2="310.432" y2="59.3426" gradientUnits="userSpaceOnUse">
<stop stop-color="#117BD6"/>
<stop offset="1" stop-color="#16ADDD"/>
</linearGradient>
</defs>
</svg>
