<svg width="317" height="91" viewBox="0 0 317 91" fill="none" xmlns="http://www.w3.org/2000/svg">
<path d="M31.4634 67.3699C42.7434 67.3699 53.1484 61.1122 54.672 50.3394C55.7587 42.6559 51.3333 37.7447 44.951 35.9229L45.007 35.5268C51.5943 33.0713 55.8441 28.477 56.7403 22.14C58.1519 12.1594 51.1873 6.53534 39.7473 6.53534C32.7873 6.53534 26.7152 9.30775 20.9678 13.7436L25.9596 20.8727C29.9389 17.625 33.6478 15.7239 37.8878 15.7239C42.9278 15.7239 45.4268 18.4171 44.7771 23.0114C44.0377 28.2393 39.9911 31.9623 29.1111 31.9623L27.9348 40.2795C40.8148 40.2795 43.7395 43.9233 42.9329 49.6265C42.1823 54.9337 37.6878 57.8645 31.6878 57.8645C26.3278 57.8645 22.3775 55.2505 19.3392 51.8444L12.7773 59.2111C16.2763 63.8846 22.1034 67.3699 31.4634 67.3699Z" fill="url(#paint0_linear_235_306)"/>
<path d="M80.2528 67.3699C92.3328 67.3699 101.732 56.914 104.588 36.715C107.445 16.516 100.937 6.53534 88.8567 6.53534C76.7767 6.53534 67.3763 16.4368 64.5083 36.715C61.6516 56.914 68.1728 67.3699 80.2528 67.3699ZM81.5411 58.2606C76.4211 58.2606 73.2981 53.191 75.6283 36.715C77.9474 20.3182 82.4595 15.5655 87.5795 15.5655C92.6995 15.5655 95.7874 20.3182 93.4683 36.715C91.1381 53.191 86.6611 58.2606 81.5411 58.2606Z" fill="url(#paint1_linear_235_306)"/>
<path d="M108.253 83.1331C118.381 79.9646 124.818 72.9147 126.129 63.647C127.148 56.4387 124.713 52.1613 119.273 52.1613C115.113 52.1613 111.292 54.8545 110.698 59.0527C110.071 63.4886 113.244 65.9441 117.084 65.9441C117.324 65.9441 117.564 65.9441 117.804 65.9441C117.256 70.38 113.234 74.499 106.669 76.7961L108.253 83.1331Z" fill="url(#paint2_linear_235_306)"/>
<path d="M153.378 67.3699C165.458 67.3699 174.857 56.914 177.713 36.715C180.57 16.516 174.062 6.53534 161.982 6.53534C149.902 6.53534 140.501 16.4368 137.633 36.715C134.777 56.914 141.298 67.3699 153.378 67.3699ZM154.666 58.2606C149.546 58.2606 146.423 53.191 148.753 36.715C151.072 20.3182 155.585 15.5655 160.705 15.5655C165.825 15.5655 168.912 20.3182 166.593 36.715C164.263 53.191 159.786 58.2606 154.666 58.2606Z" fill="url(#paint3_linear_235_306)"/>
<path d="M200.487 67.3699C212.567 67.3699 221.966 56.914 224.823 36.715C227.679 16.516 221.171 6.53534 209.091 6.53534C197.011 6.53534 187.611 16.4368 184.743 36.715C181.886 56.914 188.407 67.3699 200.487 67.3699ZM201.776 58.2606C196.656 58.2606 193.532 53.191 195.863 36.715C198.182 20.3182 202.694 15.5655 207.814 15.5655C212.934 15.5655 216.022 20.3182 213.703 36.715C211.372 53.191 206.896 58.2606 201.776 58.2606Z" fill="url(#paint4_linear_235_306)"/>
<path d="M247.597 67.3699C259.677 67.3699 269.075 56.914 271.932 36.715C274.789 16.516 268.28 6.53534 256.2 6.53534C244.12 6.53534 234.72 16.4368 231.852 36.715C228.995 56.914 235.517 67.3699 247.597 67.3699ZM248.885 58.2606C243.765 58.2606 240.642 53.191 242.972 36.715C245.291 20.3182 249.803 15.5655 254.923 15.5655C260.043 15.5655 263.131 20.3182 260.812 36.715C258.482 53.191 254.005 58.2606 248.885 58.2606Z" fill="url(#paint5_linear_235_306)"/>
<path d="M290.91 53.1435L292.039 45.159H300.039L298.91 53.1435H290.91ZM280.711 45.159H288.263L287.134 53.1435H279.582L280.711 45.159ZM304.408 41.4202H277.4L273.501 68.9858H277.341L279.053 56.8823H298.381L297.297 64.55C297.221 65.0886 296.97 65.2787 296.357 65.3104C295.717 65.3104 293.633 65.3421 291.827 65.2154C292.232 66.1976 292.625 67.9402 292.669 68.9858C295.517 68.9858 297.446 68.9225 298.816 68.2888C300.245 67.6868 300.841 66.6412 301.132 64.5817L304.408 41.4202Z" fill="url(#paint6_linear_235_306)"/>
<path fill-rule="evenodd" clip-rule="evenodd" d="M23.5549 55.499C25.8415 56.9505 28.5182 57.8645 31.6878 57.8645C37.6878 57.8645 42.1823 54.9337 42.9329 49.6265C43.7395 43.9233 40.8148 40.2795 27.9348 40.2795L29.1111 31.9623C39.9911 31.9623 44.0377 28.2394 44.7771 23.0114C45.4268 18.4171 42.9277 15.7239 37.8877 15.7239C34.6976 15.7239 31.8081 16.8001 28.8779 18.7163C27.9136 19.3469 26.9449 20.0685 25.9596 20.8727L20.9678 13.7436C21.5246 13.3139 22.0844 12.8998 22.6478 12.5023C23.8465 11.6566 25.0613 10.886 26.2972 10.2005C30.4763 7.88224 34.8961 6.53536 39.7473 6.53536C51.1873 6.53536 58.1519 12.1594 56.7403 22.1401C56.1852 26.065 54.3436 29.3213 51.457 31.8151C49.7141 33.3208 47.5903 34.5484 45.1387 35.4773C45.0949 35.4939 45.051 35.5104 45.007 35.5268L44.951 35.9229C45.0085 35.9393 45.0658 35.956 45.123 35.9729C47.3148 36.6213 49.2694 37.6377 50.8404 39.0093C53.7775 41.5734 55.3737 45.3786 54.672 50.3394C53.1484 61.1122 42.7434 67.3699 31.4634 67.3699C22.1034 67.3699 16.2763 63.8846 12.7773 59.2111L19.3392 51.8444C20.5808 53.2364 21.9747 54.496 23.5549 55.499ZM56.0595 35.1456C56.916 35.9994 57.6825 36.9445 58.3393 37.98C58.392 37.5611 58.4483 37.1394 58.5083 36.715C58.7937 34.6975 59.1435 32.7456 59.5588 30.8634C58.9077 31.8962 58.1647 32.885 57.3308 33.8231C56.9229 34.282 56.4988 34.7227 56.0595 35.1456ZM62.935 20.2383C64.5184 16.6035 66.4612 13.3849 68.7769 10.6347C74.3905 3.96786 81.7605 0.594482 89.6969 0.594482C97.6543 0.594482 104.045 4.00553 107.742 10.682C111.282 17.0738 112.107 25.9772 110.588 36.715C109.069 47.458 105.712 56.4463 100.389 62.9322C94.8423 69.6922 87.4747 73.3108 79.4126 73.3108C71.3557 73.3108 64.9954 69.6974 61.3385 62.9453C60.3037 61.0346 59.501 58.9065 58.9223 56.5799C56.9815 61.0738 53.7462 64.8131 49.7401 67.5886C44.1496 71.4617 37.3167 73.3108 30.6232 73.3108C19.5556 73.3108 12.1859 69.1035 7.7205 63.1393L5.02007 59.5324L19.8902 42.8384L21.3426 44.4666L23.5822 28.6318L12.701 13.0916L17.6491 9.27266C24.2662 4.16557 31.7999 0.594482 40.5875 0.594482C47.2223 0.594482 53.2501 2.21893 57.4553 5.94516C61.3898 9.43149 63.2994 14.3919 62.935 20.2383ZM28.4521 26.0214H29.9514C34.9 26.0214 37.1265 25.1381 37.9431 24.613C38.3121 24.3758 38.6169 24.1437 38.7771 23.0114C38.8533 22.4727 38.81 22.1814 38.7814 22.0656C38.7708 22.0226 38.7614 21.9985 38.7557 21.9867C38.6915 21.9354 38.2868 21.6648 37.0475 21.6648C34.9264 21.6648 32.7646 22.5018 29.4352 25.2191L28.4521 26.0214ZM38.7541 21.9836C38.7512 21.9799 38.75 21.9775 38.7502 21.9774C38.7504 21.9772 38.7518 21.979 38.7541 21.9836ZM22.907 46.2204L24.1337 47.5956C26.6399 50.4053 29.3222 51.9237 32.528 51.9237C34.6222 51.9237 35.7519 51.4053 36.1976 51.089C36.3993 50.9459 36.5175 50.8108 36.608 50.6619C36.7033 50.5051 36.8532 50.1902 36.9329 49.6265C37.1366 48.1857 36.8627 47.9895 36.5804 47.7872C36.5694 47.7794 36.5584 47.7715 36.5475 47.7636C35.6907 47.1426 33.2382 46.2204 27.0946 46.2204H22.907ZM82.237 52.3117C82.2646 52.3154 82.3115 52.3197 82.3813 52.3197C82.4607 52.3197 82.5112 52.3142 82.5376 52.3101C82.5701 52.2871 82.6501 52.225 82.7735 52.0942C82.9386 51.9191 83.1818 51.6201 83.4788 51.1383C84.7824 49.0233 86.3376 44.7102 87.4683 36.715C88.5949 28.7496 88.237 24.5711 87.5456 22.5761C87.3898 22.1264 87.239 21.8566 87.1351 21.7057C87.0837 21.6309 87.0432 21.5845 87.0177 21.5582C87.0024 21.5423 86.9912 21.5323 86.9844 21.5267C86.961 21.521 86.8868 21.5064 86.7393 21.5064C86.5692 21.5064 86.4877 21.5258 86.4716 21.53C86.4628 21.5324 86.4696 21.53 86.4677 21.5312C86.463 21.534 86.3853 21.5797 86.24 21.728C86.0894 21.8817 85.8593 22.1532 85.5737 22.6025C84.3096 24.5913 82.7532 28.7618 81.6283 36.715C80.4993 44.6982 80.8534 49.0034 81.5693 51.1121C81.8779 52.0211 82.1732 52.2776 82.2103 52.3073C82.2162 52.3085 82.225 52.31 82.237 52.3117ZM103.671 90.5467L99.3672 73.3266L105.366 71.2277C106.804 70.7245 107.928 70.1753 108.805 69.6247C108.4 69.3301 108.013 69.0052 107.649 68.6491C105.281 66.333 104.145 62.9626 104.698 59.0527C105.857 50.8638 113.405 46.2204 120.113 46.2204C124.637 46.2204 128.35 48.1093 130.477 51.7183C130.888 52.4155 131.225 53.1525 131.497 53.9214C130.658 48.9183 130.726 43.1302 131.633 36.715C133.158 25.932 136.525 17.0206 141.902 10.6347C147.515 3.96786 154.886 0.594482 162.822 0.594482C170.779 0.594482 177.17 4.00553 180.867 10.682C182.207 13.1007 183.158 15.879 183.74 18.9803C185.212 15.8571 186.966 13.0633 189.011 10.6347C194.625 3.96786 201.995 0.594482 209.931 0.594482C217.889 0.594482 224.28 4.00553 227.977 10.682C229.316 13.1007 230.267 15.879 230.849 18.9803C232.322 15.8571 234.076 13.0633 236.121 10.6347C241.734 3.96786 249.104 0.594482 257.041 0.594482C264.998 0.594482 271.389 4.00553 275.086 10.682C278.489 16.827 279.383 25.2933 278.098 35.4793H311.248L307.132 64.5817C306.946 65.9016 306.57 67.719 305.483 69.4941C304.241 71.5211 302.482 72.8532 300.635 73.6538C298.965 74.4051 297.328 74.6668 296.036 74.7884C294.699 74.9144 293.236 74.9267 291.829 74.9267H286.822L286.616 70.0486C286.616 70.0565 286.615 70.0328 286.609 69.9745C286.603 69.918 286.594 69.8428 286.58 69.7499C286.551 69.5615 286.509 69.3377 286.456 69.0994C286.339 68.5787 286.216 68.2034 286.162 68.072L284.158 63.213L282.501 74.9267H266.661L268.493 61.9712C268.245 62.2974 267.991 62.6177 267.733 62.9322C262.186 69.6922 254.818 73.3108 246.756 73.3108C238.699 73.3108 232.339 69.6974 228.682 62.9453C227.352 60.4897 226.406 57.675 225.825 54.5413C224.368 57.6692 222.636 60.4796 220.624 62.9322C215.077 69.6922 207.709 73.3108 199.647 73.3108C191.59 73.3108 185.23 69.6974 181.573 62.9453C180.243 60.4897 179.296 57.675 178.716 54.5413C177.259 57.6692 175.527 60.4796 173.514 62.9322C167.967 69.6922 160.6 73.3108 152.538 73.3108C144.481 73.3108 138.12 69.6974 134.463 62.9453C133.568 61.2916 132.846 59.475 132.293 57.5079C132.509 59.4776 132.424 61.5572 132.129 63.647C130.417 75.7516 121.751 84.8905 109.338 88.7737L103.671 90.5467ZM273.501 68.9859H277.341L279.053 56.8823H298.381L297.297 64.55C297.295 64.5607 297.294 64.5713 297.292 64.5817C297.21 65.0961 296.957 65.2794 296.357 65.3104C296.271 65.3104 296.159 65.311 296.026 65.3117C295.41 65.3148 294.33 65.3203 293.193 65.2833C292.738 65.2684 292.274 65.2468 291.827 65.2154C292.232 66.1976 292.625 67.9403 292.669 68.9859C293.888 68.9859 294.938 68.9743 295.848 68.9114C295.913 68.9069 295.977 68.9022 296.041 68.8971C297.168 68.808 298.074 68.6321 298.816 68.2888C300.245 67.6868 300.841 66.6412 301.132 64.5817L304.408 41.4202H277.4L273.501 68.9859ZM279.582 53.1435H287.134L288.263 45.159H280.711L279.582 53.1435ZM290.91 53.1435H298.91L300.039 45.159H292.039L290.91 53.1435ZM117.761 66.2465C117.777 66.1459 117.791 66.0451 117.804 65.9441H117.084C113.244 65.9441 110.071 63.4886 110.698 59.0527C111.292 54.8545 115.113 52.1613 119.273 52.1613C124.713 52.1613 127.148 56.4387 126.129 63.647C125.09 70.9901 120.833 76.9408 114.072 80.6718C113.152 81.1799 112.184 81.6468 111.173 82.0705C110.237 82.4622 109.263 82.817 108.253 83.1331L106.669 76.7964C106.89 76.7191 107.108 76.6395 107.323 76.5581C110.504 75.3548 113.048 73.7129 114.84 71.8179C115.536 71.0818 116.118 70.3076 116.58 69.506C117.184 68.4581 117.583 67.3635 117.761 66.2465ZM155.362 52.3117C155.39 52.3154 155.436 52.3197 155.506 52.3197C155.586 52.3197 155.636 52.3142 155.663 52.3101C155.695 52.2871 155.775 52.225 155.898 52.0942C156.064 51.9191 156.307 51.6201 156.604 51.1383C157.907 49.0233 159.463 44.7102 160.593 36.715C161.72 28.7496 161.362 24.5711 160.671 22.5761C160.515 22.1264 160.364 21.8566 160.26 21.7057C160.209 21.6309 160.168 21.5845 160.143 21.5582C160.127 21.5423 160.116 21.5323 160.109 21.5267C160.086 21.521 160.012 21.5064 159.864 21.5064C159.694 21.5064 159.613 21.5258 159.597 21.53C159.595 21.5305 159.594 21.5308 159.593 21.5309C159.593 21.531 159.593 21.5309 159.593 21.5309C159.587 21.5345 159.509 21.5809 159.365 21.728C159.214 21.8817 158.984 22.1532 158.699 22.6025C157.435 24.5913 155.878 28.7618 154.753 36.715C153.624 44.6982 153.978 49.0034 154.694 51.1121C155.003 52.0213 155.298 52.2778 155.335 52.3073C155.341 52.3085 155.35 52.31 155.362 52.3117ZM202.471 52.3117C202.499 52.3154 202.546 52.3197 202.616 52.3197C202.695 52.3197 202.746 52.3142 202.772 52.3101C202.805 52.2871 202.884 52.225 203.008 52.0942C203.173 51.9191 203.416 51.6201 203.713 51.1383C205.017 49.0233 206.572 44.7102 207.703 36.715C208.829 28.7496 208.471 24.5711 207.78 22.5761C207.624 22.1264 207.473 21.8566 207.37 21.7057C207.318 21.6309 207.278 21.5845 207.252 21.5582C207.237 21.5423 207.226 21.5323 207.219 21.5267C207.195 21.521 207.121 21.5064 206.974 21.5064C206.804 21.5064 206.722 21.5258 206.706 21.53C206.697 21.5324 206.704 21.53 206.702 21.5312C206.697 21.534 206.62 21.5797 206.474 21.728C206.324 21.8817 206.094 22.1532 205.808 22.6025C204.544 24.5913 202.988 28.7618 201.863 36.715C200.734 44.6982 201.088 49.0034 201.804 51.1121C202.112 52.0211 202.408 52.2776 202.445 52.3073C202.451 52.3085 202.459 52.31 202.471 52.3117ZM249.581 52.3117C249.608 52.3154 249.655 52.3197 249.725 52.3197C249.804 52.3197 249.855 52.3142 249.881 52.3101C249.914 52.2871 249.994 52.225 250.117 52.0942C250.282 51.9191 250.526 51.6201 250.823 51.1383C252.126 49.0233 253.681 44.7102 254.812 36.715C255.939 28.7496 255.581 24.5711 254.889 22.5761C254.734 22.1264 254.583 21.8566 254.479 21.7057C254.427 21.6309 254.387 21.5845 254.361 21.5582C254.346 21.5423 254.335 21.5323 254.328 21.5267C254.305 21.521 254.231 21.5064 254.083 21.5064C253.913 21.5064 253.831 21.5258 253.815 21.53C253.807 21.5324 253.813 21.53 253.811 21.5312C253.807 21.534 253.729 21.5797 253.584 21.728C253.433 21.8817 253.203 22.1532 252.917 22.6025C251.653 24.5913 250.097 28.7618 248.972 36.715C247.843 44.6982 248.197 49.0034 248.913 51.1121C249.222 52.0213 249.517 52.2777 249.554 52.3073C249.557 52.3078 249.56 52.3085 249.564 52.3091C249.569 52.3099 249.574 52.3108 249.581 52.3117ZM104.588 36.715C101.732 56.914 92.3328 67.3699 80.2528 67.3699C68.1728 67.3699 61.6516 56.914 64.5083 36.715C67.3763 16.4368 76.7767 6.53536 88.8567 6.53536C100.937 6.53536 107.445 16.516 104.588 36.715ZM75.6283 36.715C73.2981 53.191 76.4211 58.2606 81.5411 58.2606C86.6611 58.2606 91.1381 53.191 93.4683 36.715C95.7874 20.3182 92.6995 15.5655 87.5795 15.5655C82.4595 15.5655 77.9474 20.3182 75.6283 36.715ZM177.713 36.715C174.857 56.914 165.458 67.3699 153.378 67.3699C141.298 67.3699 134.777 56.914 137.633 36.715C140.501 16.4368 149.902 6.53536 161.982 6.53536C174.062 6.53536 180.57 16.516 177.713 36.715ZM148.753 36.715C146.423 53.191 149.546 58.2606 154.666 58.2606C159.786 58.2606 164.263 53.191 166.593 36.715C168.912 20.3182 165.825 15.5655 160.705 15.5655C155.585 15.5655 151.072 20.3182 148.753 36.715ZM224.823 36.715C221.966 56.914 212.567 67.3699 200.487 67.3699C188.407 67.3699 181.886 56.914 184.743 36.715C187.611 16.4368 197.011 6.53536 209.091 6.53536C221.171 6.53536 227.679 16.516 224.823 36.715ZM195.863 36.715C193.532 53.191 196.655 58.2606 201.776 58.2606C206.896 58.2606 211.372 53.191 213.703 36.715C216.022 20.3182 212.934 15.5655 207.814 15.5655C202.694 15.5655 198.182 20.3182 195.863 36.715ZM271.932 36.715C269.075 56.914 259.677 67.3699 247.597 67.3699C235.517 67.3699 228.995 56.914 231.852 36.715C234.72 16.4368 244.12 6.53536 256.2 6.53536C268.28 6.53536 274.789 16.516 271.932 36.715ZM242.972 36.715C240.642 53.191 243.765 58.2606 248.885 58.2606C254.005 58.2606 258.482 53.191 260.812 36.715C263.131 20.3182 260.043 15.5655 254.923 15.5655C249.803 15.5655 245.291 20.3182 242.972 36.715Z" fill="white"/>
<defs>
<linearGradient id="paint0_linear_235_306" x1="14.6015" y1="31.6058" x2="302.836" y2="72.3711" gradientUnits="userSpaceOnUse">
<stop stop-color="#F85032"/>
<stop offset="1" stop-color="#E73827"/>
</linearGradient>
<linearGradient id="paint1_linear_235_306" x1="14.6015" y1="31.6058" x2="302.836" y2="72.3711" gradientUnits="userSpaceOnUse">
<stop stop-color="#F85032"/>
<stop offset="1" stop-color="#E73827"/>
</linearGradient>
<linearGradient id="paint2_linear_235_306" x1="14.6015" y1="31.6058" x2="302.836" y2="72.3711" gradientUnits="userSpaceOnUse">
<stop stop-color="#F85032"/>
<stop offset="1" stop-color="#E73827"/>
</linearGradient>
<linearGradient id="paint3_linear_235_306" x1="14.6015" y1="31.6058" x2="302.836" y2="72.3711" gradientUnits="userSpaceOnUse">
<stop stop-color="#F85032"/>
<stop offset="1" stop-color="#E73827"/>
</linearGradient>
<linearGradient id="paint4_linear_235_306" x1="14.6015" y1="31.6058" x2="302.836" y2="72.3711" gradientUnits="userSpaceOnUse">
<stop stop-color="#F85032"/>
<stop offset="1" stop-color="#E73827"/>
</linearGradient>
<linearGradient id="paint5_linear_235_306" x1="14.6015" y1="31.6058" x2="302.836" y2="72.3711" gradientUnits="userSpaceOnUse">
<stop stop-color="#F85032"/>
<stop offset="1" stop-color="#E73827"/>
</linearGradient>
<linearGradient id="paint6_linear_235_306" x1="14.6015" y1="31.6058" x2="302.836" y2="72.3711" gradientUnits="userSpaceOnUse">
<stop stop-color="#F85032"/>
<stop offset="1" stop-color="#E73827"/>
</linearGradient>
</defs>
</svg>
