<svg width="106" height="106" viewBox="0 0 106 106" fill="none" xmlns="http://www.w3.org/2000/svg">
<g filter="url(#filter0_d_30_333)">
<circle cx="53" cy="49" r="45" fill="white"/>
<path d="M53 4C44.0998 4 35.3996 6.6392 27.9994 11.5839C20.5991 16.5285 14.8314 23.5566 11.4254 31.7792C8.0195 40.0019 7.12835 49.0499 8.86468 57.7791C10.601 66.5082 14.8869 74.5264 21.1802 80.8198C27.4736 87.1132 35.4918 91.399 44.2209 93.1353C52.9501 94.8717 61.9981 93.9805 70.2208 90.5746C78.4434 87.1686 85.4715 81.4009 90.4161 74.0006C95.3608 66.6004 98 57.9002 98 49C97.9771 37.0723 93.2287 25.6396 84.7945 17.2055C76.3604 8.77127 64.9277 4.02287 53 4ZM73.5096 50.3413C73.3209 50.7608 73.0569 51.1421 72.7308 51.4663L58.0625 66.1346C57.7484 66.4577 57.3712 66.7127 56.9543 66.8839C56.5375 67.0551 56.09 67.1388 55.6394 67.1298C55.1824 67.1396 54.7281 67.0565 54.3041 66.8854C53.8801 66.7143 53.4953 66.4589 53.1731 66.1346C52.5257 65.4857 52.1622 64.6065 52.1622 63.6899C52.1622 62.7733 52.5257 61.8941 53.1731 61.2452L61.9567 52.4615H35.6923C34.7743 52.4615 33.8938 52.0968 33.2446 51.4477C32.5955 50.7985 32.2308 49.9181 32.2308 49C32.2308 48.0819 32.5955 47.2015 33.2446 46.5523C33.8938 45.9032 34.7743 45.5385 35.6923 45.5385H61.9567L53.1731 36.7548C52.5765 36.0963 52.2559 35.2336 52.2778 34.3453C52.2996 33.4571 52.6623 32.6112 53.2906 31.9829C53.9189 31.3546 54.7648 30.9919 55.6531 30.9701C56.5414 30.9482 57.404 31.2688 58.0625 31.8654L72.7308 46.5336C73.0569 46.8579 73.3209 47.2392 73.5096 47.6586C73.8561 48.5193 73.8561 49.4807 73.5096 50.3413Z" fill="url(#paint0_linear_30_333)"/>
</g>
<defs>
<filter id="filter0_d_30_333" x="0" y="0" width="106" height="106" filterUnits="userSpaceOnUse" color-interpolation-filters="sRGB">
<feFlood flood-opacity="0" result="BackgroundImageFix"/>
<feColorMatrix in="SourceAlpha" type="matrix" values="0 0 0 0 0 0 0 0 0 0 0 0 0 0 0 0 0 0 127 0" result="hardAlpha"/>
<feOffset dy="4"/>
<feGaussianBlur stdDeviation="4"/>
<feComposite in2="hardAlpha" operator="out"/>
<feColorMatrix type="matrix" values="0 0 0 0 0 0 0 0 0 0 0 0 0 0 0 0 0 0 0.25 0"/>
<feBlend mode="normal" in2="BackgroundImageFix" result="effect1_dropShadow_30_333"/>
<feBlend mode="normal" in="SourceGraphic" in2="effect1_dropShadow_30_333" result="shape"/>
</filter>
<linearGradient id="paint0_linear_30_333" x1="98" y1="49" x2="8" y2="49" gradientUnits="userSpaceOnUse">
<stop stop-color="#F7971E"/>
<stop offset="1" stop-color="#FFD200"/>
</linearGradient>
</defs>
</svg>
