<svg width="50" height="50" viewBox="0 0 50 50" fill="none" xmlns="http://www.w3.org/2000/svg">
<path d="M22.0833 33.75L36.7708 19.0625L33.8542 16.1458L22.0833 27.9167L16.1458 21.9792L13.2292 24.8958L22.0833 33.75ZM10.4167 43.75C9.27083 43.75 8.28958 43.3424 7.47292 42.5271C6.65764 41.7104 6.25 40.7292 6.25 39.5833V10.4167C6.25 9.27083 6.65764 8.28958 7.47292 7.47292C8.28958 6.65764 9.27083 6.25 10.4167 6.25H39.5833C40.7292 6.25 41.7104 6.65764 42.5271 7.47292C43.3424 8.28958 43.75 9.27083 43.75 10.4167V39.5833C43.75 40.7292 43.3424 41.7104 42.5271 42.5271C41.7104 43.3424 40.7292 43.75 39.5833 43.75H10.4167Z" fill="#117BD6"/>
</svg>
