<svg width="499" height="78" viewBox="0 0 499 78" fill="none" xmlns="http://www.w3.org/2000/svg">
<path d="M45.528 18.0082H53.784V20.7602H44.632L45.528 18.0082ZM67.864 20.7602H60.824V13.0802H47.064C47.384 11.8642 47.768 10.7122 48.088 9.56017L40.728 8.79217C40.408 10.1362 40.024 11.6082 39.576 13.0802H29.976V18.0082H38.104C37.784 18.9682 37.528 19.8642 37.208 20.7602H25.816V25.8802H67.864V20.7602ZM39.768 50.0082V47.0642H47.064V50.0082H39.768ZM37.592 32.2802H55.128V35.4162H37.592V32.2802ZM54.232 59.0322V55.1922H67.48V50.0082H54.232V47.0642H65.752V41.9442H54.232V39.8322H62.552V27.9282H30.68V39.8322H47.064V41.9442H27.992V47.0642H32.856V50.0082H26.2V55.1922H47.064V59.0322H54.232ZM24.984 20.6322C23.192 17.5602 19.096 13.4642 15.704 10.5842L9.75202 14.7442C13.08 17.7522 16.92 22.1042 18.52 25.1122L24.984 20.6322ZM24.024 33.6242H9.62402V40.6002H16.792V54.5522C14.232 56.7282 11.352 58.8402 8.85602 60.4402L12.44 67.9922C15.704 65.2402 18.328 62.8082 20.888 60.3122C24.728 65.2402 29.848 67.0962 37.464 67.4162C45.272 67.7362 58.84 67.6082 66.776 67.2242C67.16 65.1122 68.248 61.5922 69.144 59.8002C60.312 60.5042 45.208 60.6962 37.528 60.3762C31 60.1202 26.52 58.3282 24.024 54.0402V33.6242Z" fill="url(#paint0_linear_235_312)"/>
<path d="M87.64 17.2402L77.784 17.1122C78.168 19.0962 78.296 21.8482 78.296 23.6402C78.296 27.5442 78.36 35.0322 79 40.9202C80.792 58.0722 86.872 64.4082 93.912 64.4082C99.032 64.4082 103.064 60.5042 107.288 49.3682L100.888 41.5602C99.672 46.6802 97.112 54.1682 94.104 54.1682C90.072 54.1682 88.152 47.8322 87.256 38.6162C86.872 34.0082 86.808 29.2082 86.872 25.0482C86.872 23.2562 87.192 19.5442 87.64 17.2402ZM119.64 18.7122L111.512 21.3362C118.488 29.2722 121.88 44.8242 122.904 55.1282L131.288 51.8642C130.584 42.0722 125.72 26.0722 119.64 18.7122Z" fill="url(#paint1_linear_235_312)"/>
<path d="M164.12 12.8882L154.584 11.9282C154.712 15.9602 154.136 20.6322 153.24 25.4322C149.976 25.7522 146.968 25.9442 144.984 26.0082C142.616 26.0722 140.504 26.2002 138.136 26.0082L138.904 34.7122C140.888 34.3922 144.216 33.9442 146.072 33.6242C147.224 33.4962 149.272 33.2402 151.576 32.9842C149.208 41.7522 144.792 54.6802 138.584 63.0642L146.904 66.3922C152.792 56.9842 157.528 41.8162 159.96 32.0882C161.816 31.9602 163.416 31.8322 164.44 31.8322C168.408 31.8322 170.648 32.5362 170.648 37.6562C170.648 43.9922 169.752 51.7362 168.024 55.3842C167 57.4962 165.4 58.1362 163.224 58.1362C161.56 58.1362 157.848 57.4962 155.416 56.7922L156.76 65.2402C158.936 65.6882 162.008 66.1362 164.44 66.1362C169.304 66.1362 172.824 64.7282 174.936 60.2482C177.688 54.6802 178.584 44.3122 178.584 36.7602C178.584 27.5442 173.784 24.5362 167 24.5362C165.656 24.5362 163.8 24.6642 161.624 24.7922C162.072 22.4882 162.584 20.1202 162.968 18.2002C163.288 16.6002 163.736 14.5522 164.12 12.8882ZM192.6 7.57617L187.48 9.62417C189.272 12.0562 191.32 15.8322 192.664 18.4562L197.72 16.2802C196.632 14.0402 194.264 10.0082 192.6 7.57617ZM184.984 10.4562L179.928 12.5682C181.4 14.6162 183 17.6882 184.28 20.1202L178.52 22.6162C183.064 28.2482 187.608 39.5122 189.272 46.6162L197.4 42.9042C195.608 37.2082 190.808 26.5202 186.968 20.5682L190.104 19.2242C188.888 16.8562 186.584 12.8242 184.984 10.4562Z" fill="url(#paint2_linear_235_312)"/>
<path d="M201.624 33.9442V42.2002H260.504V33.9442H201.624Z" fill="url(#paint3_linear_235_312)"/>
<path d="M279.832 56.4722V48.9202H309.464V56.4722H279.832ZM309.464 34.2002V41.7522H279.832V34.2002H309.464ZM309.464 19.6722V27.0322H279.832V19.6722H309.464ZM272.152 12.2482V67.8642H279.832V63.8962H309.464V67.8642H317.528V12.2482H272.152Z" fill="url(#paint4_linear_235_312)"/>
<path d="M354.968 52.2482C353.24 56.2162 350.04 60.1842 346.584 62.8082C348.184 63.7682 350.936 65.8162 352.216 66.9682C355.8 63.8962 359.576 58.9682 361.752 53.9762L354.968 52.2482ZM361.24 42.3282H376.024V45.2722H361.24V42.3282ZM369.816 21.2082C371.16 24.0882 372.76 26.9042 374.68 29.4002H362.84C364.76 26.9682 366.36 24.2162 367.768 21.2082H369.816ZM376.024 37.5282H361.24V34.5842H376.024V37.5282ZM337.752 51.4162V44.7602H342.488V51.4162H337.752ZM342.488 18.7122V25.3042H337.752V18.7122H342.488ZM337.752 31.7042H342.488V38.3602H337.752V31.7042ZM383 50.4562V37.4642C383.704 37.9762 384.408 38.4242 385.176 38.8082C386.2 37.0162 388.312 34.3922 389.912 33.1122C387.672 32.0882 385.56 30.7442 383.64 29.0802C385.112 27.8002 386.712 26.2002 388.184 24.5362L383.128 21.5922C382.36 22.7442 381.272 24.2162 380.12 25.5602C378.904 24.2162 377.88 22.7442 376.984 21.2082H387.736V15.1922H370.008C370.52 13.4642 370.968 11.6722 371.352 9.81617L364.568 8.85617C364.184 11.0962 363.608 13.2082 362.968 15.1922H350.552V21.2082H360.28C359.576 22.5522 358.744 23.7682 357.784 24.9202C356.76 23.8322 355.544 22.7442 354.328 21.8482L349.976 25.1122C351.32 26.2642 352.728 27.6722 353.88 29.0162C352.472 30.2322 350.872 31.3202 349.208 32.2162V12.0562H331.096V63.2562H337.752V58.0722H349.208V34.7122C350.232 36.1202 351.32 37.7842 351.768 38.7442C352.728 38.2322 353.688 37.6562 354.584 37.0162V50.4562H365.272V61.0162C365.272 61.5922 365.08 61.7842 364.312 61.8482C363.608 61.8482 361.24 61.8482 359 61.7842C359.96 63.6402 361.048 66.5842 361.24 68.6322C364.952 68.6322 367.704 68.5682 369.752 67.4162C371.928 66.2642 372.44 64.4082 372.44 61.2082V50.4562H383ZM375.128 54.8082C378.328 58.3922 381.72 63.2562 383.256 66.4562L389.144 63.1282C387.544 59.8642 384.024 55.3202 380.76 51.9922L375.128 54.8082Z" fill="url(#paint5_linear_235_312)"/>
<path d="M451.928 17.8162C450.84 15.3842 448.088 11.9282 445.784 9.36817L440.28 12.3762C442.52 15.0642 445.08 18.7762 446.104 21.2082L451.928 17.8162ZM400.856 68.6322C403.928 65.3042 406.616 60.0562 408.024 55.1922L400.664 53.4002C399.192 58.0722 396.44 63.0002 393.624 65.6882L400.856 68.6322ZM412.312 55.6402C413.016 59.5442 413.528 64.7922 413.528 67.8642L420.952 66.7762C420.888 63.7682 420.12 58.7122 419.352 54.8082L412.312 55.6402ZM410.52 34.3282C408.6 32.6002 405.784 30.6802 403.224 29.0802C403.992 28.1202 404.76 27.1602 405.464 26.1362C408.088 27.6082 410.904 29.4002 412.76 30.8722C412.056 32.0882 411.352 33.2402 410.52 34.3282ZM417.304 20.1202C416.728 22.0402 416.088 23.8962 415.384 25.6242C413.4 24.2802 410.84 22.8082 408.472 21.6562L409.368 20.1202H417.304ZM451.48 28.4402V21.3362H439.576V9.68817H432.408V21.3362H424.536C425.048 19.5442 425.56 17.6882 425.944 15.7682L421.08 13.8482L419.864 14.1042H412.504C413.144 12.7602 413.72 11.3522 414.232 10.0082L407.064 8.21617C404.568 15.7042 399.128 24.8562 392.344 30.1682C393.88 31.3202 396.12 33.6242 397.4 35.0322C398.04 34.4562 398.744 33.8802 399.384 33.2402C402.008 35.0322 404.76 37.1442 406.552 38.9362C403.032 42.3922 398.872 45.1442 394.264 47.1282C395.928 48.2802 398.552 51.2242 399.64 52.9522C410.392 47.7682 419.096 38.0402 423.896 23.3842V28.4402H431.96C430.872 35.0322 427.288 42.0082 416.664 47.3842C418.52 48.7282 420.76 51.0322 421.976 52.6962C429.848 48.6642 434.328 43.5442 436.76 38.1042C439.32 44.5682 443.032 49.6242 448.472 52.9522C449.56 50.9042 451.864 47.8322 453.592 46.4242C446.936 43.0322 442.904 36.5042 440.6 28.4402H451.48ZM424.984 55.7682C426.392 59.6722 427.864 64.8562 428.248 67.9282L435.864 66.4562C435.288 63.3202 433.688 58.3282 432.152 54.5522L424.984 55.7682ZM437.784 55.4482C440.6 59.5442 444.056 65.1762 445.336 68.5682L453.144 65.9442C451.544 62.4242 447.96 57.0482 445.08 53.1442L437.784 55.4482Z" fill="url(#paint6_linear_235_312)"/>
<path d="M483.736 46.5522H490.264L491.992 24.6642L492.312 15.1282H481.688L482.008 24.6642L483.736 46.5522ZM487 63.5762C490.2 63.5762 492.632 61.2722 492.632 57.9442C492.632 54.5522 490.2 52.2482 487 52.2482C483.8 52.2482 481.368 54.5522 481.368 57.9442C481.368 61.2722 483.736 63.5762 487 63.5762Z" fill="url(#paint7_linear_235_312)"/>
<path fill-rule="evenodd" clip-rule="evenodd" d="M40.728 8.79201C40.4858 9.80919 40.207 10.8997 39.8915 12.008C39.7901 12.3641 39.6849 12.7221 39.576 13.08H29.976V18.008H38.104C37.9822 18.3734 37.8697 18.7296 37.7593 19.08C37.7518 19.1039 37.7443 19.1278 37.7368 19.1516C37.6596 19.3967 37.5834 19.6391 37.5055 19.88C37.4102 20.1748 37.3125 20.4674 37.208 20.76H25.816V25.88H67.864V20.76H60.824V13.08H47.064C47.1594 12.7176 47.2605 12.3608 47.3638 12.008C47.4566 11.6914 47.5512 11.378 47.6452 11.0666C47.7979 10.5609 47.949 10.0605 48.088 9.56001L40.728 8.79201ZM55.0041 7.08001L55.7683 4.32886L36.1113 2.27769L34.9679 7.08001H23.976V10.0503C22.463 8.54046 20.9286 7.14899 19.5874 6.01025L16.0598 3.01511L0.138733 14.1427L5.72876 19.1953C8.70765 21.8877 11.7989 25.4694 13.0523 27.624H3.624V46.6H10.792V51.7019C9.03761 53.0735 7.22952 54.3557 5.618 55.3887L1.17042 58.2398L10.3567 77.5966L16.3076 72.5791C17.9624 71.184 19.4596 69.8671 20.8657 68.5854C25.4548 71.9022 30.9545 73.1478 37.2121 73.4107L37.2183 73.411C45.2337 73.7395 58.983 73.6081 67.066 73.217L71.8266 72.9866L72.6792 68.2973C72.9857 66.6115 73.923 63.6584 74.5106 62.4833L76.8917 57.721C77.6788 59.5085 78.5744 61.1186 79.5815 62.5495C83.2312 67.7347 88.2752 70.408 93.912 70.408C98.3267 70.408 102.166 68.5929 105.354 65.1238C108.303 61.9141 110.694 57.3068 112.898 51.4959L114.129 48.2496L97.8494 28.3881L95.0504 40.1736C94.7715 41.3478 94.4257 42.6098 94.0343 43.8277C93.7215 42.2322 93.4505 40.3154 93.2318 38.0765C92.8729 33.7456 92.8092 29.1738 92.8713 25.1403L92.872 25.0942V25.048C92.872 23.6253 93.1579 20.2974 93.5297 18.3852L94.9008 11.3338L70.4929 11.0168L71.2174 14.76H66.824V7.08001H55.0041ZM72.4159 31.88H68.552V35.944H71.752V44.008H73.3263C73.2185 43.2077 73.121 42.39 73.0337 41.5551C72.7006 38.4854 72.5167 35.0462 72.4159 31.88ZM79 40.92C80.792 58.072 86.872 64.408 93.912 64.408C99.032 64.408 103.064 60.504 107.288 49.368L100.888 41.56C100.386 43.6753 99.6538 46.1949 98.7558 48.4235C97.4802 51.5892 95.8692 54.168 94.104 54.168C90.072 54.168 88.152 47.832 87.256 38.616C86.872 34.008 86.808 29.208 86.872 25.048C86.872 24.5617 86.8956 23.934 86.9389 23.2314C87.0551 21.345 87.3136 18.9188 87.64 17.24L77.784 17.112C78.1325 18.9124 78.2701 21.3452 78.2926 23.1191C78.2949 23.3001 78.296 23.4742 78.296 23.64C78.296 27.544 78.36 35.032 79 40.92ZM73.48 45.0915V53.4354L75.2702 53.2927C74.5209 50.813 73.9259 48.0781 73.48 45.0915ZM62.5111 60.192C64.2703 60.1152 65.9456 60.0252 67.48 59.9218C68.0555 59.8831 68.6112 59.8425 69.144 59.8C68.9479 60.1922 68.7426 60.6672 68.5375 61.192C67.9745 62.6328 67.4129 64.4497 67.0472 65.9624C66.9374 66.4165 66.8453 66.8431 66.776 67.224C58.84 67.608 45.272 67.736 37.464 67.416C31.5753 67.1686 27.1789 66.0029 23.7125 63.2089C22.9731 62.613 22.2761 61.943 21.6159 61.192C21.3682 60.9102 21.1256 60.617 20.888 60.312C20.6593 60.535 20.4301 60.7574 20.2 60.9797C19.204 61.9415 18.1908 62.8988 17.127 63.8739C16.9219 64.0619 16.715 64.2506 16.5059 64.4401C15.245 65.5826 13.9072 66.755 12.44 67.992L8.856 60.44C11.352 58.84 14.232 56.728 16.792 54.552V40.6H9.624V33.624H24.024V54.04C24.2604 54.4461 24.5146 54.8299 24.7866 55.192C25.2137 55.7605 25.6847 56.2759 26.2 56.7412C28.8221 59.1093 32.5888 60.1823 37.528 60.376C38.5793 60.4198 39.7696 60.454 41.064 60.4786C42.89 60.5134 44.9228 60.529 47.064 60.5255C49.3688 60.5218 51.7992 60.496 54.232 60.448C56.2538 60.4081 58.2774 60.353 60.232 60.2826C61.0039 60.2548 61.765 60.2246 62.5111 60.192ZM67.48 55.192V50.008H54.232V47.064H65.752V41.944H54.232V39.832H62.552V27.928H30.68V39.832H47.064V41.944H27.992V47.064H32.856V50.008H26.2V55.192H47.064V59.032H54.232V55.192H67.48ZM55.128 32.28H37.592V35.416H55.128V32.28ZM47.064 50.008V47.064H39.768V50.008H47.064ZM24.984 20.632C24.7014 20.1475 24.3614 19.6375 23.976 19.1109C23.8063 18.879 23.6278 18.6439 23.4415 18.4063C22.8006 17.5892 22.0673 16.7427 21.2825 15.8972C20.9295 15.517 20.5662 15.137 20.1961 14.76C18.7263 13.2626 17.1511 11.8127 15.704 10.584L9.752 14.744C11.1573 16.0142 12.6539 17.524 14.0346 19.0711C14.5889 19.6922 15.1245 20.3194 15.6281 20.9394C16.8405 22.4324 17.8669 23.8842 18.52 25.112L24.984 20.632ZM91.6921 49.025C91.6921 49.0237 91.706 49.008 91.7337 48.9817C91.706 49.0131 91.6921 49.0263 91.6921 49.025ZM95.5849 48.6714C95.6409 48.727 95.6668 48.7658 95.6657 48.7714C95.6646 48.7769 95.6366 48.7491 95.5849 48.6714ZM53.784 18.008H45.528L44.632 20.76H53.784V18.008ZM121.672 11.7511L124.266 14.8907C127.637 18.9711 130.425 24.7936 132.518 30.5981L131.534 19.4531L138.621 20.0276C140.194 20.1552 141.568 20.1114 143.411 20.0527C143.846 20.0388 144.309 20.0241 144.806 20.0106C145.685 19.9821 146.802 19.9253 148.076 19.8399C148.467 16.9847 148.659 14.3783 148.587 12.1184L148.37 5.27208L171.498 7.60042L170.991 9.79894L187.205 3.02587L187.336 3.21953L194.836 0.219238L197.552 4.1879C199.358 6.82707 201.882 11.1148 203.117 13.6586L205.861 19.3083L195.655 23.7007C196.369 25.076 197.076 26.5051 197.757 27.944H266.152V6.24801H323.528V73.864H303.464V69.896H285.832V73.864H266.152V48.2H200.247L185.101 55.1171L183.801 49.5689C183.781 49.7282 183.76 49.8873 183.739 50.0462C183.148 54.4436 182.141 59.1868 180.34 62.8563C178.801 66.0975 176.54 68.6067 173.49 70.1941C170.559 71.7203 167.389 72.136 164.44 72.136C161.439 72.136 157.924 71.6055 155.55 71.1168L151.542 70.2915L149.33 73.8248L129.133 65.7456L133.762 59.4935C134.435 58.585 135.088 57.608 135.72 56.5771L117.715 63.5868L116.933 55.7214C116.452 50.8776 115.411 44.8007 113.692 39.0661C111.938 33.2107 109.652 28.308 107.006 25.2973L100.972 18.4337L121.672 11.7511ZM137.427 53.5799C139.637 49.4145 141.548 44.6878 143.109 40.1483C142.969 40.1689 142.83 40.1894 142.692 40.2097C141.556 40.3767 140.504 40.5315 139.859 40.6355L135.665 41.3119C136.491 44.91 137.054 48.3899 137.273 51.4338L137.427 53.5799ZM145.123 33.7796C145.467 33.7253 145.787 33.6732 146.072 33.624C146.549 33.571 147.18 33.496 147.919 33.4082C148.964 33.2839 150.226 33.134 151.576 32.984C151.059 34.8994 150.444 37.0134 149.734 39.2352C147.803 45.2756 145.17 52.1128 141.887 57.923C140.85 59.7583 139.749 61.4911 138.584 63.064L146.904 66.392C147.968 64.6916 148.995 62.803 149.977 60.7923C150.512 59.697 151.034 58.5655 151.541 57.4084C152.555 55.0967 153.513 52.683 154.404 50.2527C156.778 43.7784 158.685 37.1862 159.96 32.088C160.278 32.0661 160.589 32.0441 160.891 32.0228C162.348 31.9199 163.592 31.832 164.44 31.832C168.408 31.832 170.648 32.536 170.648 37.656C170.648 43.992 169.752 51.736 168.024 55.384C167 57.496 165.4 58.136 163.224 58.136C162.818 58.136 162.29 58.0979 161.688 58.0301C160.618 57.9093 159.314 57.6943 158.049 57.4323C157.113 57.2383 156.198 57.0185 155.416 56.792L156.76 65.24C158.936 65.688 162.008 66.136 164.44 66.136C169.304 66.136 172.824 64.728 174.936 60.248C177.688 54.68 178.584 44.312 178.584 36.76C178.584 35.84 178.536 34.9819 178.443 34.1825C177.981 30.2051 176.405 27.6802 174.058 26.2157C173.853 26.0873 173.641 25.967 173.424 25.8546C171.823 25.027 169.914 24.6273 167.789 24.5501C167.529 24.5406 167.266 24.536 167 24.536C165.879 24.536 164.401 24.6251 162.678 24.729C162.336 24.7496 161.985 24.7708 161.624 24.792C161.889 23.4297 162.176 22.045 162.446 20.7438C162.587 20.0649 162.723 19.4088 162.849 18.7904C162.855 18.7623 162.86 18.7344 162.866 18.7065C162.901 18.5346 162.935 18.3656 162.968 18.2C163.288 16.6 163.736 14.552 164.12 12.888L154.584 11.928C154.644 13.8082 154.55 15.8275 154.343 17.9341C154.105 20.345 153.718 22.8703 153.24 25.432C149.976 25.752 146.968 25.944 144.984 26.008C144.707 26.0155 144.433 26.0239 144.161 26.0325C144.015 26.0372 143.869 26.0419 143.724 26.0467C141.845 26.1078 140.077 26.1654 138.136 26.008L138.904 34.712C139.777 34.5713 140.909 34.4057 142.062 34.2372C143.023 34.0968 143.998 33.9544 144.849 33.8224C144.942 33.808 145.033 33.7937 145.123 33.7796ZM169.007 18.6105C169.926 18.6807 170.857 18.8039 171.784 18.9957L175.833 17.2411C175.566 16.8118 175.306 16.418 175.056 16.0698L170.883 10.2643L169.966 14.2372C169.652 15.6003 169.295 17.2212 169.007 18.6105ZM178.52 22.616C179.649 24.0153 180.778 25.7622 181.863 27.7066C182.694 29.1962 183.499 30.8018 184.258 32.4557C185.521 35.2052 186.657 38.0884 187.575 40.7951C188.285 42.8889 188.865 44.8771 189.272 46.616L197.4 42.904C197.329 42.6771 197.252 42.4422 197.172 42.2C196.762 40.9694 196.235 39.55 195.624 38.0226C194.133 34.2935 192.142 29.9206 190.129 26.0789C190.081 25.9866 190.033 25.8947 189.984 25.803C189.75 25.3579 189.515 24.9204 189.28 24.4923C188.628 23.2999 187.98 22.181 187.353 21.1761C187.285 21.0655 187.216 20.9564 187.148 20.8487C187.131 20.8219 187.114 20.7951 187.097 20.7684C187.054 20.701 187.011 20.6342 186.968 20.568L190.104 19.224C190.021 19.0619 189.932 18.892 189.84 18.7154C189.645 18.3461 189.431 17.9474 189.203 17.529C188.595 16.4153 187.884 15.1623 187.169 13.954C186.573 12.9472 185.975 11.9715 185.432 11.1333C185.278 10.8957 185.128 10.6691 184.984 10.456L179.928 12.568C180.129 12.8478 180.333 13.1467 180.537 13.4605C180.82 13.8936 181.105 14.355 181.389 14.8336C181.637 15.25 181.884 15.6794 182.128 16.1145C182.436 16.6629 182.74 17.2202 183.037 17.7718C183.416 18.4785 183.783 19.1758 184.129 19.8327L184.28 20.12L178.52 22.616ZM197.72 16.28C197.668 16.1739 197.614 16.0637 197.557 15.9499C196.887 14.6135 195.849 12.7724 194.787 11.0104C194.03 9.75504 193.259 8.53987 192.6 7.57601L187.48 9.62401C187.707 9.93173 187.938 10.261 188.171 10.6067C189.019 11.8658 189.896 13.3433 190.708 14.7949C191.307 15.8649 191.869 16.9207 192.359 17.8646C192.387 17.918 192.414 17.971 192.442 18.0237C192.518 18.1708 192.592 18.3151 192.664 18.456L197.72 16.28ZM160.245 51.7475C161.313 51.9417 162.289 52.0768 162.88 52.1207C163.273 50.9937 163.702 49.1568 164.04 46.7067C164.431 43.8783 164.639 40.7134 164.648 37.8509C163.489 42.056 162.005 46.8937 160.245 51.7475ZM260.504 42.2V33.944H201.624V42.2H260.504ZM111.512 21.336C112.815 22.8186 113.993 24.567 115.054 26.4973C118.631 33.0036 120.876 41.5766 122.094 49.0049C122.448 51.1696 122.716 53.2372 122.904 55.128L131.288 51.864C130.584 42.072 125.72 26.072 119.64 18.712L111.512 21.336ZM317.528 67.864H309.464V63.896H279.832V67.864H272.152V12.248H317.528V67.864ZM361.24 37.528H376.024V34.584H361.24V37.528ZM376.024 42.328H361.24V45.272H376.024V42.328ZM365.272 50.456H354.584V37.016C353.688 37.656 352.728 38.232 351.768 38.744C351.655 38.501 351.5 38.2129 351.316 37.8953C351.313 37.8891 351.309 37.8829 351.305 37.8766C351.149 37.6075 350.972 37.3175 350.781 37.016C350.308 36.2709 349.749 35.4557 349.208 34.712V58.072H337.752V63.256H331.096V12.056H349.208V32.216C350.537 31.5005 351.825 30.6624 353.007 29.7346C353.099 29.6627 353.19 29.5902 353.28 29.5173C353.392 29.4266 353.503 29.3352 353.613 29.243C353.658 29.2054 353.703 29.1678 353.747 29.1299C353.792 29.0921 353.836 29.0541 353.88 29.016C353.83 28.9574 353.779 28.8987 353.728 28.8399C353.712 28.8212 353.695 28.8024 353.679 28.7837C353.22 28.2591 352.726 27.7276 352.214 27.208C351.865 26.8528 351.507 26.5031 351.147 26.1649C350.949 25.9787 350.75 25.796 350.552 25.6178C350.359 25.4446 350.167 25.2757 349.976 25.112L354.328 21.848C354.622 22.0648 354.916 22.2929 355.208 22.5294C356.121 23.2705 357.008 24.0953 357.784 24.92C357.863 24.825 357.942 24.7295 358.019 24.6335C358.88 23.5665 359.634 22.4411 360.28 21.208H350.552V15.192H362.968C363.608 13.208 364.184 11.096 364.568 8.85601L371.352 9.81601C370.968 11.672 370.52 13.464 370.008 15.192H387.736V21.208H376.984C377.709 22.4509 378.518 23.6519 379.444 24.7771C379.663 25.0425 379.888 25.3036 380.12 25.56C380.196 25.4715 380.272 25.3823 380.347 25.2928C381.414 24.0234 382.411 22.6681 383.128 21.592L388.184 24.536C388.105 24.6255 388.025 24.7147 387.946 24.8037C387.935 24.8152 387.925 24.8267 387.915 24.8382C387.855 24.9043 387.796 24.9703 387.736 25.0361C387.055 25.7868 386.353 26.5188 385.654 27.208C385.073 27.7814 384.493 28.3252 383.93 28.8255C383.889 28.8611 383.849 28.8966 383.809 28.9318C383.753 28.9817 383.696 29.0311 383.64 29.08C383.697 29.1296 383.755 29.179 383.812 29.228C384.018 29.4035 384.226 29.5753 384.437 29.7434C384.485 29.7824 384.534 29.8212 384.583 29.8598C385.899 30.8972 387.296 31.7932 388.754 32.5478C389.136 32.7456 389.522 32.9337 389.912 33.112C389.411 33.5125 388.861 34.0446 388.309 34.6416C387.503 35.5132 386.695 36.5231 386.037 37.464C385.962 37.5715 385.889 37.6782 385.818 37.7836C385.575 38.1432 385.358 38.4887 385.176 38.8078C385.176 38.8079 385.176 38.8077 385.176 38.8078C384.725 38.5823 384.296 38.3349 383.876 38.0652C383.581 37.8757 383.291 37.6753 383 37.464V50.456H372.44V61.208C372.44 64.408 371.928 66.264 369.752 67.416C367.704 68.568 364.952 68.632 361.24 68.632C361.216 68.3768 361.178 68.1076 361.128 67.8284C361.061 67.448 360.971 67.0488 360.864 66.6407C360.418 64.9448 359.677 63.0936 359 61.784C361.24 61.848 363.608 61.848 364.312 61.848C364.319 61.8474 364.326 61.8468 364.333 61.8462C365.066 61.7819 365.263 61.5955 365.272 61.0546C365.272 61.042 365.272 61.0291 365.272 61.016V50.456ZM361.752 53.976C361.483 54.5939 361.189 55.2109 360.874 55.8234C360.765 56.0349 360.654 56.2458 360.54 56.456C360.144 57.1886 359.72 57.9132 359.272 58.6238C359.209 58.7238 359.146 58.8234 359.082 58.9228C358.978 59.085 358.872 59.2464 358.766 59.4069C357.799 60.8652 356.742 62.2534 355.648 63.5179C355.502 63.6867 355.355 63.8533 355.208 64.0176C355.192 64.0357 355.175 64.0539 355.159 64.072C354.784 64.4895 354.405 64.8917 354.025 65.2766C353.422 65.8868 352.816 66.4535 352.216 66.968C352.041 66.8109 351.84 66.6371 351.617 66.4517C350.757 65.7354 349.587 64.8454 348.492 64.072C347.792 63.5778 347.123 63.1312 346.584 62.808C347.483 62.1253 348.365 61.3517 349.208 60.5107C349.734 59.9863 350.244 59.4357 350.735 58.8647C350.831 58.753 350.926 58.6406 351.02 58.5275C351.146 58.3769 351.27 58.2251 351.392 58.072C351.813 57.5462 352.215 57.0062 352.596 56.456C352.789 56.178 352.976 55.8973 353.157 55.6146C353.689 54.7833 354.169 53.9341 354.584 53.0806C354.719 52.8034 354.847 52.5257 354.968 52.248L361.752 53.976ZM355.532 72.0281L352.119 74.9533L348.202 71.4278C347.267 70.5865 345.067 68.9393 343.752 68.1101V69.256H325.096V6.05601H355.208V9.19201H358.393C358.489 8.74487 358.577 8.2951 358.654 7.84223L359.639 2.09872L378.523 4.77098L377.608 9.19201H393.736V20.2835C397.106 16.056 399.852 10.8798 401.372 6.31864L403.129 1.04758L422.245 5.82673L421.564 7.61451L421.607 7.60553L426.408 9.50063V3.68801H443.666L447.07 1.82769L450.244 5.35423C452.535 7.89961 455.871 11.9578 457.392 15.336H457.48V15.5337L459.607 20.2873L457.48 21.5259V34.44H449.542C451.358 37.4931 453.611 39.6995 456.316 41.0782L464.52 45.2591L457.382 51.0754C456.515 51.7815 454.869 53.861 453.969 55.4107C455.801 58.2009 457.534 61.1032 458.606 63.4612L461.357 69.5136L441.765 76.098L440.122 71.7442L423.09 75.036L422.782 72.5719L407.528 74.8074V69.911C406.81 70.9091 406.054 71.8468 405.265 72.7017L402.445 75.7568L388.813 70.2075L380.623 74.8363L377.847 69.0524C377.676 68.6964 377.47 68.3043 377.234 67.8842C376.251 69.9886 374.669 71.5852 372.627 72.6825C370.66 73.7731 368.61 74.2116 366.797 74.4176C365.001 74.6218 363.054 74.632 361.24 74.632H355.776L355.532 72.0281ZM378.972 59.594C379.829 60.7683 380.635 61.9496 381.343 63.0709C382.119 64.3014 382.778 65.4594 383.256 66.456L389.144 63.128C388.991 62.8154 388.82 62.491 388.633 62.1571C388.402 61.7433 388.147 61.3149 387.871 60.8759C387.3 59.9676 386.642 59.0145 385.928 58.0534C385.533 57.5213 385.121 56.9867 384.698 56.456C384.147 55.7665 383.577 55.0835 383 54.4207C382.257 53.5679 381.502 52.7485 380.76 51.992L375.128 54.808C375.597 55.333 376.07 55.8854 376.54 56.456C377.183 57.236 377.822 58.05 378.44 58.8743C378.619 59.1136 378.797 59.3536 378.972 59.594ZM389 52.233C390.286 53.8144 391.516 55.4718 392.566 57.0836C392.945 56.4024 393.312 55.6794 393.654 54.93C393.386 54.602 393.076 54.2411 392.736 53.8681C391.829 52.8749 391.119 52.2483 390.849 52.0612L389 50.7813V52.233ZM390.021 42.4222L391.891 41.6171C392.698 41.2696 393.488 40.8955 394.258 40.4954L392.96 39.0681C392.868 38.9667 392.773 38.8626 392.675 38.7564C391.841 39.6669 390.892 40.8991 390.385 41.7849L390.021 42.4222ZM397.28 34.901C397.321 34.9454 397.361 34.989 397.4 35.0318C397.603 34.8489 397.813 34.6659 398.025 34.4809C398.37 34.1801 398.721 33.8739 399.061 33.5535C399.17 33.4506 399.278 33.3462 399.384 33.24C399.671 33.4363 399.96 33.6364 400.249 33.8395C400.813 34.2358 401.378 34.6435 401.932 35.0564C403.207 36.0062 404.428 36.9834 405.465 37.9119C405.856 38.2615 406.22 38.6043 406.552 38.936C405.115 40.3473 403.57 41.6411 401.933 42.8132C401.298 43.2677 400.649 43.7038 399.987 44.1213C398.174 45.2643 396.261 46.2683 394.264 47.128C394.751 47.4652 395.32 47.9559 395.909 48.5247C396.893 49.4747 397.931 50.6424 398.733 51.6767C399.091 52.1389 399.402 52.5745 399.64 52.952C400.074 52.7429 400.504 52.5263 400.931 52.3024C402.921 51.2587 404.836 50.0539 406.663 48.6854C406.919 48.494 407.173 48.2993 407.425 48.1015C409.612 46.3857 411.667 44.4284 413.57 42.2252C415.574 39.9048 417.408 37.3115 419.046 34.44C420.119 32.5598 421.108 30.5603 422.006 28.44C422.16 28.0756 422.312 27.7076 422.461 27.336C422.972 26.0609 423.451 24.7437 423.896 23.384V28.44H431.96C431.633 30.4233 431.079 32.4413 430.176 34.44C428.663 37.7905 426.167 41.0868 422.105 44.0744C420.703 45.106 419.114 46.1007 417.315 47.0482C417.101 47.1608 416.884 47.2728 416.664 47.384C416.732 47.433 416.8 47.4833 416.869 47.5348C417.386 47.9231 417.929 48.3795 418.467 48.8708C418.536 48.9333 418.604 48.9964 418.673 49.06C419.172 49.5245 419.664 50.0155 420.127 50.5063C420.522 50.926 420.895 51.3455 421.231 51.7482C421.507 52.0785 421.758 52.3976 421.976 52.696C422.768 52.2903 423.526 51.8735 424.251 51.4465C424.418 51.348 424.584 51.2489 424.747 51.1493C425.761 50.5325 426.709 49.8952 427.593 49.2396C429.718 47.665 431.481 45.9851 432.938 44.2316C434.571 42.2667 435.819 40.2093 436.76 38.104C437.697 40.469 438.787 42.6455 440.061 44.6178C440.768 45.7132 441.531 46.7456 442.356 47.7123C442.79 48.2218 443.242 48.7131 443.711 49.1857C443.769 49.2439 443.827 49.3019 443.885 49.3595C444.798 50.2618 445.777 51.0948 446.827 51.8555C447.357 52.2395 447.905 52.6052 448.472 52.952C448.771 52.3887 449.162 51.748 449.608 51.0857C449.627 51.058 449.646 51.0302 449.665 51.0024C449.865 50.7067 450.076 50.4072 450.295 50.1089C451.348 48.6693 452.571 47.2561 453.592 46.424C451.726 45.473 450.066 44.2755 448.593 42.8667C446.189 40.5688 444.282 37.7089 442.786 34.44C441.928 32.565 441.204 30.5553 440.6 28.44H451.48V21.336H439.576V9.68801H432.408V21.336H424.536C425.048 19.544 425.56 17.688 425.944 15.768L421.08 13.848L419.864 14.104H412.504C413.144 12.76 413.72 11.352 414.232 10.008L407.064 8.21601C405.136 13.9991 401.453 20.7748 396.75 26.0075C395.956 26.8909 395.133 27.7303 394.284 28.5136C393.651 29.0981 393.004 29.6512 392.344 30.168C393.644 31.1428 395.448 32.9424 396.747 34.3261C396.937 34.5278 397.116 34.7208 397.28 34.901ZM403.471 28.7708C403.389 28.8739 403.306 28.977 403.224 29.08C403.368 29.1702 403.513 29.2614 403.659 29.3535C404.486 29.8764 405.333 30.429 406.161 30.9947C406.864 31.475 407.555 31.9647 408.209 32.4535C408.6 32.7459 408.978 33.0379 409.338 33.3274C409.648 33.5764 409.945 33.8236 410.226 34.0676C410.326 34.1548 410.424 34.2417 410.52 34.328C411.316 33.2875 411.994 32.1886 412.668 31.031C412.698 30.9781 412.729 30.9251 412.76 30.872C412.566 30.7182 412.362 30.5609 412.148 30.4008C410.485 29.1547 408.267 27.7411 406.113 26.5045C405.896 26.3798 405.679 26.2568 405.464 26.136C405.338 26.3188 405.211 26.4996 405.081 26.6787C404.564 27.3951 404.019 28.0847 403.471 28.7708ZM408.472 21.656C408.768 21.8001 409.067 21.9492 409.368 22.1024C409.632 22.2368 409.897 22.3744 410.162 22.5146C411.38 23.159 412.602 23.858 413.728 24.5542C414.31 24.9142 414.867 25.2735 415.384 25.624C415.415 25.549 415.445 25.4738 415.475 25.3983C416.143 23.7348 416.753 21.9567 417.304 20.12H409.368L408.472 21.656ZM446.104 21.208C445.958 20.8603 445.78 20.4864 445.576 20.093C445.121 19.2152 444.537 18.2406 443.884 17.2441C443.671 16.92 443.451 16.5935 443.226 16.2674C443.012 15.9559 442.792 15.6447 442.569 15.336C441.817 14.2922 441.031 13.2766 440.28 12.376L445.784 9.36801C446.714 10.4013 447.717 11.5805 448.654 12.7795C449.239 13.5278 449.798 14.2839 450.298 15.0169C450.371 15.1238 450.442 15.2302 450.512 15.336C450.877 15.8846 451.204 16.4174 451.48 16.9213C451.65 17.2316 451.8 17.5308 451.928 17.816L446.104 21.208ZM420.297 60.2973C420.165 59.4034 420.02 58.4992 419.868 57.6132C419.701 56.6436 419.527 55.696 419.352 54.808L412.312 55.64C412.361 55.9122 412.409 56.191 412.456 56.4751C412.619 57.4579 412.77 58.5046 412.903 59.5658C412.988 60.2371 413.066 60.9141 413.135 61.5845C413.145 61.6743 413.154 61.7639 413.163 61.8534C413.392 64.1139 413.528 66.2787 413.528 67.864L420.952 66.776C420.919 65.2257 420.699 63.1314 420.388 60.9312C420.359 60.7207 420.328 60.5093 420.297 60.2973ZM400.664 53.4C400.56 53.7295 400.45 54.0602 400.334 54.3913C399.576 56.5529 398.565 58.7316 397.419 60.6836C397.408 60.7028 397.397 60.722 397.386 60.7412C396.887 61.5862 396.364 62.3881 395.826 63.127C395.111 64.1069 394.37 64.976 393.624 65.688L400.856 68.632C402.746 66.5845 404.491 63.8101 405.881 60.8456C406.19 60.1876 406.481 59.5202 406.753 58.8494C407.071 58.0631 407.362 57.2721 407.622 56.4857C407.766 56.0525 407.9 55.6208 408.024 55.192L400.664 53.4ZM425.607 57.5664C425.4 56.9464 425.191 56.3433 424.984 55.768L432.152 54.552C432.631 55.7285 433.115 57.0231 433.573 58.3428C433.838 59.1062 434.095 59.8781 434.335 60.6404C434.425 60.9229 434.512 61.2041 434.596 61.4831C435.098 63.1344 435.514 64.7075 435.778 66.0125C435.809 66.164 435.838 66.312 435.864 66.456L428.248 67.928C428.119 66.8957 427.867 65.6249 427.536 64.2444C427.328 63.376 427.088 62.4641 426.828 61.5409C426.648 60.8995 426.457 60.2525 426.26 59.6109C426.048 58.9188 425.829 58.2328 425.607 57.5664ZM441.174 60.6694C442.947 63.5641 444.551 66.4874 445.336 68.568L453.144 65.944C452.533 64.5991 451.632 62.9833 450.591 61.2821C450.455 61.0599 450.317 60.8362 450.176 60.6115C449.135 58.9437 447.98 57.2185 446.849 55.605C446.246 54.7443 445.649 53.9154 445.08 53.144L437.784 55.448C438.524 56.525 439.309 57.7083 440.087 58.9291C440.453 59.5033 440.817 60.0857 441.174 60.6694ZM363.464 28.584C363.259 28.8598 363.052 29.1319 362.84 29.4H374.68C374.474 29.1316 374.271 28.8595 374.072 28.584C373.415 27.6757 372.798 26.7307 372.217 25.7603C371.755 24.9877 371.316 24.199 370.898 23.4C370.733 23.0834 370.571 22.7651 370.412 22.4455C370.208 22.0349 370.009 21.6221 369.816 21.208H367.768C367.573 21.6242 367.375 22.0356 367.172 22.4418C367.011 22.7644 366.848 23.0839 366.682 23.4C366.259 24.2049 365.819 24.9884 365.358 25.7493C364.763 26.7332 364.133 27.6791 363.464 28.584ZM337.752 44.76V51.416H342.488V44.76H337.752ZM342.488 18.712H337.752V25.304H342.488V18.712ZM342.488 31.704H337.752V38.36H342.488V31.704ZM478.019 50.3724L476.016 25.0009L475.483 9.12801H498.517L497.984 25.0009L495.981 50.3724C497.64 52.3732 498.632 54.9852 498.632 57.944C498.632 64.6759 493.423 69.576 487 69.576C483.924 69.576 480.953 68.4687 478.734 66.2677C476.508 64.0594 475.368 61.0757 475.368 57.944C475.368 54.9852 476.36 52.3732 478.019 50.3724ZM490.264 46.552L491.992 24.664L492.312 15.128H481.688L482.008 24.664L483.736 46.552H490.264ZM485.069 52.552C482.871 53.2828 481.368 55.2771 481.368 57.944C481.368 61.272 483.736 63.576 487 63.576C490.2 63.576 492.632 61.272 492.632 57.944C492.632 55.2771 491.129 53.2828 488.931 52.552C488.333 52.3533 487.684 52.248 487 52.248C486.316 52.248 485.667 52.3533 485.069 52.552ZM279.832 56.472H309.464V48.92H279.832V56.472ZM309.464 34.2H279.832V41.752H309.464V34.2ZM309.464 19.672H279.832V27.032H309.464V19.672Z" fill="url(#paint8_linear_235_312)"/>
<defs>
<linearGradient id="paint0_linear_235_312" x1="250.744" y1="7.57617" x2="250.744" y2="68.6322" gradientUnits="userSpaceOnUse">
<stop stop-color="#117BD6"/>
<stop offset="1" stop-color="#16ADDD"/>
</linearGradient>
<linearGradient id="paint1_linear_235_312" x1="250.744" y1="7.57617" x2="250.744" y2="68.6322" gradientUnits="userSpaceOnUse">
<stop stop-color="#117BD6"/>
<stop offset="1" stop-color="#16ADDD"/>
</linearGradient>
<linearGradient id="paint2_linear_235_312" x1="250.744" y1="7.57617" x2="250.744" y2="68.6322" gradientUnits="userSpaceOnUse">
<stop stop-color="#117BD6"/>
<stop offset="1" stop-color="#16ADDD"/>
</linearGradient>
<linearGradient id="paint3_linear_235_312" x1="250.744" y1="7.57617" x2="250.744" y2="68.6322" gradientUnits="userSpaceOnUse">
<stop stop-color="#117BD6"/>
<stop offset="1" stop-color="#16ADDD"/>
</linearGradient>
<linearGradient id="paint4_linear_235_312" x1="250.744" y1="7.57617" x2="250.744" y2="68.6322" gradientUnits="userSpaceOnUse">
<stop stop-color="#117BD6"/>
<stop offset="1" stop-color="#16ADDD"/>
</linearGradient>
<linearGradient id="paint5_linear_235_312" x1="250.744" y1="7.57617" x2="250.744" y2="68.6322" gradientUnits="userSpaceOnUse">
<stop stop-color="#117BD6"/>
<stop offset="1" stop-color="#16ADDD"/>
</linearGradient>
<linearGradient id="paint6_linear_235_312" x1="250.744" y1="7.57617" x2="250.744" y2="68.6322" gradientUnits="userSpaceOnUse">
<stop stop-color="#117BD6"/>
<stop offset="1" stop-color="#16ADDD"/>
</linearGradient>
<linearGradient id="paint7_linear_235_312" x1="250.744" y1="7.57617" x2="250.744" y2="68.6322" gradientUnits="userSpaceOnUse">
<stop stop-color="#117BD6"/>
<stop offset="1" stop-color="#16ADDD"/>
</linearGradient>
<linearGradient id="paint8_linear_235_312" x1="249.385" y1="0.219238" x2="249.385" y2="77.5966" gradientUnits="userSpaceOnUse">
<stop stop-color="#117BD6"/>
<stop offset="1" stop-color="#16ADDD"/>
</linearGradient>
</defs>
</svg>
