<svg width="100" height="100" viewBox="0 0 100 100" fill="none" xmlns="http://www.w3.org/2000/svg">
<path d="M8.33333 83.3333C6.04167 83.3333 4.08056 82.5181 2.45 80.8875C0.816667 79.2542 0 77.2917 0 75H16.6667C14.375 75 12.4139 74.1847 10.7833 72.5542C9.15 70.9208 8.33333 68.9583 8.33333 66.6667V20.8333C8.33333 18.5417 9.15 16.5792 10.7833 14.9458C12.4139 13.3153 14.375 12.5 16.6667 12.5H83.3333C85.625 12.5 87.5875 13.3153 89.2208 14.9458C90.8514 16.5792 91.6667 18.5417 91.6667 20.8333V66.6667C91.6667 68.9583 90.8514 70.9208 89.2208 72.5542C87.5875 74.1847 85.625 75 83.3333 75H100C100 77.2917 99.1847 79.2542 97.5542 80.8875C95.9208 82.5181 93.9583 83.3333 91.6667 83.3333H8.33333ZM50 79.1667C51.1806 79.1667 52.1708 78.7667 52.9708 77.9667C53.7681 77.1694 54.1667 76.1806 54.1667 75C54.1667 73.8195 53.7681 72.8306 52.9708 72.0333C52.1708 71.2333 51.1806 70.8333 50 70.8333C48.8194 70.8333 47.8306 71.2333 47.0333 72.0333C46.2333 72.8306 45.8333 73.8195 45.8333 75C45.8333 76.1806 46.2333 77.1694 47.0333 77.9667C47.8306 78.7667 48.8194 79.1667 50 79.1667ZM16.6667 66.6667H83.3333V20.8333H16.6667V66.6667ZM16.6667 66.6667V20.8333V66.6667Z" fill="white"/>
</svg>
