<svg width="98" height="98" viewBox="0 0 98 98" fill="none" xmlns="http://www.w3.org/2000/svg">
<g filter="url(#filter0_d_78_49)">
<circle cx="49" cy="45" r="45" fill="white"/>
<path d="M49 0C40.0998 0 31.3996 2.6392 23.9994 7.58387C16.5991 12.5285 10.8314 19.5566 7.42544 27.7792C4.0195 36.0019 3.12835 45.0499 4.86468 53.7791C6.60102 62.5082 10.8868 70.5264 17.1802 76.8198C23.4736 83.1132 31.4918 87.399 40.2209 89.1353C48.9501 90.8717 57.9981 89.9805 66.2208 86.5746C74.4434 83.1686 81.4715 77.4008 86.4161 70.0006C91.3608 62.6004 94 53.9001 94 45C93.9885 33.0688 89.2438 21.6295 80.8072 13.1928C72.3705 4.75619 60.9312 0.0114558 49 0ZM66.3077 48.4615H52.4615V62.3077C52.4615 63.2257 52.0969 64.1062 51.4477 64.7554C50.7985 65.4045 49.9181 65.7692 49 65.7692C48.082 65.7692 47.2015 65.4045 46.5523 64.7554C45.9032 64.1062 45.5385 63.2257 45.5385 62.3077V48.4615H31.6923C30.7743 48.4615 29.8938 48.0968 29.2446 47.4477C28.5955 46.7985 28.2308 45.918 28.2308 45C28.2308 44.0819 28.5955 43.2015 29.2446 42.5523C29.8938 41.9031 30.7743 41.5385 31.6923 41.5385H45.5385V27.6923C45.5385 26.7742 45.9032 25.8938 46.5523 25.2446C47.2015 24.5955 48.082 24.2308 49 24.2308C49.9181 24.2308 50.7985 24.5955 51.4477 25.2446C52.0969 25.8938 52.4615 26.7742 52.4615 27.6923V41.5385H66.3077C67.2258 41.5385 68.1062 41.9031 68.7554 42.5523C69.4045 43.2015 69.7692 44.0819 69.7692 45C69.7692 45.918 69.4045 46.7985 68.7554 47.4477C68.1062 48.0968 67.2258 48.4615 66.3077 48.4615Z" fill="url(#paint0_linear_78_49)"/>
</g>
<defs>
<filter id="filter0_d_78_49" x="0" y="0" width="98" height="98" filterUnits="userSpaceOnUse" color-interpolation-filters="sRGB">
<feFlood flood-opacity="0" result="BackgroundImageFix"/>
<feColorMatrix in="SourceAlpha" type="matrix" values="0 0 0 0 0 0 0 0 0 0 0 0 0 0 0 0 0 0 127 0" result="hardAlpha"/>
<feOffset dy="4"/>
<feGaussianBlur stdDeviation="2"/>
<feComposite in2="hardAlpha" operator="out"/>
<feColorMatrix type="matrix" values="0 0 0 0 0 0 0 0 0 0 0 0 0 0 0 0 0 0 0.25 0"/>
<feBlend mode="normal" in2="BackgroundImageFix" result="effect1_dropShadow_78_49"/>
<feBlend mode="normal" in="SourceGraphic" in2="effect1_dropShadow_78_49" result="shape"/>
</filter>
<linearGradient id="paint0_linear_78_49" x1="94" y1="45" x2="4" y2="45" gradientUnits="userSpaceOnUse">
<stop stop-color="#F7971E"/>
<stop offset="1" stop-color="#FFD200"/>
</linearGradient>
</defs>
</svg>
